<svg id="Notes" xmlns="http://www.w3.org/2000/svg" viewBox="0 0 1920 1642.33"><defs><style>.cls-1{fill:#fff;}</style></defs><path d="M515,1198a246.11,246.11,0,0,0,8.86-51.14,232.63,232.63,0,0,0,.22-25.87c-.21-4.31-.49-8.61-.93-12.89s-1.12-8.54-1.66-12.81l-.49-3.84,3.62,1.31a109.53,109.53,0,0,0,17.85,4.84,105.68,105.68,0,0,0,36.81,0,108.53,108.53,0,0,0,17.85-4.84l3.05-1.09.11,3.13.47,13.14c.06,4.38.06,8.76-.08,13.14-.29,8.75-.88,17.49-1.93,26.18s-2.43,17.32-4.24,25.86-4,17-6.61,25.31a371.93,371.93,0,0,0,7.64-51.48c.65-8.64,1-17.29,1-25.94,0-4.32,0-8.64-.21-13l-.72-12.94,3.16,2a104.26,104.26,0,0,1-18.62,5.25,103.54,103.54,0,0,1-38.55,0,103.47,103.47,0,0,1-18.62-5.26l3.13-2.53c.48,4.37,1.06,8.73,1.44,13.1s.6,8.76.65,13.15a215.44,215.44,0,0,1-1.14,26.28,208.76,208.76,0,0,1-4.41,25.86A196.76,196.76,0,0,1,515,1198Z"/><ellipse cx="502.77" cy="1198.38" rx="14.8" ry="9.18" transform="translate(-282.28 162.72) rotate(-14.4)"/><ellipse cx="576.47" cy="1198.38" rx="14.8" ry="9.18" transform="translate(-279.97 181.05) rotate(-14.4)"/><path d="M517.7,1108.68c6.76,1.57,13.51,2.74,20.27,3.63a173.62,173.62,0,0,0,20.34,1.41,139.11,139.11,0,0,0,20.28-1.25,145,145,0,0,0,20.08-4.31,70.65,70.65,0,0,1-19.52,7.38,90.49,90.49,0,0,1-20.88,2.18,104,104,0,0,1-20.83-2.34A83.9,83.9,0,0,1,517.7,1108.68Z"/><path d="M1048.43,1076.08c1.46-10.68,2.5-21.36,2.94-32.08.12-2.68.15-5.36.23-8l.1-4,0-4c0-2.68.06-5.35,0-8l-.18-8c-.37-10.71-1-21.41-1.9-32.08s-2.1-21.35-3.6-31.88l-1.94-13.6,6.55,12a97,97,0,0,0,16.66,22.29,85.58,85.58,0,0,0,10.62,9c3.78,2.75,7.76,5.19,11.89,7.62a72.33,72.33,0,0,1,6.17,4,20.89,20.89,0,0,1,5.34,5.54,18.22,18.22,0,0,1,2.65,7.26,22.34,22.34,0,0,1-.25,7.53,44.1,44.1,0,0,1-5.43,13.53,92.24,92.24,0,0,1-8.27,11.75,110.31,110.31,0,0,0,7.11-12.36,61.43,61.43,0,0,0,2.69-6.53,37.39,37.39,0,0,0,1.6-6.75,21.28,21.28,0,0,0-.16-6.72,15.4,15.4,0,0,0-2.54-6c-2.49-3.51-6.64-5.72-10.77-8a132.69,132.69,0,0,1-12.49-7.38A90.72,90.72,0,0,1,1064,971.9a96.41,96.41,0,0,1-17.77-23.2l4.6-1.59c.85,5.4,1.51,10.74,2.06,16.13s1,10.76,1.45,16.15c.75,10.79,1.15,21.6,1.13,32.41l-.12,8.11c0,2.7-.2,5.4-.3,8.1l-.2,4-.31,4c-.23,2.7-.4,5.39-.67,8.08A233.42,233.42,0,0,1,1048.43,1076.08Z"/><ellipse cx="1029.97" cy="1073.35" rx="21.43" ry="13.29" transform="translate(-234.61 289.93) rotate(-14.4)"/><path d="M118.53,1466.83A18.76,18.76,0,0,1,115,1456a14.07,14.07,0,0,1,1.29-5.78,11.86,11.86,0,0,1,3.9-4.63,14.93,14.93,0,0,1,5.62-2.3,24.5,24.5,0,0,1,6-.4,22.26,22.26,0,0,1,11.44,3.85,23.28,23.28,0,0,1,8,9.28,24.31,24.31,0,0,1,2.24,12.17,22.28,22.28,0,0,1-1.44,6.2,22,22,0,0,1-3.18,5.55,28.68,28.68,0,0,1-9.82,7.74,37.2,37.2,0,0,1-5.72,2.27,31.49,31.49,0,0,1-6.14,1.29,35.47,35.47,0,0,1-12.45-.85,37.38,37.38,0,0,1-5.94-2,27,27,0,0,1-5.55-3.15,34,34,0,0,1-8.76-9.21,43.17,43.17,0,0,1-5.09-11.39,57.72,57.72,0,0,1-1.38-6,60.38,60.38,0,0,1-.61-6.12c-.16-2-.06-4.08,0-6.12.06-1,.17-2,.25-3l.14-1.52.23-1.51a68.58,68.58,0,0,1,2.82-11.83l.07-.22.17-.33a67.91,67.91,0,0,1,15.83-20.67,63.51,63.51,0,0,1,10.86-7.39,100,100,0,0,0,10.11-5.87l1.07-.79,1-.84c.7-.54,1.28-1.19,1.92-1.79a34.12,34.12,0,0,0,3.34-4.1,37.69,37.69,0,0,0,4.86-9.7,47.93,47.93,0,0,0,2.32-10.8,48.6,48.6,0,0,0-.29-11,35.48,35.48,0,0,0-3.22-10.11l-.61-1.14a6.05,6.05,0,0,0-.66-1.1l-1.45-2.08a28.41,28.41,0,0,0-3.63-3.74,30.8,30.8,0,0,0-4.19-3,15.46,15.46,0,0,0-4.2-1.83,3.87,3.87,0,0,0-2.48,0,1.74,1.74,0,0,0-.57.53,5.43,5.43,0,0,0-.71,1.47,20.4,20.4,0,0,0-.88,4.78c-.15,1.79-.18,3.69-.15,5.62.07,3.86.38,7.84.74,11.84.75,8,1.75,16.11,2.59,24.26,1.61,16.3,2.87,32.58,4.19,48.83l2,24.35,2.15,24.36c.67,8.15,1.33,16.31,1.7,24.51s.63,16.43.27,24.74a85.73,85.73,0,0,1-1.38,12.54,36.34,36.34,0,0,1-1.85,6.29,19.28,19.28,0,0,1-3.62,5.87,17.68,17.68,0,0,1-12.37,5.3,34.21,34.21,0,0,1-12.61-2.23l-.15-.06-.06,0a16.43,16.43,0,0,1-7.59-8.35,13.45,13.45,0,0,1-1-5.61,10.84,10.84,0,0,1,1.71-5.43,13.73,13.73,0,0,1,9.12-5.79,14.74,14.74,0,0,1,5.38,0,16.57,16.57,0,0,1,5,1.83,15.16,15.16,0,0,0-10.18-1,12.64,12.64,0,0,0-7.89,5.8,10,10,0,0,0,0,9.27,13.79,13.79,0,0,0,6.79,6.58l-.2-.09a31.8,31.8,0,0,0,11.43,1.42,16.1,16.1,0,0,0,5.25-1.39,13.46,13.46,0,0,0,2.26-1.34,12.47,12.47,0,0,0,1.85-1.78c2.19-2.63,3.21-6.36,3.8-10.15a79,79,0,0,0,.78-11.79c0-8-.57-16.08-1.28-24.15s-1.57-16.15-2.5-24.23l-2.89-24.29c-.94-8.12-1.76-16.25-2.56-24.37-1.61-16.24-3.19-32.45-5.06-48.58-.87-8.06-1.92-16.14-2.74-24.37-.39-4.12-.75-8.27-.86-12.56,0-2.15,0-4.33.14-6.6a29.86,29.86,0,0,1,1.35-7.22,15.31,15.31,0,0,1,2-4,11.63,11.63,0,0,1,3.94-3.52,14.77,14.77,0,0,1,2.5-1l1.26-.25.63-.1.6,0,1.2,0a10,10,0,0,1,1.12.09c.37,0,.75.07,1.1.13l1,.22a25.5,25.5,0,0,1,7,2.92,39.32,39.32,0,0,1,10.52,9.21c.7,1,1.37,2,2,2.93a10.75,10.75,0,0,1,.9,1.53l.83,1.55a45.32,45.32,0,0,1,4.1,13.12,58.47,58.47,0,0,1,.29,13.41,57.22,57.22,0,0,1-2.89,13,47,47,0,0,1-6.14,12,42.06,42.06,0,0,1-4.41,5.32c-.86.79-1.68,1.63-2.6,2.34l-1.36,1.09-1.41,1a107.4,107.4,0,0,1-11.12,6.25,54,54,0,0,0-9.46,6.15,59.35,59.35,0,0,0-14,17.7l.24-.55-.82,2.55-.41,1.27-.33,1.3-.66,2.59-.49,2.62-.25,1.32-.16,1.32c-.09.88-.22,1.76-.3,2.65-.07,1.77-.23,3.54-.14,5.3s.22,3.52.37,5.28a46.89,46.89,0,0,0,1,5.15,35.81,35.81,0,0,0,3.9,9.55c6.71,11.78,23.33,16.62,36.05,10.52a23.31,23.31,0,0,0,8.28-5.93,18.28,18.28,0,0,0,2.71-4.2,17.59,17.59,0,0,0,1.4-4.84,20.24,20.24,0,0,0-1.33-10.17,19.81,19.81,0,0,0-6.36-8.2,19.56,19.56,0,0,0-9.74-4c-3.62-.4-7.4-.15-10.46,1.68a10.73,10.73,0,0,0-3.66,3.79,13,13,0,0,0-1.57,5.2A18.83,18.83,0,0,0,118.53,1466.83Z"/><path d="M1367,703.1s17,62.37,0,118.07"/><ellipse class="cls-1" cx="1386.65" cy="708.87" rx="20.04" ry="12.42" transform="translate(-132.74 367.19) rotate(-14.4)"/><path d="M1406.06,703.89a9.34,9.34,0,0,1-.79,6.29,17.45,17.45,0,0,1-4,5.13,30.43,30.43,0,0,1-11.4,6.32,28.59,28.59,0,0,1-13.25,1,17.52,17.52,0,0,1-6.5-2.5,9.73,9.73,0,0,1-3.38-13.19,17.18,17.18,0,0,1,4.48-5.32,28.58,28.58,0,0,1,12.1-5.51,30.29,30.29,0,0,1,13,0,17.21,17.21,0,0,1,5.93,2.59A9.37,9.37,0,0,1,1406.06,703.89Zm0,0a9.25,9.25,0,0,0-3.79-5,16,16,0,0,0-6-2.27,27.14,27.14,0,0,0-12.57,1,28.73,28.73,0,0,0-10.79,6,15.93,15.93,0,0,0-3.59,4.66,7.14,7.14,0,0,0,2.45,9.53,15.53,15.53,0,0,0,5.39,2.36,28.68,28.68,0,0,0,12.34.06,27.35,27.35,0,0,0,11.5-5.19,16.19,16.19,0,0,0,4.12-4.86A9.31,9.31,0,0,0,1406.06,703.89Z"/><path d="M807.05,1013.6a22.35,22.35,0,0,1-11.9,10.17,19.46,19.46,0,0,1-8.55,1.08,14.93,14.93,0,0,1-8.69-3.94,16.9,16.9,0,0,1-4.53-8.67,24.71,24.71,0,0,1-.08-9.23,24,24,0,0,1,3.27-8.82,22.71,22.71,0,0,1,6.89-7.11c5.48-3.65,11.79-4.83,17.17-5.26a36.23,36.23,0,0,1,9.24.4,41.3,41.3,0,0,1,8.78,2.68,42.91,42.91,0,0,1,7.8,4.48,44.71,44.71,0,0,1,6.8,6,41,41,0,0,1,5.32,7.46c.74,1.34,1.42,2.7,2,4.1L841,1008c.15.39.38,1,.48,1.32.27.89.44,1.52.63,2.22a58.86,58.86,0,0,1,1.83,17.11c-.08,1.44-.19,2.89-.38,4.32s-.5,2.86-.75,4.29a43.39,43.39,0,0,1-1.06,4.22,38.59,38.59,0,0,1-1.39,4.09,60.15,60.15,0,0,1-8.29,14.74,69.4,69.4,0,0,1-5.43,6.29,68.56,68.56,0,0,1-6.19,5.57c-.56.43-1.14.88-1.76,1.32l-1.76,1.15c-1.16.77-2.39,1.44-3.6,2.13a57.08,57.08,0,0,1-7.6,3.37,60.57,60.57,0,0,1-7.94,2.15A60.69,60.69,0,0,1,774,1082a57.94,57.94,0,0,1-14.61-5,79.61,79.61,0,0,0,29.37-1.1,55.53,55.53,0,0,0,13.08-4.86,56.65,56.65,0,0,0,5.79-3.59c.9-.68,1.82-1.33,2.67-2.07l1.29-1.09c.37-.33.76-.69,1.15-1.09a63.92,63.92,0,0,0,8.53-10.56,52.2,52.2,0,0,0,5.71-11.93,42.48,42.48,0,0,0,2.16-12.62,45.26,45.26,0,0,0-1.53-12.81l-.38-1.42a3,3,0,0,0-.16-.46l-.27-.69a25.73,25.73,0,0,0-1.29-2.7,28.24,28.24,0,0,0-3.35-4.87,29.89,29.89,0,0,0-4.38-4.13,35.43,35.43,0,0,0-5.14-3.28,27.81,27.81,0,0,0-5.53-2.07,27.28,27.28,0,0,0-5.78-.7,37.66,37.66,0,0,0-6.42.47,18.26,18.26,0,0,0-5.37,1.67,12.63,12.63,0,0,0-4,3.17,15.57,15.57,0,0,0-2.67,5c-1.27,3.76-1.31,8,.51,10.74a8.46,8.46,0,0,0,4.38,3.12,15.55,15.55,0,0,0,6.44.61A23.13,23.13,0,0,0,807.05,1013.6Z"/><circle cx="850.45" cy="1013.52" r="3.87"/><circle cx="850.45" cy="1028.24" r="3.87"/><path d="M258.74,1079.4c.54,8.42.87,16.84,1.2,25.26s.56,16.84.72,25.26.3,16.84.42,25.26.1,16.84.15,25.26l-3.23-2.38a159,159,0,0,0,23.73-9.41,45.86,45.86,0,0,0,5.36-3.08,30.88,30.88,0,0,0,4.65-3.92,20,20,0,0,0,3.7-4.52,10.79,10.79,0,0,0,1.4-5.26,12.83,12.83,0,0,0-1.06-5.5,11.07,11.07,0,0,0-3.51-4.27A14.36,14.36,0,0,0,281,1140a20.44,20.44,0,0,0-10.32,6.49,37.08,37.08,0,0,0-6.74,10.88,42.9,42.9,0,0,1,2.24-6.13,34.47,34.47,0,0,1,3.43-5.65,24.44,24.44,0,0,1,4.69-4.79,19.29,19.29,0,0,1,6.07-3.2,16,16,0,0,1,3.47-.64,17.81,17.81,0,0,1,3.5.08,16.07,16.07,0,0,1,6.74,2.33,14,14,0,0,1,4.93,5.42,16.42,16.42,0,0,1,1.73,7.08,14.85,14.85,0,0,1-1.6,7.24,24.46,24.46,0,0,1-4.3,5.65,35.39,35.39,0,0,1-5.15,4.57,49.76,49.76,0,0,1-5.81,3.56,156.12,156.12,0,0,1-24.44,9.94l-3.26,1,0-3.4c.05-8.42,0-16.84.14-25.26s.2-16.84.42-25.26.44-16.84.72-25.26S258.2,1087.82,258.74,1079.4Z"/><path d="M1451.68,295.93c-1.44,8.44-3.31,17.47-5.75,27-2.81,11-6,21-9.25,30.12"/><path d="M1451.68,295.93a86.25,86.25,0,0,1-.89,14.92,129.18,129.18,0,0,1-2.93,14.6,126.44,126.44,0,0,1-4.61,14.16,86,86,0,0,1-6.57,13.43c.69-5,1.73-9.81,2.81-14.6s2.28-9.53,3.53-14.26,2.55-9.44,3.94-14.15S1449.83,300.61,1451.68,295.93Z"/><path d="M1478.67,295.93c-1.14,8-2.75,16.72-5,26-2.11,8.72-4.51,16.73-7,24"/><path d="M1478.67,295.93a67,67,0,0,1-.19,13.06,99.87,99.87,0,0,1-6,25.2,66.81,66.81,0,0,1-5.77,11.73,125.52,125.52,0,0,1,2-12.82c.84-4.2,1.76-8.35,2.75-12.48s2.06-8.25,3.22-12.37S1477,300,1478.67,295.93Z"/><path d="M1424,313.92c10.45,0,21.38-.33,32.76-1,13.83-.81,27-2.08,39.39-3.66"/><path d="M1424,313.92c6-1.05,12-1.69,18-2.28s12-1,18-1.42,12-.7,18-.91,12-.32,18.16-.05a131.88,131.88,0,0,1-17.79,4q-9,1.41-18.05,2t-18.16.35A133.64,133.64,0,0,1,1424,313.92Z"/><path d="M1422.68,337.58c10.44-.17,21.31-.62,32.57-1.41,14.35-1,28-2.47,40.92-4.25"/><path d="M1422.68,337.58c6.13-1.14,12.24-1.87,18.34-2.54s12.2-1.2,18.3-1.68,12.21-.86,18.34-1.15,12.28-.48,18.51-.29a137,137,0,0,1-18.09,4.19c-6.09,1-12.22,1.76-18.38,2.23s-12.32.69-18.5.61A137.38,137.38,0,0,1,1422.68,337.58Z"/><path d="M653,947.5a15.62,15.62,0,0,1-1.16,5.36,16.6,16.6,0,0,1-3.26,5.18,12.17,12.17,0,0,1-5.17,3.26,12.89,12.89,0,0,1-5.94.41,17.81,17.81,0,0,1-5.55-2c-1.71-.95-3.27-2-4.79-3a25.18,25.18,0,0,1-4.35-3.54,11.59,11.59,0,0,1-3.07-5.61,10.44,10.44,0,0,1,1.22-7,14.41,14.41,0,0,1,4.69-4.84,20.4,20.4,0,0,1,11.85-3.51,20.12,20.12,0,0,1,6,1.19,13.74,13.74,0,0,1,5.15,3.55,17.06,17.06,0,0,1,3.25,5.24A14.56,14.56,0,0,1,653,947.5Zm-1,0a4.59,4.59,0,0,0-2.24-3.76,8.36,8.36,0,0,0-4.33-1.07c-1.47,0-2.83.08-4.13.07s-2.55,0-3.83.06a29.08,29.08,0,0,0-7.28,1.09,13.88,13.88,0,0,0-2.88,1.48,5.58,5.58,0,0,0-2.13,2.13,4,4,0,0,0,.27,3.56,6.54,6.54,0,0,0,3.24,2.78,8.71,8.71,0,0,0,4.48.45,41.58,41.58,0,0,0,4.3-.92,27.15,27.15,0,0,1,3.93-.71c1.29-.15,2.64-.13,4.1-.21a8.86,8.86,0,0,0,4.33-1.13A4.52,4.52,0,0,0,652,947.5Z"/><ellipse cx="1823.1" cy="52.02" rx="13.73" ry="16.05" transform="translate(773.69 1543.71) rotate(-56.51)"/><path d="M1809.44,56.59a50.77,50.77,0,0,0,14.49,11.67,31.62,31.62,0,0,0,4.21,1.88l2.16.8,1.07.41,1.11.29a43.06,43.06,0,0,0,9,1.6,54.93,54.93,0,0,0,18.09-1.74,67.05,67.05,0,0,0,16.83-6.89l3.73-2.2-.15,4.34a154.55,154.55,0,0,1-4,30.66c-1.18,5-2.58,10-4.24,14.89s-3.62,9.66-5.75,14.35a152,152,0,0,1-7.17,13.68,145,145,0,0,1-29.26,35.37A193.37,193.37,0,0,0,1848,151.56q4.07-6.37,7.6-13.05c2.34-4.45,4.44-9,6.43-13.61s3.67-9.34,5.19-14.11,2.89-9.6,4-14.48,2-9.82,2.67-14.78,1.11-10,1.34-15l3.59,2.14a71.41,71.41,0,0,1-18.25,6.89,57.41,57.41,0,0,1-19.43.92,45.75,45.75,0,0,1-9.46-2.33l-1.16-.38-1.1-.51-2.21-1A32.25,32.25,0,0,1,1823,70,45.89,45.89,0,0,1,1809.44,56.59Z"/><path d="M279.66,1259.65c-3.89,8.16-7.86,16.19-11.65,24.29s-7.43,16.23-10.89,24.45-6.77,16.51-10,24.86l-9.34,25.27a177.73,177.73,0,0,1,5.64-26.5,226.18,226.18,0,0,1,21.1-49.88A177,177,0,0,1,279.66,1259.65Z"/><path d="M248.62,1265.44c2.08,1.34,3.88,2.64,5.66,3.86s3.48,2.36,5.21,3.36a34.37,34.37,0,0,0,5.42,2.46c.49.14,1,.3,1.48.48l1.55.36.81.21c.27,0,.55.07.84.13.56.09,1.15.2,1.78.36a13.82,13.82,0,0,1-1.56,1c-.27.17-.55.3-.83.45s-.58.2-.88.3c-.6.17-1.22.36-1.84.47s-1.26.1-1.91.13a15.19,15.19,0,0,1-7.32-2,18.37,18.37,0,0,1-5.51-4.92A14.81,14.81,0,0,1,248.62,1265.44Z"/><path d="M239.38,1282.81c2.08,1.34,3.88,2.64,5.65,3.87s3.49,2.35,5.22,3.35a34.37,34.37,0,0,0,5.42,2.46c.49.14,1,.3,1.48.48l1.55.36.81.21c.27,0,.55.07.83.13.57.09,1.16.2,1.79.36a13.82,13.82,0,0,1-1.56,1c-.27.17-.55.31-.83.45s-.58.2-.88.3c-.6.17-1.22.36-1.84.47s-1.27.11-1.91.13a15.19,15.19,0,0,1-7.32-2,18.37,18.37,0,0,1-5.51-4.92A14.81,14.81,0,0,1,239.38,1282.81Z"/><ellipse cx="256.47" cy="1263.81" rx="7.91" ry="6.83" transform="translate(-306.3 103.51) rotate(-14.4)"/><ellipse cx="246.7" cy="1280.66" rx="7.91" ry="6.83" transform="translate(-310.8 101.61) rotate(-14.4)"/><path d="M1151.31,740.66a21.44,21.44,0,0,0-.13-5.83,10.38,10.38,0,0,0-2.15-5.05,6.81,6.81,0,0,0-4.46-2.39,11.47,11.47,0,0,0-5.23.61,15.22,15.22,0,0,0-8.27,6.25,21.82,21.82,0,0,0-2.59,10.31c-.09,1.87-.06,3.77,0,5.7l.1,2.92c0,1,.07,2,.12,2.9a63.92,63.92,0,0,0,1.61,11.2,71.08,71.08,0,0,0,3.42,10.78c.7,1.74,1.54,3.47,2.33,5.3l2.4,5.42c3.13,7.28,6.37,14.36,9.08,22a52.31,52.31,0,0,1,1.69,6,47.74,47.74,0,0,1,.87,6.19,46.12,46.12,0,0,1,.13,6.24,24.09,24.09,0,0,1-.41,3.28,11,11,0,0,1-.47,1.7c-.2.52-.37,1-.59,1.55a21.28,21.28,0,0,1-8.47,9.79,16.68,16.68,0,0,1-12.74,1.67,20.39,20.39,0,0,1-5.74-2.64,10.84,10.84,0,0,1-4.19-4.83,8.82,8.82,0,0,1,0-6.24,12.34,12.34,0,0,1,3.35-5,12.59,12.59,0,0,0-2.48,5.19,7.55,7.55,0,0,0,.65,5.3,9.28,9.28,0,0,0,3.89,3.54,17.56,17.56,0,0,0,5.17,1.75,14.35,14.35,0,0,0,5.27-.07,13.24,13.24,0,0,0,2.48-.78c.4-.15.78-.38,1.17-.57a10,10,0,0,0,1-.67,17.64,17.64,0,0,0,6.26-8.21c.15-.4.25-.83.38-1.24a7.35,7.35,0,0,0,.25-1.15,19.62,19.62,0,0,0,.16-2.6,48,48,0,0,0-.33-5.55,41.92,41.92,0,0,0-1-5.47,46.77,46.77,0,0,0-1.71-5.31c-1.34-3.55-2.91-7.14-4.48-10.74L1133,791.2l-2.32-5.41c-.75-1.79-1.61-3.62-2.36-5.54a67.82,67.82,0,0,1-3.52-11.77,68.6,68.6,0,0,1-1.32-12.21c0-1,0-2,0-3s0-2,0-3c0-2,.14-4,.36-6.1A35,35,0,0,1,1125,738a19.21,19.21,0,0,1,2.81-5.91,16.68,16.68,0,0,1,4.84-4.46,19.78,19.78,0,0,1,5.92-2.45,14.19,14.19,0,0,1,6.45,0,9.79,9.79,0,0,1,3,1.32,8.57,8.57,0,0,1,2.3,2.35,11.46,11.46,0,0,1,1.71,6A20.17,20.17,0,0,1,1151.31,740.66Z"/><path d="M1116.53,795a16.89,16.89,0,0,1,3.38-4.26,19.14,19.14,0,0,1,2.17-1.73,25.13,25.13,0,0,1,2.33-1.44,16.6,16.6,0,0,1,5.48-1.92,12.42,12.42,0,0,1,1.48-.17,13.87,13.87,0,0,1,1.58,0c1,.07,1.87.2,2.75.32,1.72.26,3.43.62,5.14,1,.85.2,1.7.39,2.55.62l.57.15.51.12a9.6,9.6,0,0,0,1,.18,12.91,12.91,0,0,0,8.9-2.76,10.29,10.29,0,0,1-3.3,4.45,11,11,0,0,1-5.51,2.24,13.13,13.13,0,0,1-1.54.07c-.26,0-.51,0-.77,0l-.71-.07c-.86-.07-1.71-.19-2.56-.29-1.7-.21-3.39-.5-5.09-.74-.83-.13-1.67-.26-2.39-.34a11.4,11.4,0,0,0-2.12,0,19.28,19.28,0,0,0-4.49.82c-.76.22-1.62.51-2.37.75s-1.56.55-2.33.87C1119.68,793.4,1118.15,794.17,1116.53,795Z"/><path d="M1133.31,838.29c0,.65-.07,5.27-3.29,6.92-2.19,1.13-4.56.25-5.81-.21-3.25-1.2-6.83-4.28-7.08-8.18a11.36,11.36,0,0,1,1-4.87,7.12,7.12,0,0,1,1.48-2.55,5.23,5.23,0,0,1,2.69-1.21,7.88,7.88,0,0,1,4,.34A10.79,10.79,0,0,1,1133.31,838.29Z"/><path d="M1258.23,506.6c-1.19,9.51-2.1,19-2.57,28.53s-.53,19-.11,28.49,1.26,18.94,2.37,28.38c.58,4.71,1.23,9.44,1.92,14.16l2.13,14.1-4.09-1.29a44.71,44.71,0,0,1,17.64-11,36.5,36.5,0,0,1,10.33-1.84c3.48-.15,6.82.2,9.9,0a29.79,29.79,0,0,0,9.16-2.21,45.4,45.4,0,0,0,8.43-4.71,88,88,0,0,0,14.46-13.46,72.81,72.81,0,0,1-13.19,15.11c-5.14,4.36-11.46,7.8-18.5,8.73-3.54.45-6.86.24-10,.54a36.22,36.22,0,0,0-9.17,2,42.17,42.17,0,0,0-15.63,10.3l-3.35,3.35-.74-4.64-2.3-14.25c-.75-4.74-1.28-9.5-1.85-14.28a269.78,269.78,0,0,1-1.78-28.84,233.22,233.22,0,0,1,1.64-28.84A211.71,211.71,0,0,1,1258.23,506.6Z"/><path d="M1255.16,596.53A37.18,37.18,0,0,1,1275.1,583a50.21,50.21,0,0,1,8.06-1.39,66.94,66.94,0,0,0,7.59-1.11,44.23,44.23,0,0,0,7.24-2.26,63.06,63.06,0,0,0,13.52-7.75,36.88,36.88,0,0,1-12.18,10.6,36.32,36.32,0,0,1-7.67,3.09,50.25,50.25,0,0,1-8.06,1.4,67.46,67.46,0,0,0-7.6,1.1,45.28,45.28,0,0,0-7.26,2.22A64.09,64.09,0,0,0,1255.16,596.53Z"/><ellipse cx="1272.93" cy="507.73" rx="16.61" ry="11.84" transform="translate(-85.3 325.14) rotate(-14.09)"/><path d="M1641.5,376.29a15.41,15.41,0,0,1-1.17,5.36,16.39,16.39,0,0,1-3.25,5.18,12.14,12.14,0,0,1-5.18,3.26,12.84,12.84,0,0,1-5.93.41,17.81,17.81,0,0,1-5.55-2c-1.71-.95-3.28-2-4.79-3a25.18,25.18,0,0,1-4.35-3.54,11.59,11.59,0,0,1-3.07-5.61,10.5,10.5,0,0,1,1.21-7,14.54,14.54,0,0,1,4.7-4.84A20.4,20.4,0,0,1,1626,360.9a20.18,20.18,0,0,1,6,1.19,13.74,13.74,0,0,1,5.15,3.55,17.25,17.25,0,0,1,3.25,5.24A14.56,14.56,0,0,1,1641.5,376.29Zm-1,0a4.59,4.59,0,0,0-2.24-3.76,8.36,8.36,0,0,0-4.33-1.07c-1.47,0-2.84.08-4.13.07s-2.56,0-3.83.06a29,29,0,0,0-7.28,1.09,14,14,0,0,0-2.89,1.48,5.49,5.49,0,0,0-2.12,2.13,4,4,0,0,0,.27,3.56,6.56,6.56,0,0,0,3.23,2.78,8.76,8.76,0,0,0,4.49.45,42.16,42.16,0,0,0,4.3-.92,27.15,27.15,0,0,1,3.93-.71c1.29-.15,2.64-.13,4.1-.21a8.91,8.91,0,0,0,4.33-1.13A4.52,4.52,0,0,0,1640.5,376.29Z"/><path d="M1503.58,620.2a167.16,167.16,0,0,0,4.72-18.33,145.3,145.3,0,0,0,2.39-18.64,139.07,139.07,0,0,0,0-18.71,142.18,142.18,0,0,0-2.38-18.51l-.72-3.78,3.73,1a60.62,60.62,0,0,0,13,2.07,61.4,61.4,0,0,0,13.13-.77,59.26,59.26,0,0,0,6.44-1.44c2.11-.61,4.2-1.33,6.25-2.14a64.49,64.49,0,0,0,11.73-6.13l2.9-1.93.48,3.39a141.37,141.37,0,0,1,1.24,14.66,138.21,138.21,0,0,1-.22,14.68,141.31,141.31,0,0,1-1.71,14.54,132,132,0,0,1-3.24,14.23c.7-4.81,1.25-9.62,1.6-14.43s.51-9.62.51-14.42-.26-9.6-.65-14.37-1.06-9.52-1.83-14.23l3.38,1.46a68.33,68.33,0,0,1-12.38,7c-2.19.92-4.43,1.7-6.71,2.4a68.72,68.72,0,0,1-7,1.63,59.53,59.53,0,0,1-14.23.86,64.83,64.83,0,0,1-14-2.38l3-2.75a132.77,132.77,0,0,1,2,19.18c.13,3.22.06,6.43-.1,9.64s-.42,6.41-.8,9.59a124.4,124.4,0,0,1-3.82,18.79A115.85,115.85,0,0,1,1503.58,620.2Z"/><ellipse cx="1496.17" cy="616.86" rx="10.67" ry="6.89" transform="translate(-105.28 383.62) rotate(-14.12)"/><ellipse cx="1551.95" cy="594.64" rx="10.67" ry="6.89" transform="translate(-98.17 396.55) rotate(-14.12)"/><path d="M1694.29,147.21c-3.89,8.16-7.86,16.19-11.66,24.29s-7.43,16.24-10.89,24.46-6.76,16.5-10,24.85l-9.35,25.27a177.76,177.76,0,0,1,5.65-26.5,221.16,221.16,0,0,1,9.05-25.57,225.08,225.08,0,0,1,12-24.31A176,176,0,0,1,1694.29,147.21Z"/><path d="M1663.25,153c2.07,1.35,3.88,2.64,5.65,3.87s3.49,2.35,5.22,3.35a32.72,32.72,0,0,0,5.42,2.46q.72.21,1.47.48l1.56.36.81.21c.27,0,.55.07.83.13.57.09,1.16.2,1.78.36a11.8,11.8,0,0,1-1.55,1c-.27.16-.55.3-.83.45s-.59.19-.88.29c-.6.17-1.22.36-1.84.47s-1.27.11-1.91.13a15.12,15.12,0,0,1-7.33-2,18.46,18.46,0,0,1-5.5-4.92A14.81,14.81,0,0,1,1663.25,153Z"/><path d="M1654,170.37c2.07,1.35,3.88,2.64,5.65,3.87s3.49,2.35,5.22,3.35a32.72,32.72,0,0,0,5.42,2.46q.72.21,1.47.48l1.55.36.82.21c.27,0,.55.07.83.13.57.1,1.16.2,1.78.36a11.8,11.8,0,0,1-1.55,1c-.27.16-.55.3-.83.45s-.59.19-.88.29a18.54,18.54,0,0,1-1.85.47c-.62.07-1.26.11-1.9.13a15.12,15.12,0,0,1-7.33-2,18.32,18.32,0,0,1-5.5-4.92A14.81,14.81,0,0,1,1654,170.37Z"/><ellipse cx="1671.09" cy="151.38" rx="7.91" ry="6.83" transform="translate(14.87 420.42) rotate(-14.4)"/><ellipse cx="1661.33" cy="168.22" rx="7.91" ry="6.83" transform="translate(10.37 418.52) rotate(-14.4)"/><path d="M975.53,880.38a17.71,17.71,0,0,1-.5,3.53,11.47,11.47,0,0,1-1.75,3.92,6.81,6.81,0,0,1-7.29,2.76,10.51,10.51,0,0,1-3.59-1.82c-1.07-.8-2-1.62-2.95-2.33a36.36,36.36,0,0,1-2.84-2.28,8.37,8.37,0,0,1-2.4-3.78,7.49,7.49,0,0,1,.55-5.22,9.93,9.93,0,0,1,3.18-3.58,12.74,12.74,0,0,1,8-2.59,11.81,11.81,0,0,1,4.06,1,8.34,8.34,0,0,1,3.3,2.85,12.19,12.19,0,0,1,1.74,4A14.27,14.27,0,0,1,975.53,880.38Zm-1,0a2.15,2.15,0,0,0-1.57-1.94,4.74,4.74,0,0,0-2.83.19c-.89.28-1.63.62-2.28.76s-1.25.22-1.86.29c-1.2.17-2.4,0-3.48.17a11.36,11.36,0,0,1-1.37.22,2.6,2.6,0,0,0-1.46.31,1.44,1.44,0,0,0-.4,1.73,2.65,2.65,0,0,0,1.73,1.52,4.06,4.06,0,0,0,2.64-.24c.87-.32,1.65-.85,2.34-1.14a4.15,4.15,0,0,1,2-.49,9.93,9.93,0,0,1,2.25.48,4.84,4.84,0,0,0,2.82.12A2.07,2.07,0,0,0,974.53,880.38Z"/></svg>