<svg xmlns="http://www.w3.org/2000/svg" viewBox="0 0 146.44 146.44"><defs><style>.cls-1{fill:none;stroke-width:10px;}.cls-1,.cls-2{stroke:#1d1d1b;stroke-miterlimit:10;}.cls-2{fill:#010101;}</style></defs><g id="Calque_2" data-name="Calque 2"><g id="Calque_1-2" data-name="Calque 1"><circle class="cls-1" cx="73.22" cy="73.22" r="68.22"/><path class="cls-2" d="M106.38,40.16a10.38,10.38,0,1,0-17.65.05c-4.73,1.88-7.3,5.34-7.3,9.92v6.52a1.49,1.49,0,1,0,3,0V50.13c0-3.84,2.42-6.45,7.19-7.73a1.5,1.5,0,0,0,1.05-1,1.49,1.49,0,0,0-.37-1.44,7.39,7.39,0,1,1,10.55,0,1.5,1.5,0,0,0,.68,2.49c4.84,1.28,7.29,3.89,7.29,7.76V62a2.07,2.07,0,1,1-4.14,0V51.28a1.5,1.5,0,1,0-3,0V83a1.5,1.5,0,0,0,3,0V66.57a4.93,4.93,0,0,0,2.07.45h.06V97.86a1.5,1.5,0,1,0,3,0V66a5.07,5.07,0,0,0,2-4V50.13c0-4.61-2.61-8.09-7.4-10Z"/><path class="cls-2" d="M97.6,97.76a5.28,5.28,0,0,0,9.06-3.68V88.93a1.5,1.5,0,0,0-3,0v5.15a2.29,2.29,0,1,1-4.57,0V74.81a1.5,1.5,0,0,0-3,0V94.08a2.29,2.29,0,1,1-4.57,0V51.28a1.5,1.5,0,1,0-3,0V69.13a2.07,2.07,0,0,1-4.14,0v-6.5a1.49,1.49,0,1,0-3,0v6.5a5.06,5.06,0,0,0,5,5.06,4.93,4.93,0,0,0,2.07-.45V94.08a5.28,5.28,0,0,0,5.27,5.28,5.21,5.21,0,0,0,3.78-1.6Z"/><path class="cls-2" d="M61.3,81.76V71.06c0-4.19-2.33-7.36-6.63-9.09a9.54,9.54,0,1,0-17.74-4.86A9.44,9.44,0,0,0,38.28,62c-4.24,1.74-6.54,4.9-6.54,9.06v2a1.49,1.49,0,1,0,3,0v-2c0-3.41,2.16-5.72,6.4-6.87a1.47,1.47,0,0,0,1.05-1,1.5,1.5,0,0,0-.37-1.44,6.48,6.48,0,0,1-1.89-4.59,6.55,6.55,0,0,1,13.1,0,6.47,6.47,0,0,1-1.87,4.57,1.5,1.5,0,0,0,.69,2.49c4.3,1.14,6.48,3.45,6.48,6.89v10.7a1.73,1.73,0,1,1-3.45,0V72.09a1.5,1.5,0,0,0-3,0V75H41.17V72.09a1.5,1.5,0,0,0-3,0v9.67a1.73,1.73,0,0,1-3.46,0V79a1.49,1.49,0,1,0-3,0v2.78a4.71,4.71,0,0,0,6.44,4.39v8.29A4.91,4.91,0,0,0,46.52,98a4.91,4.91,0,0,0,8.34-3.53V86.15a4.66,4.66,0,0,0,1.72.33,4.72,4.72,0,0,0,4.72-4.72ZM51.87,78v2.32c-2.35,2.42-4.52,3.51-5.35,3.51s-3-1.09-5.35-3.51V78ZM43.1,96.37a1.92,1.92,0,0,1-1.93-1.93V84.3A12.38,12.38,0,0,0,45,86.53v7.91a1.93,1.93,0,0,1-1.93,1.93Zm6.84,0A1.93,1.93,0,0,1,48,94.44V86.53a12.5,12.5,0,0,0,3.86-2.23V94.44a1.93,1.93,0,0,1-1.93,1.93Z"/><path class="cls-2" d="M71.66,95.46A15.32,15.32,0,1,0,87,110.78,15.33,15.33,0,0,0,71.66,95.46Zm0,27.66A12.34,12.34,0,1,1,84,110.78a12.36,12.36,0,0,1-12.33,12.34Z"/><path class="cls-2" d="M71.66,103.36a1.49,1.49,0,0,0-1.5,1.49v5.2l-2.69,2.1a1.5,1.5,0,1,0,1.84,2.36L72.58,112a1.51,1.51,0,0,0,.57-1.18v-5.93a1.49,1.49,0,0,0-1.49-1.49Z"/><path class="cls-2" d="M50.61,109.29H38a1.49,1.49,0,0,0,0,3H50.61a1.49,1.49,0,1,0,0-3Z"/><path class="cls-2" d="M100.05,103.76a1.49,1.49,0,0,0-2,2.18l3.57,3.35H92.71a1.49,1.49,0,0,0,0,3h8.87L98,115.62a1.49,1.49,0,0,0,2,2.18l6.32-5.93a1.49,1.49,0,0,0,0-2.18Z"/></g></g></svg>