<svg xmlns="http://www.w3.org/2000/svg" xmlns:xlink="http://www.w3.org/1999/xlink" viewBox="0 0 1994.09 603.6">
  <defs>
    <style>
      .cls-1 {
        fill: url(#Dégradé_sans_nom_33);
      }

      .cls-2 {
        fill: url(#Dégradé_sans_nom_33-2);
      }

      .cls-3 {
        fill: url(#Dégradé_sans_nom_33-3);
      }

      .cls-4 {
        fill: url(#Dégradé_sans_nom_33-4);
      }

      .cls-5 {
        fill: url(#Dégradé_sans_nom_33-5);
      }

      .cls-6 {
        fill: url(#Dégradé_sans_nom_30);
      }

      .cls-7 {
        fill: url(#Dégradé_sans_nom_30-2);
      }

      .cls-8 {
        fill: url(#Dégradé_sans_nom_30-3);
      }

      .cls-9 {
        fill: url(#Dégradé_sans_nom_30-4);
      }

      .cls-10 {
        fill: url(#Dégradé_sans_nom_30-5);
      }

      .cls-11 {
        fill: url(#Dégradé_sans_nom_30-6);
      }

      .cls-12 {
        fill: url(#Dégradé_sans_nom_30-7);
      }

      .cls-13 {
        fill: url(#Dégradé_sans_nom_30-8);
      }

      .cls-14 {
        fill: url(#Dégradé_sans_nom_30-9);
      }

      .cls-15 {
        fill: url(#Dégradé_sans_nom_30-10);
      }

      .cls-16 {
        fill: url(#Dégradé_sans_nom_30-11);
      }

      .cls-17 {
        fill: url(#Dégradé_sans_nom_30-12);
      }

      .cls-18 {
        fill: url(#Dégradé_sans_nom_30-13);
      }

      .cls-19 {
        fill: url(#Dégradé_sans_nom_30-14);
      }

      .cls-20 {
        fill: url(#Dégradé_sans_nom_30-15);
      }

      .cls-21 {
        fill: url(#Dégradé_sans_nom_30-16);
      }

      .cls-22 {
        fill: url(#Dégradé_sans_nom_30-17);
      }

      .cls-23 {
        fill: none;
        stroke: #cbb260;
        stroke-miterlimit: 10;
      }
    </style>
    <linearGradient id="Dégradé_sans_nom_33" data-name="Dégradé sans nom 33" x1="27.47" y1="277.65" x2="1979.69" y2="-6.48" gradientUnits="userSpaceOnUse">
      <stop offset="0" stop-color="#ede3c2"/>
      <stop offset="0.18" stop-color="#eadeb8"/>
      <stop offset="0.48" stop-color="#e0d09d"/>
      <stop offset="0.86" stop-color="#d1ba71"/>
      <stop offset="1" stop-color="#cbb260"/>
    </linearGradient>
    <linearGradient id="Dégradé_sans_nom_33-2" x1="44.69" y1="422.24" x2="1983.54" y2="24.28" xlink:href="#Dégradé_sans_nom_33"/>
    <linearGradient id="Dégradé_sans_nom_33-3" x1="72.3" y1="557.68" x2="1992.41" y2="60.47" xlink:href="#Dégradé_sans_nom_33"/>
    <linearGradient id="Dégradé_sans_nom_33-4" x1="141.09" y1="738.91" x2="1994.81" y2="18.56" xlink:href="#Dégradé_sans_nom_33"/>
    <linearGradient id="Dégradé_sans_nom_33-5" x1="73.92" y1="739.48" x2="1997.78" y2="214.92" xlink:href="#Dégradé_sans_nom_33"/>
    <radialGradient id="Dégradé_sans_nom_30" data-name="Dégradé sans nom 30" cx="1698.48" cy="117.13" r="23.21" xlink:href="#Dégradé_sans_nom_33"/>
    <radialGradient id="Dégradé_sans_nom_30-2" data-name="Dégradé sans nom 30" cx="788.48" cy="197.27" r="23.21" xlink:href="#Dégradé_sans_nom_33"/>
    <radialGradient id="Dégradé_sans_nom_30-3" data-name="Dégradé sans nom 30" cx="33.63" cy="272.49" r="23.21" xlink:href="#Dégradé_sans_nom_33"/>
    <radialGradient id="Dégradé_sans_nom_30-4" data-name="Dégradé sans nom 30" cx="1714.84" cy="248.29" r="6.96" gradientTransform="translate(391.37 -866.53) rotate(31.99)" xlink:href="#Dégradé_sans_nom_33"/>
    <radialGradient id="Dégradé_sans_nom_30-5" data-name="Dégradé sans nom 30" cx="1475.73" cy="365.32" r="11.61" xlink:href="#Dégradé_sans_nom_33"/>
    <radialGradient id="Dégradé_sans_nom_30-6" data-name="Dégradé sans nom 30" cx="1549.94" cy="503.18" r="11.61" xlink:href="#Dégradé_sans_nom_33"/>
    <radialGradient id="Dégradé_sans_nom_30-7" data-name="Dégradé sans nom 30" cx="1818.1" cy="465.15" r="11.61" xlink:href="#Dégradé_sans_nom_33"/>
    <radialGradient id="Dégradé_sans_nom_30-8" data-name="Dégradé sans nom 30" cx="1818.33" cy="406.37" r="6.3" xlink:href="#Dégradé_sans_nom_33"/>
    <radialGradient id="Dégradé_sans_nom_30-9" data-name="Dégradé sans nom 30" cx="1867.18" cy="548.17" r="6.3" xlink:href="#Dégradé_sans_nom_33"/>
    <radialGradient id="Dégradé_sans_nom_30-10" data-name="Dégradé sans nom 30" cx="1727.71" cy="226.79" r="6.3" xlink:href="#Dégradé_sans_nom_33"/>
    <radialGradient id="Dégradé_sans_nom_30-11" data-name="Dégradé sans nom 30" cx="1748.69" cy="248.33" r="4.45" xlink:href="#Dégradé_sans_nom_33"/>
    <radialGradient id="Dégradé_sans_nom_30-12" data-name="Dégradé sans nom 30" cx="338.46" cy="1132.66" r="6.96" gradientTransform="translate(1188.04 -163.21) rotate(85.67)" xlink:href="#Dégradé_sans_nom_33"/>
    <radialGradient id="Dégradé_sans_nom_30-13" data-name="Dégradé sans nom 30" cx="112.8" cy="269.1" r="4.45" gradientTransform="translate(258.09 34.85) rotate(53.67)" xlink:href="#Dégradé_sans_nom_33"/>
    <radialGradient id="Dégradé_sans_nom_30-14" data-name="Dégradé sans nom 30" cx="1549.64" cy="252.79" r="19.07" xlink:href="#Dégradé_sans_nom_33"/>
    <radialGradient id="Dégradé_sans_nom_30-15" data-name="Dégradé sans nom 30" cx="1603.29" cy="465.49" r="19.07" gradientTransform="translate(1853.56 -1183.72) rotate(83.11)" xlink:href="#Dégradé_sans_nom_33"/>
    <radialGradient id="Dégradé_sans_nom_30-16" data-name="Dégradé sans nom 30" cx="1834.36" cy="413.58" r="16.31" gradientTransform="matrix(1.36, 0.57, -0.53, 1.25, -407.5, -1154.49)" xlink:href="#Dégradé_sans_nom_33"/>
    <radialGradient id="Dégradé_sans_nom_30-17" data-name="Dégradé sans nom 30" cx="870.33" cy="469.68" r="19.07" gradientTransform="translate(1831.26 132.81) rotate(132.6)" xlink:href="#Dégradé_sans_nom_33"/>
  </defs>
  <g id="Calque_2" data-name="Calque 2">
    <g id="Calque_1-2" data-name="Calque 1">
      <g>
        <path class="cls-1" d="M11.69,324.15l1-.6c10.35-6.23,99.43-59.26,215.23-110.72S486.25,111.48,603.33,111.5a355.08,355.08,0,0,1,45.23,2.75C768.15,129.66,1001,164,1253.19,164c256.21,0,532.41-35.42,730.24-162.32L1982.35,0c-197.24,126.55-473.13,162-729.16,162-252,0-484.76-34.32-604.37-49.73a355.72,355.72,0,0,0-45.49-2.77C481.91,109.51,333.81,162.76,216,216S10.67,322.43,10.65,322.44l1,1.71Z"/>
        <path class="cls-2" d="M8.93,348.52l1-.51c9.92-5.22,95.32-49.7,207.24-92.87s250.37-85,366.27-85a382.47,382.47,0,0,1,70.15,6c139.89,26.21,436.57,87.94,739.41,87.94,211.84,0,426.73-30.19,593.14-124l-1-1.74C1819.2,231.88,1604.62,262.09,1393,262.08c-302.58,0-599.13-61.69-739-87.9a384.16,384.16,0,0,0-70.52-6c-120.12,0-263.92,44.67-377.75,89.32S8,346.75,8,346.76l.94,1.76Z"/>
        <path class="cls-3" d="M6.16,372.89s1.23-.57,3.6-1.63c17.79-8,99.64-44,204.75-78.05s233.48-66,344.24-66c35.53,0,69.25,3.3,99.79,10.86,155.56,38.5,507.28,133.47,847.83,133.47,172.64,0,342.44-24.4,482.39-93l-.88-1.79c-139.54,68.42-309.05,92.81-481.51,92.81-340.2,0-691.78-94.9-847.35-133.41-30.74-7.61-64.61-10.92-100.27-10.92-118.54,0-256.86,36.49-365.58,73S5.34,371.07,5.32,371.08l.84,1.81Z"/>
        <path class="cls-4" d="M3.39,397.26,6.73,396c16.48-6.31,92.4-34.73,191.39-61.57s221.05-52.09,329.72-52.08c49.09,0,95.44,5.15,135.69,17.61C831.4,351.87,1230.47,485,1600.16,485c139.2,0,274.26-18.88,391.27-68.13l-.78-1.84c-116.66,49.11-251.47,68-390.49,68-369.24,0-768.15-133-936-185-40.51-12.53-87-17.69-136.28-17.69-116.24,0-247.5,28.78-349.74,57.54S2.68,395.39,2.66,395.4l.73,1.86Z"/>
        <path class="cls-5" d="M.62,421.62l3-1c29.72-9.5,274.41-85.53,484.93-85.52,65.91,0,128.45,7.45,180,26.68C846.17,428.1,1285.83,603.59,1679.18,603.6c111,0,218.22-14,314.91-48.31l-.67-1.88C1897,587.65,1790,601.6,1679.18,601.6c-392.79,0-832.31-175.35-1010-241.66-51.85-19.35-114.6-26.81-180.66-26.81C263.53,333.14.05,419.71,0,419.72l.62,1.9Z"/>
      </g>
      <polygon class="cls-6" points="1699.48 93.92 1702.43 111.52 1715.9 100.71 1704.32 114.41 1722.7 117.13 1703.43 115.96 1715.9 133.54 1702.76 118.85 1699.48 140.34 1697.54 121.41 1683.07 133.54 1694.76 118.85 1676.27 117.13 1696.43 113.96 1683.07 100.71 1698.09 111.29 1699.48 93.92"/>
      <polygon class="cls-7" points="789.48 174.06 792.43 191.66 805.9 180.86 794.32 194.55 812.7 197.27 793.43 196.11 805.9 213.69 792.76 199 789.48 220.49 787.54 201.55 773.07 213.69 784.76 199 766.27 197.27 786.43 194.11 773.07 180.86 788.09 191.44 789.48 174.06"/>
      <polygon class="cls-8" points="34.64 249.28 37.58 266.88 51.05 256.08 39.47 269.77 57.85 272.49 38.58 271.33 51.05 288.91 37.92 274.21 34.64 295.7 32.69 276.77 18.23 288.91 29.92 274.21 11.43 272.49 31.58 269.33 18.23 256.08 33.25 266.66 34.64 249.28"/>
      <polygon class="cls-9" points="1718.11 246.89 1716.06 251.83 1721.2 251.22 1716.08 252.87 1720.32 256.48 1715.61 253.12 1715.99 259.57 1714.98 253.75 1710.74 258.69 1713.25 253.57 1707.64 254.35 1712.95 252.48 1708.52 249.1 1714.15 251.5 1712.86 246.01 1714.99 251.09 1718.11 246.89"/>
      <polygon class="cls-10" points="1476.23 353.72 1477.7 362.52 1484.44 357.12 1478.65 363.96 1487.84 365.32 1478.2 364.74 1484.44 373.53 1477.87 366.18 1476.23 376.93 1475.26 367.46 1468.03 373.53 1473.87 366.18 1464.63 365.32 1474.7 363.74 1468.03 357.12 1475.54 362.4 1476.23 353.72"/>
      <polygon class="cls-11" points="1550.44 491.58 1551.91 500.38 1558.65 494.98 1552.86 501.82 1562.05 503.18 1552.41 502.6 1558.65 511.39 1552.08 504.05 1550.44 514.79 1549.47 505.32 1542.23 511.39 1548.08 504.05 1538.83 503.18 1548.91 501.6 1542.23 494.98 1549.74 500.27 1550.44 491.58"/>
      <polygon class="cls-12" points="1818.6 453.54 1820.08 462.34 1826.81 456.94 1821.02 463.79 1830.21 465.15 1820.58 464.57 1826.81 473.36 1820.24 466.01 1818.6 476.76 1817.63 467.29 1810.4 473.36 1816.24 466.01 1807 465.15 1817.08 463.57 1810.4 456.94 1817.91 462.23 1818.6 453.54"/>
      <polygon class="cls-13" points="1818.6 400.07 1819.4 404.84 1823.06 401.91 1819.91 405.63 1824.9 406.37 1819.67 406.05 1823.06 410.82 1819.49 406.83 1818.6 412.67 1818.08 407.53 1814.15 410.82 1817.32 406.83 1812.3 406.37 1817.77 405.51 1814.15 401.91 1818.23 404.78 1818.6 400.07"/>
      <polygon class="cls-14" points="1867.46 541.87 1868.26 546.65 1871.91 543.72 1868.77 547.43 1873.76 548.17 1868.53 547.86 1871.91 552.63 1868.35 548.64 1867.46 554.47 1866.93 549.33 1863 552.63 1866.17 548.64 1861.16 548.17 1866.63 547.31 1863 543.72 1867.08 546.59 1867.46 541.87"/>
      <polygon class="cls-15" points="1727.98 220.49 1728.78 225.26 1732.43 222.33 1729.29 226.05 1734.28 226.79 1729.05 226.47 1732.43 231.24 1728.87 227.25 1727.98 233.09 1727.45 227.95 1723.53 231.24 1726.7 227.25 1721.68 226.79 1727.15 225.93 1723.53 222.33 1727.6 225.2 1727.98 220.49"/>
      <polygon class="cls-16" points="1748.88 243.88 1749.45 247.26 1752.03 245.18 1749.81 247.81 1753.34 248.33 1749.64 248.11 1752.03 251.48 1749.51 248.66 1748.88 252.79 1748.51 249.16 1745.73 251.48 1747.98 248.66 1744.43 248.33 1748.3 247.73 1745.73 245.18 1748.62 247.22 1748.88 243.88"/>
      <polygon class="cls-17" points="91.17 259.65 85.97 260.93 89.5 264.71 85.15 261.56 84.75 267.12 84.67 261.33 79.69 265.46 83.79 261.2 77.29 260.7 82.91 259.69 78.95 255.65 83.61 258.81 83.7 253.24 85.1 259.19 88.76 254.9 85.94 259.63 91.17 259.65"/>
      <polygon class="cls-18" points="111.82 282.66 109.43 285.12 112.64 285.97 109.2 285.74 110.87 288.89 108.86 285.78 107.56 289.71 108.34 286 104.64 287.94 107.35 285.49 103.83 284.63 107.43 284.77 105.59 281.71 108.37 284.47 108.9 280.9 108.97 284.42 111.82 282.66"/>
      <polygon class="cls-19" points="1553.65 233.09 1555.09 253.66 1562.6 248.4 1557.13 255.7 1568.9 257.14 1557.13 258.59 1559.79 263.29 1555.09 260.63 1553.65 272.49 1552.21 260.63 1544.03 266.76 1550.17 258.59 1531.97 257.14 1550.17 255.7 1548.32 251.81 1552.21 253.66 1553.65 233.09"/>
      <polygon class="cls-20" points="1603.79 465.45 1583.54 469.35 1589.66 476.17 1581.76 471.62 1581.74 483.48 1578.89 471.97 1574.55 475.17 1576.62 470.19 1564.67 470.18 1576.28 467.32 1569.21 459.94 1578.06 465.05 1577.31 446.82 1580.92 464.71 1584.57 462.4 1583.2 466.49 1603.79 465.45"/>
      <polygon class="cls-21" points="1877.09 390.58 1870.87 411.99 1883.84 409.69 1872.57 415.71 1887.8 424.25 1871.05 419.33 1872.18 426.74 1867.2 420.72 1858.98 434.76 1863.27 419.07 1848.93 422.08 1861.58 415.35 1847.11 406.34 1863.1 411.73 1862.63 405.8 1866.95 410.34 1877.09 390.58"/>
      <polygon class="cls-22" points="908.22 471.88 892.1 459.01 890.89 468.1 889.22 459.13 880.19 466.82 887.09 457.18 881.83 455.96 886.97 454.3 879.22 445.2 888.93 452.17 889.94 442 891.81 452.05 905.18 439.63 893.93 454 898.05 455.28 894.06 456.89 908.22 471.88"/>
      <line class="cls-23" x1="1931.43" y1="572.33" x2="1931.43" y2="574.4"/>
      <line class="cls-23" x1="1931.43" y1="436.96" x2="1931.43" y2="439.06"/>
      <line class="cls-23" x1="1931.43" y1="301.42" x2="1931.43" y2="303.56"/>
      <line class="cls-23" x1="1931.43" y1="165.7" x2="1931.43" y2="167.9"/>
      <line class="cls-23" x1="11.43" y1="323.72" x2="11.43" y2="321.98"/>
      <line class="cls-23" x1="11.43" y1="347.21" x2="11.43" y2="344.95"/>
      <line class="cls-23" x1="11.43" y1="370.51" x2="11.43" y2="368.32"/>
      <line class="cls-23" x1="11.43" y1="394.18" x2="11.43" y2="392.05"/>
      <line class="cls-23" x1="11.43" y1="418.2" x2="11.43" y2="416.1"/>
    </g>
  </g>
</svg>
