<svg xmlns="http://www.w3.org/2000/svg" viewBox="0 0 146.44 146.44"><defs><style>.cls-1{fill:none;stroke:#1d1d1b;stroke-miterlimit:10;stroke-width:10px;}.cls-2{fill:#010101;}</style></defs><g id="Calque_2" data-name="Calque 2"><g id="Calque_1-2" data-name="Calque 1"><circle class="cls-1" cx="73.22" cy="73.22" r="68.22"/><circle class="cls-2" cx="73.18" cy="75.7" r="10.09"/><path class="cls-2" d="M77.46,86.48H68.9A12.92,12.92,0,0,0,56,99.39v10.47l0,.17.72.22a58.86,58.86,0,0,0,17.56,2.83c9.49,0,15-2.7,15.33-2.88l.67-.34h.07V99.39A12.92,12.92,0,0,0,77.46,86.48Z"/><circle class="cls-2" cx="52.59" cy="46.32" r="16.27"/><path class="cls-2" d="M93.77,62.59A16.27,16.27,0,1,0,77.5,46.32,16.26,16.26,0,0,0,93.77,62.59Z"/><path class="cls-2" d="M65.27,84.89a12.11,12.11,0,0,1,1.89-19.71A20.73,20.73,0,0,0,59.5,63.7H45.69A20.85,20.85,0,0,0,24.86,84.53v16.89l0,.27,1.16.36a95,95,0,0,0,27.88,4.56V99.39A15,15,0,0,1,65.27,84.89Z"/><path class="cls-2" d="M100.68,63.7H86.87a20.73,20.73,0,0,0-7.66,1.48A12.1,12.1,0,0,1,81.1,84.89a14.94,14.94,0,0,1,11.33,14.5v7.22a95,95,0,0,0,27.88-4.56l1.16-.36,0-.27V84.53A20.86,20.86,0,0,0,100.68,63.7Z"/></g></g></svg>