<svg xmlns="http://www.w3.org/2000/svg" viewBox="0 0 146.44 146.44"><defs><style>.cls-1{fill:none;stroke:#1d1d1b;stroke-miterlimit:10;stroke-width:10px;}.cls-2{fill:#010101;}</style></defs><g id="Calque_2" data-name="Calque 2"><g id="Calque_1-2" data-name="Calque 1"><circle class="cls-1" cx="73.22" cy="73.22" r="68.22"/><path class="cls-2" d="M100.4,84.25a38.84,38.84,0,0,0,5.21-17.12,23.86,23.86,0,0,0-2.52-11.88c-3-6.06-8-9.47-13-12.76C86.47,40,83,37.71,80.55,34.4l-.44-.59c-1.44-2-3.08-4.15-3.34-6A3.64,3.64,0,0,0,73,24.71a3.59,3.59,0,0,0-3.34,3.59V92.47a21,21,0,0,0-10.81-3c-9.92,0-18,6.46-18,14.41s8.09,14.4,18,14.4,18-6.46,18-14.4V62A25.91,25.91,0,0,1,93.5,81.58a18,18,0,0,1-1.39,2,3.6,3.6,0,0,0,5.41,4.76,27.45,27.45,0,0,0,2.64-3.72A2,2,0,0,0,100.4,84.25Z"/></g></g></svg>