<svg xmlns="http://www.w3.org/2000/svg" viewBox="0 0 146.44 146.44"><defs><style>.cls-1{fill:none;stroke:#1d1d1b;stroke-miterlimit:10;stroke-width:10px;}.cls-2{fill:#010101;}</style></defs><g id="Calque_2" data-name="Calque 2"><g id="Calque_1-2" data-name="Calque 1"><circle class="cls-1" cx="73.22" cy="73.22" r="68.22"/><path class="cls-2" d="M101.17,102.82c-.84-2.07-1.71-4.15-2.65-6.19-.83-1.82-1.9-2.35-3.89-1.9-2.53.58-5,1.35-7.54,1.87a28.36,28.36,0,0,1-14.6-.41c-6-1.9-9.27-6.28-11.24-11.93H77.64A2.32,2.32,0,0,0,80,81.94V76.77a2.31,2.31,0,0,0-2.32-2.32h-18c0-1.45,0-2.83,0-4.21h18A2.32,2.32,0,0,0,80,67.92V62.75a2.31,2.31,0,0,0-2.32-2.32H61.94c0-.07,0-.13,0-.16,1.88-4.29,4.63-7.73,9.14-9.52,5.24-2.07,10.59-2,16-.91,2.56.52,5.07,1.31,7.63,1.89a2.88,2.88,0,0,0,3.75-1.87c.93-2,1.77-4,2.62-6.11a3.08,3.08,0,0,0-1.49-4.36,10.13,10.13,0,0,0-1.41-.68A44.27,44.27,0,0,0,74.78,36a33.52,33.52,0,0,0-15.53,6.4A34,34,0,0,0,47.59,59.63l-.27.8H39.25a2.31,2.31,0,0,0-2.32,2.32v5.17a2.32,2.32,0,0,0,2.32,2.32h6.36v4.21H39.25a2.31,2.31,0,0,0-2.32,2.32v5.17a2.32,2.32,0,0,0,2.32,2.32h7.66c.58,1.88,1.07,3.8,1.81,5.61,3.88,9.35,10.38,16,20.16,19.18a41.6,41.6,0,0,0,24.38.3,40,40,0,0,0,6.23-2.26A3,3,0,0,0,101.17,102.82Z"/></g></g></svg>