<svg id="Notes" xmlns="http://www.w3.org/2000/svg" viewBox="0 0 1920 1642.33"><defs><style>.cls-1{fill:#cbb260;}</style></defs><path class="cls-1" d="M515,1198q3.32-12.64,5.43-25.46a248.4,248.4,0,0,0,2.79-25.74,236,236,0,0,0,0-25.79c-.25-4.28-.53-8.57-1-12.83s-1.15-8.51-1.71-12.75l-.7-5.36,5.09,1.81a109.88,109.88,0,0,0,17.7,4.76,101.21,101.21,0,0,0,18.22,1.57,103.11,103.11,0,0,0,18.23-1.58,109.6,109.6,0,0,0,17.7-4.76l4.29-1.51.14,4.37.41,13.18c.05,4.39,0,8.78-.13,13.17-.36,8.77-1,17.54-2.11,26.23s-2.59,17.34-4.52,25.87a251.24,251.24,0,0,1-7,25.24q2.55-12.83,4.36-25.71c1.15-8.6,2.08-17.21,2.64-25.84s.9-17.25.82-25.88c0-4.31-.09-8.62-.28-12.93l-.76-12.9,4.42,2.86a104.16,104.16,0,0,1-18.77,5.33,103.22,103.22,0,0,1-38.91,0,102.58,102.58,0,0,1-18.77-5.34l4.39-3.55c.46,4.39,1,8.77,1.38,13.16s.58,8.8.61,13.21a214.52,214.52,0,0,1-1.33,26.35A202.07,202.07,0,0,1,523,1173,186.12,186.12,0,0,1,515,1198Z"/><ellipse class="cls-1" cx="502.77" cy="1198.38" rx="14.8" ry="9.18" transform="translate(-282.28 162.72) rotate(-14.4)"/><ellipse class="cls-1" cx="576.47" cy="1198.38" rx="14.8" ry="9.18" transform="translate(-279.97 181.05) rotate(-14.4)"/><path class="cls-1" d="M517.7,1108.68c7,1,13.72,1.82,20.47,2.46s13.45,1,20.15,1.08a177.19,177.19,0,0,0,20.06-.92c6.71-.64,13.36-1.85,20.29-3.14a60.79,60.79,0,0,1-19.3,8.56,81.25,81.25,0,0,1-21.11,2.5,91.64,91.64,0,0,1-21-2.67A69.84,69.84,0,0,1,517.7,1108.68Z"/><path class="cls-1" d="M1048.43,1076.08c.91-10.8,1.53-21.47,1.66-32.17s-.12-21.37-.63-32-1.29-21.3-2.27-31.92-2.18-21.28-3.67-31.68l-3.9-27.21,13.16,24a108.8,108.8,0,0,0,7.3,11.49,98.47,98.47,0,0,0,8.8,10.34,90.9,90.9,0,0,0,10.24,9c3.64,2.74,7.49,5.19,11.6,7.7,2,1.29,4.15,2.61,6.24,4.22a22.92,22.92,0,0,1,5.64,6.09,19.33,19.33,0,0,1,2.71,7.91,23.38,23.38,0,0,1-.47,8,43.07,43.07,0,0,1-6,13.64,83.35,83.35,0,0,1-8.85,11.45,124.5,124.5,0,0,0,6.53-12.67,65.32,65.32,0,0,0,2.4-6.55,38.92,38.92,0,0,0,1.31-6.6,19.67,19.67,0,0,0-.37-6.31,14.43,14.43,0,0,0-2.48-5.31c-2.28-3-6.21-5-10.41-7.22a129.15,129.15,0,0,1-12.78-7.3,86.36,86.36,0,0,1-11.76-9.31c-1.85-1.71-3.59-3.52-5.29-5.36s-3.28-3.79-4.82-5.77a98.45,98.45,0,0,1-8.23-12.54l9.26-3.18c.86,5.49,1.52,10.83,2.07,16.25s1,10.82,1.38,16.24c.69,10.83,1,21.7.75,32.56a309.72,309.72,0,0,1-2.35,32.5l-1.22,8.06c-.2,1.34-.43,2.68-.71,4l-.82,4C1051.44,1065.66,1049.91,1070.89,1048.43,1076.08Z"/><ellipse class="cls-1" cx="1029.97" cy="1073.35" rx="21.43" ry="13.29" transform="translate(-234.61 289.93) rotate(-14.4)"/><path class="cls-1" d="M118.53,1466.83A18.76,18.76,0,0,1,115,1456a14.07,14.07,0,0,1,1.29-5.78,11.86,11.86,0,0,1,3.9-4.63,14.93,14.93,0,0,1,5.62-2.3,24.5,24.5,0,0,1,6-.4,22.26,22.26,0,0,1,11.44,3.85,23.28,23.28,0,0,1,8,9.28,24.31,24.31,0,0,1,2.24,12.17,22.28,22.28,0,0,1-1.44,6.2,22,22,0,0,1-3.18,5.55,28.68,28.68,0,0,1-9.82,7.74,37.2,37.2,0,0,1-5.72,2.27,31.49,31.49,0,0,1-6.14,1.29,35.47,35.47,0,0,1-12.45-.85,37.38,37.38,0,0,1-5.94-2,27,27,0,0,1-5.55-3.15,34,34,0,0,1-8.76-9.21,43.17,43.17,0,0,1-5.09-11.39,57.72,57.72,0,0,1-1.38-6,60.38,60.38,0,0,1-.61-6.12c-.16-2-.06-4.08,0-6.12.06-1,.17-2,.25-3l.14-1.52.23-1.51a68.58,68.58,0,0,1,2.82-11.83l.07-.22.17-.33a67.91,67.91,0,0,1,15.83-20.67,63.51,63.51,0,0,1,10.86-7.39,100,100,0,0,0,10.11-5.87l1.07-.79,1-.84c.7-.54,1.28-1.19,1.92-1.79a34.12,34.12,0,0,0,3.34-4.1,37.69,37.69,0,0,0,4.86-9.7,47.93,47.93,0,0,0,2.32-10.8,48.6,48.6,0,0,0-.29-11,35.48,35.48,0,0,0-3.22-10.11l-.61-1.14a6.05,6.05,0,0,0-.66-1.1l-1.45-2.08a28.41,28.41,0,0,0-3.63-3.74,30.8,30.8,0,0,0-4.19-3,15.46,15.46,0,0,0-4.2-1.83,3.87,3.87,0,0,0-2.48,0,1.74,1.74,0,0,0-.57.53,5.43,5.43,0,0,0-.71,1.47,20.4,20.4,0,0,0-.88,4.78c-.15,1.79-.18,3.69-.15,5.62.07,3.86.38,7.84.74,11.84.75,8,1.75,16.11,2.59,24.26,1.61,16.3,2.87,32.58,4.19,48.83l2,24.35,2.15,24.36c.67,8.15,1.33,16.31,1.7,24.51s.63,16.43.27,24.74a85.73,85.73,0,0,1-1.38,12.54,36.34,36.34,0,0,1-1.85,6.29,19.28,19.28,0,0,1-3.62,5.87,17.68,17.68,0,0,1-12.37,5.3,34.21,34.21,0,0,1-12.61-2.23l-.15-.06-.06,0a16.43,16.43,0,0,1-7.59-8.35,13.45,13.45,0,0,1-1-5.61,10.84,10.84,0,0,1,1.71-5.43,13.73,13.73,0,0,1,9.12-5.79,14.74,14.74,0,0,1,5.38,0,16.57,16.57,0,0,1,5,1.83,15.16,15.16,0,0,0-10.18-1,12.64,12.64,0,0,0-7.89,5.8,10,10,0,0,0,0,9.27,13.79,13.79,0,0,0,6.79,6.58l-.2-.09a31.8,31.8,0,0,0,11.43,1.42,16.1,16.1,0,0,0,5.25-1.39,13.46,13.46,0,0,0,2.26-1.34,12.47,12.47,0,0,0,1.85-1.78c2.19-2.63,3.21-6.36,3.8-10.15a79,79,0,0,0,.78-11.79c0-8-.57-16.08-1.28-24.15s-1.57-16.15-2.5-24.23l-2.89-24.29c-.94-8.12-1.76-16.25-2.56-24.37-1.61-16.24-3.19-32.45-5.06-48.58-.87-8.06-1.92-16.14-2.74-24.37-.39-4.12-.75-8.27-.86-12.56,0-2.15,0-4.33.14-6.6a29.86,29.86,0,0,1,1.35-7.22,15.31,15.31,0,0,1,2-4,11.63,11.63,0,0,1,3.94-3.52,14.77,14.77,0,0,1,2.5-1l1.26-.25.63-.1.6,0,1.2,0a10,10,0,0,1,1.12.09c.37,0,.75.07,1.1.13l1,.22a25.5,25.5,0,0,1,7,2.92,39.32,39.32,0,0,1,10.52,9.21c.7,1,1.37,2,2,2.93a10.75,10.75,0,0,1,.9,1.53l.83,1.55a45.32,45.32,0,0,1,4.1,13.12,58.47,58.47,0,0,1,.29,13.41,57.22,57.22,0,0,1-2.89,13,47,47,0,0,1-6.14,12,42.06,42.06,0,0,1-4.41,5.32c-.86.79-1.68,1.63-2.6,2.34l-1.36,1.09-1.41,1a107.4,107.4,0,0,1-11.12,6.25,54,54,0,0,0-9.46,6.15,59.35,59.35,0,0,0-14,17.7l.24-.55-.82,2.55-.41,1.27-.33,1.3-.66,2.59-.49,2.62-.25,1.32-.16,1.32c-.09.88-.22,1.76-.3,2.65-.07,1.77-.23,3.54-.14,5.3s.22,3.52.37,5.28a46.89,46.89,0,0,0,1,5.15,35.81,35.81,0,0,0,3.9,9.55c6.71,11.78,23.33,16.62,36.05,10.52a23.31,23.31,0,0,0,8.28-5.93,18.28,18.28,0,0,0,2.71-4.2,17.59,17.59,0,0,0,1.4-4.84,20.24,20.24,0,0,0-1.33-10.17,19.81,19.81,0,0,0-6.36-8.2,19.56,19.56,0,0,0-9.74-4c-3.62-.4-7.4-.15-10.46,1.68a10.73,10.73,0,0,0-3.66,3.79,13,13,0,0,0-1.57,5.2A18.83,18.83,0,0,0,118.53,1466.83Z"/><path class="cls-1" d="M1370.77,703.1a126.26,126.26,0,0,1,4.28,14.38c.62,2.43,1.1,4.88,1.62,7.33s.89,4.92,1.32,7.39a212.58,212.58,0,0,1,2.56,29.94,179.73,179.73,0,0,1-2,30c-.41,2.48-.85,5-1.3,7.42s-1.17,4.89-1.77,7.32l-1,3.63c-.36,1.2-.77,2.39-1.18,3.57-.82,2.37-1.65,4.73-2.56,7.06.26-2.5.6-5,.94-7.43.15-1.23.38-2.44.52-3.67l.35-3.7c.23-2.46.55-4.9.76-7.35s.32-4.92.51-7.37c.56-9.81.91-19.61.7-29.43s-.56-19.65-1.23-29.49S1371.76,713.05,1370.77,703.1Z"/><path class="cls-1" d="M1407.86,703.89a10.56,10.56,0,0,1-.5,6,17.63,17.63,0,0,1-3.15,5.29,26.56,26.56,0,0,1-4.61,4.3,28,28,0,0,1-5.58,3.24,23.87,23.87,0,0,1-13.34,2,15.82,15.82,0,0,1-7-2.87,12.71,12.71,0,0,1-1.58-1.37l-.73-.79c-.23-.28-.44-.58-.64-.88a12.81,12.81,0,0,1-1.81-4,13.22,13.22,0,0,1,.95-8.31,17.34,17.34,0,0,1,4.52-5.92,25,25,0,0,1,12.26-5.51,27,27,0,0,1,12.67.82,15.68,15.68,0,0,1,5.41,3A9.76,9.76,0,0,1,1407.86,703.89Zm0,0a8.62,8.62,0,0,0-3.35-4.86,12.1,12.1,0,0,0-5.49-2.11,20.25,20.25,0,0,0-11.26,2,24.35,24.35,0,0,0-8.5,6.53,13.67,13.67,0,0,0-2.29,4,6.66,6.66,0,0,0-.3,3.55,5.77,5.77,0,0,0,1.76,2.86,11.15,11.15,0,0,0,3.85,2.2,22.52,22.52,0,0,0,10.6.88,21.26,21.26,0,0,0,10.56-4.5,13.56,13.56,0,0,0,3.66-4.63A9.28,9.28,0,0,0,1407.86,703.89Z"/><path class="cls-1" d="M807.05,1013.6a24.13,24.13,0,0,1-5.1,5.74,22.23,22.23,0,0,1-7,3.75,18.72,18.72,0,0,1-8.19.8,13.89,13.89,0,0,1-8-3.8,15.51,15.51,0,0,1-4-8.05,24.34,24.34,0,0,1,3.25-16.84,21.06,21.06,0,0,1,6.41-6.44c5.1-3.31,11-4.38,16.28-4.75a34.45,34.45,0,0,1,8.66.46,38.85,38.85,0,0,1,8.24,2.57,43.27,43.27,0,0,1,13.75,10,38.5,38.5,0,0,1,5,7,41.76,41.76,0,0,1,1.89,3.86l.41,1a12.12,12.12,0,0,1,.42,1.19c.24.78.41,1.41.59,2.08a56.46,56.46,0,0,1,1.78,16.39c-.07,1.38-.17,2.77-.35,4.14s-.46,2.74-.69,4.1-.65,2.7-1,4a37.54,37.54,0,0,1-1.31,3.92,58.83,58.83,0,0,1-7.86,14.28,66.18,66.18,0,0,1-11.11,11.64c-.53.43-1.08.86-1.66,1.28l-1.67,1.15c-1.11.76-2.29,1.43-3.45,2.11a56.22,56.22,0,0,1-7.3,3.41,60,60,0,0,1-7.67,2.26,61.41,61.41,0,0,1-7.82,1.14,63.85,63.85,0,0,1-15.53-.72A60.88,60.88,0,0,1,759.4,1077a76.05,76.05,0,0,0,29.53.12,56.05,56.05,0,0,0,13.57-4.57,57.58,57.58,0,0,0,6.09-3.55c1-.68,1.93-1.34,2.83-2.09l1.36-1.1c.42-.34.84-.72,1.26-1.12a58.75,58.75,0,0,0,15.18-23.18,46.28,46.28,0,0,0,.82-26.86l-.43-1.56a4.07,4.07,0,0,0-.2-.59l-.31-.76a29.12,29.12,0,0,0-1.4-2.93,29.91,29.91,0,0,0-3.69-5.3,31.74,31.74,0,0,0-4.78-4.44,36,36,0,0,0-5.58-3.48,29.72,29.72,0,0,0-6.07-2.17,28.27,28.27,0,0,0-6.36-.66,38.16,38.16,0,0,0-6.77.63,19.93,19.93,0,0,0-5.92,2,14.3,14.3,0,0,0-4.5,3.82,17.32,17.32,0,0,0-2.77,5.61c-1.23,4.11-1.15,8.83,1.19,11.93a9.76,9.76,0,0,0,5.1,3.26,16.76,16.76,0,0,0,6.79.33A23.13,23.13,0,0,0,807.05,1013.6Z"/><circle class="cls-1" cx="850.45" cy="1013.52" r="3.87"/><circle class="cls-1" cx="850.45" cy="1028.24" r="3.87"/><path class="cls-1" d="M258.74,1079.4c.76,8.42,1.22,16.84,1.69,25.26s.77,16.84,1,25.26.47,16.84.59,25.26.19,16.84.2,25.26l-4.53-3.34c4.05-1.27,8.06-2.65,12-4.22s7.87-3.23,11.59-5.08a46.71,46.71,0,0,0,5.26-3,32.43,32.43,0,0,0,4.55-3.79c3.06-2.87,4.87-5.53,5-9.15a11.94,11.94,0,0,0-.94-5.18,10.86,10.86,0,0,0-1.34-2.21,11.64,11.64,0,0,0-1.88-1.83,13.77,13.77,0,0,0-10.73-2.18,20,20,0,0,0-10.23,6.19,37.61,37.61,0,0,0-7,10.7,40.22,40.22,0,0,1,2.11-6.21,34.55,34.55,0,0,1,3.34-5.75,24.25,24.25,0,0,1,4.68-4.93,19.62,19.62,0,0,1,6.17-3.36,16.45,16.45,0,0,1,3.58-.7,19,19,0,0,1,3.61,0,16.78,16.78,0,0,1,7,2.36,14.54,14.54,0,0,1,5.21,5.65,17.39,17.39,0,0,1,1.87,7.39,15.83,15.83,0,0,1-1.64,7.65,25,25,0,0,1-4.41,5.88c-.74.79-1.58,1.66-2.47,2.46a35,35,0,0,1-2.78,2.25,51.45,51.45,0,0,1-5.91,3.64,147.43,147.43,0,0,1-24.59,10l-4.54,1.42v-4.75c0-8.42.07-16.84.2-25.26s.31-16.84.6-25.26.61-16.84,1-25.26S258,1087.82,258.74,1079.4Z"/><path class="cls-1" d="M1451.68,295.93a67.92,67.92,0,0,1-.12,15.09,102.6,102.6,0,0,1-2.74,14.68,101.11,101.11,0,0,1-4.82,14.14,67.6,67.6,0,0,1-7.32,13.2,110.79,110.79,0,0,1,2.06-14.83c1-4.82,2.07-9.57,3.31-14.28s2.61-9.4,4.14-14.07A113.29,113.29,0,0,1,1451.68,295.93Z"/><path class="cls-1" d="M1478.67,295.93a53,53,0,0,1,.58,13.21,79.88,79.88,0,0,1-2,12.88,78.72,78.72,0,0,1-4.06,12.39,52.26,52.26,0,0,1-6.52,11.51,83.44,83.44,0,0,1,1.24-13c.69-4.23,1.54-8.38,2.53-12.49s2.12-8.21,3.42-12.28A85.25,85.25,0,0,1,1478.67,295.93Z"/><path class="cls-1" d="M1424,313.92a158,158,0,0,1,18-3.06c6-.72,12-1.25,17.93-1.64s12-.63,18-.7a155.76,155.76,0,0,1,18.24.74,101.45,101.45,0,0,1-17.71,4.74,155,155,0,0,1-18.07,2.2,157.84,157.84,0,0,1-18.2.14A102.43,102.43,0,0,1,1424,313.92Z"/><path class="cls-1" d="M1422.68,337.58a162.27,162.27,0,0,1,18.3-3.32c6.09-.81,12.17-1.42,18.26-1.9s12.2-.79,18.34-.94a161.2,161.2,0,0,1,18.59.5,106.83,106.83,0,0,1-18,5,167.21,167.21,0,0,1-36.92,2.83A105.52,105.52,0,0,1,1422.68,337.58Z"/><path class="cls-1" d="M653,947.5a15.62,15.62,0,0,1-1.16,5.36,16.6,16.6,0,0,1-3.26,5.18,12.17,12.17,0,0,1-5.17,3.26,12.89,12.89,0,0,1-5.94.41,17.81,17.81,0,0,1-5.55-2c-1.71-.95-3.27-2-4.79-3a25.18,25.18,0,0,1-4.35-3.54,11.59,11.59,0,0,1-3.07-5.61,10.44,10.44,0,0,1,1.22-7,14.41,14.41,0,0,1,4.69-4.84,20.4,20.4,0,0,1,11.85-3.51,20.12,20.12,0,0,1,6,1.19,13.74,13.74,0,0,1,5.15,3.55,17.06,17.06,0,0,1,3.25,5.24A14.56,14.56,0,0,1,653,947.5Zm-1,0a4.59,4.59,0,0,0-2.24-3.76,8.36,8.36,0,0,0-4.33-1.07c-1.47,0-2.83.08-4.13.07s-2.55,0-3.83.06a29.08,29.08,0,0,0-7.28,1.09,13.88,13.88,0,0,0-2.88,1.48,5.58,5.58,0,0,0-2.13,2.13,4,4,0,0,0,.27,3.56,6.54,6.54,0,0,0,3.24,2.78,8.71,8.71,0,0,0,4.48.45,41.58,41.58,0,0,0,4.3-.92,27.15,27.15,0,0,1,3.93-.71c1.29-.15,2.64-.13,4.1-.21a8.86,8.86,0,0,0,4.33-1.13A4.52,4.52,0,0,0,652,947.5Z"/><ellipse class="cls-1" cx="1823.1" cy="52.02" rx="13.73" ry="16.05" transform="translate(773.69 1543.71) rotate(-56.51)"/><path class="cls-1" d="M1809.44,56.59a51.69,51.69,0,0,0,14.69,11.33,30.63,30.63,0,0,0,4.21,1.8l2.14.75,1.07.39,1.1.27a42,42,0,0,0,8.89,1.45,54.26,54.26,0,0,0,17.82-1.91,68.49,68.49,0,0,0,16.54-6.89l5.17-3.06-.15,6.07A152.06,152.06,0,0,1,1877,97.64,150.5,150.5,0,0,1,1866.83,127a150.83,150.83,0,0,1-7.34,13.68,132.79,132.79,0,0,1-8.69,12.81,132.07,132.07,0,0,1-21.22,22.2,210.21,210.21,0,0,0,17.94-24.47q4-6.4,7.42-13.08c2.29-4.45,4.33-9,6.27-13.61a178.09,178.09,0,0,0,9-28.46,174.94,174.94,0,0,0,4-29.54l5,3a67.33,67.33,0,0,1-9.06,4.13,77.74,77.74,0,0,1-9.47,2.76,58,58,0,0,1-19.7.76,46.19,46.19,0,0,1-9.56-2.48l-1.16-.4-1.12-.52L1827,72.72a34.18,34.18,0,0,1-4.24-2.43c-1.35-.9-2.66-1.87-3.91-2.89s-2.41-2.15-3.52-3.3A44.13,44.13,0,0,1,1809.44,56.59Z"/><path class="cls-1" d="M279.66,1259.65c-5.33,8.51-10.65,17.84-15.74,28a341.28,341.28,0,0,0-26.1,70.86"/><path class="cls-1" d="M248.62,1265.44s8.93,15,22.75,11.22"/><path class="cls-1" d="M239.38,1282.81s8.93,15,22.75,11.22"/><ellipse class="cls-1" cx="256.47" cy="1263.81" rx="7.91" ry="6.83" transform="translate(-306.3 103.51) rotate(-14.4)"/><ellipse class="cls-1" cx="246.7" cy="1280.66" rx="7.91" ry="6.83" transform="translate(-310.8 101.61) rotate(-14.4)"/><path class="cls-1" d="M1151.31,740.66a21.44,21.44,0,0,0-.43-5.8,9.75,9.75,0,0,0-2.29-4.76,6.14,6.14,0,0,0-4.18-1.93,10.88,10.88,0,0,0-4.82.77,16.08,16.08,0,0,0-4.36,2.49,11.81,11.81,0,0,0-3.07,3.55c-1.5,2.69-2,6.09-2.1,9.7,0,1.8,0,3.67.1,5.57l.15,2.9.08,1.48.09,1.39a66.16,66.16,0,0,0,1.7,10.86,67.42,67.42,0,0,0,3.42,10.44l4.7,10.65,4.69,10.91c1.48,3.67,3,7.33,4.36,11.29a58.15,58.15,0,0,1,1.7,6.21,44.2,44.2,0,0,1,.83,6.44,49.72,49.72,0,0,1,0,6.47,25.82,25.82,0,0,1-.48,3.51,14,14,0,0,1-.54,1.89c-.21.56-.4,1.12-.65,1.66a22.27,22.27,0,0,1-3.85,5.92,21.85,21.85,0,0,1-5.38,4.38,14.35,14.35,0,0,1-1.67.86c-.56.21-1.1.45-1.67.61a16.71,16.71,0,0,1-3.47.71,18.16,18.16,0,0,1-6.87-.65c-.54-.17-1.08-.35-1.6-.57s-1-.42-1.49-.66a19.5,19.5,0,0,1-2.84-1.69,11.55,11.55,0,0,1-4.28-5.27,9.17,9.17,0,0,1,.2-6.56,12.29,12.29,0,0,1,3.64-4.87,12.66,12.66,0,0,0-2.19,5.28,7.13,7.13,0,0,0,.86,5,8.91,8.91,0,0,0,3.8,3.09,18.33,18.33,0,0,0,2.44.93c.42.12.87.24,1.29.33s.83.16,1.25.21a13,13,0,0,0,4.87-.27,12.24,12.24,0,0,0,2.22-.8,10.24,10.24,0,0,0,1-.54c.24-.15.58-.38.89-.62a17.1,17.1,0,0,0,3.36-3.49,16.24,16.24,0,0,0,2.14-4.21c.13-.36.21-.75.32-1.12a5.35,5.35,0,0,0,.18-1,17.8,17.8,0,0,0,.09-2.37,43.43,43.43,0,0,0-.43-5.32,46,46,0,0,0-1-5.22,46.64,46.64,0,0,0-1.69-5.09c-1.34-3.45-2.91-7-4.51-10.6L1131.16,792l-2.32-5.39c-.74-1.77-1.63-3.64-2.39-5.62a70.93,70.93,0,0,1-3.52-12.12,66.05,66.05,0,0,1-1.23-12.54v-1.57l0-1.47c0-1,0-2,.07-3,.08-2,.2-4.11.45-6.23a34.46,34.46,0,0,1,1.34-6.45,21.06,21.06,0,0,1,3.13-6.27,17.45,17.45,0,0,1,5.28-4.7,21,21,0,0,1,6.31-2.43,14.8,14.8,0,0,1,6.87.13,10.7,10.7,0,0,1,3.23,1.51,9.07,9.07,0,0,1,2.39,2.6,11.77,11.77,0,0,1,1.57,6.25A19.33,19.33,0,0,1,1151.31,740.66Z"/><path class="cls-1" d="M1116.53,795a13.62,13.62,0,0,1,2.72-5.29,17.67,17.67,0,0,1,2.08-2.16c.39-.34.78-.64,1.13-.92s.76-.6,1.18-.87a16.46,16.46,0,0,1,6-2.47,16,16,0,0,1,1.69-.24,14.17,14.17,0,0,1,1.85,0c1.14.06,2,.18,2.93.31a40.33,40.33,0,0,1,5.16,1.14c.86.23,1.7.5,2.55.79a2.33,2.33,0,0,1,.49.19l.39.16a5.6,5.6,0,0,0,.81.3,10.13,10.13,0,0,0,3.86.43,18.93,18.93,0,0,0,5.08-1.22,9.37,9.37,0,0,1-2.71,5.53,11.37,11.37,0,0,1-6.06,3.12,14.91,14.91,0,0,1-1.78.2h-.9c-.42,0-.55,0-.78,0-.86,0-1.72-.06-2.56-.13-1.69-.12-3.39-.36-5.07-.61l-2.22-.35a5.15,5.15,0,0,0-.73-.1c-.3,0-.6,0-.91,0a22.32,22.32,0,0,0-4,.28l-1.18.19c-.43.09-.82.16-1.21.21-.78.13-1.58.26-2.4.43C1120.24,794.12,1118.53,794.56,1116.53,795Z"/><path class="cls-1" d="M1133.31,838.29c0,.65-.07,5.27-3.29,6.92-2.19,1.13-4.56.25-5.81-.21-3.25-1.2-6.83-4.28-7.08-8.18a11.36,11.36,0,0,1,1-4.87,7.12,7.12,0,0,1,1.48-2.55,5.23,5.23,0,0,1,2.69-1.21,7.88,7.88,0,0,1,4,.34A10.79,10.79,0,0,1,1133.31,838.29Z"/><path class="cls-1" d="M1258.23,506.6c-.68,9.61-1.3,19.12-1.46,28.62s0,18.95.5,28.36,1.43,18.81,2.64,28.19c.57,4.68,1.22,9.41,1.91,14.11s1.42,9.35,2.07,14l-7.4-2.33a48.78,48.78,0,0,1,8.52-6.72,42.21,42.21,0,0,1,9.94-4.56,38,38,0,0,1,10.8-1.78c3.61-.12,7,.33,9.86.16a28.94,28.94,0,0,0,8.82-1.87c.72-.28,1.44-.58,2.16-.89s1.42-.66,2.11-1,1.4-.74,2.09-1.15,1.37-.82,2-1.25a77.38,77.38,0,0,0,7.74-6c2.5-2.14,4.84-4.5,7.22-6.85a73.53,73.53,0,0,1-5.71,8.29,57.17,57.17,0,0,1-7,7.48,41.88,41.88,0,0,1-8.56,6,32.7,32.7,0,0,1-10.31,3.42c-3.72.53-7,.42-10.06.75a34.24,34.24,0,0,0-8.69,2.08,38.14,38.14,0,0,0-7.92,4.16,46.66,46.66,0,0,0-6.9,5.85l-6,6.07-1.45-8.4c-.83-4.76-1.59-9.54-2.35-14.31s-1.29-9.52-1.86-14.33a251.11,251.11,0,0,1-1.5-29,209.21,209.21,0,0,1,2.24-29A181.67,181.67,0,0,1,1258.23,506.6Z"/><path class="cls-1" d="M1255.16,596.53a30.49,30.49,0,0,1,11.43-12.27,34.36,34.36,0,0,1,8-3.58,38,38,0,0,1,4.25-1c1.41-.24,2.78-.4,4.1-.57,2.62-.27,5-.5,7.29-.93a54.9,54.9,0,0,0,7-1.72,110.94,110.94,0,0,0,14.36-6,30.14,30.14,0,0,1-11.34,12.38,33.2,33.2,0,0,1-7.94,3.61,38,38,0,0,1-4.25,1c-1.42.23-2.79.4-4.11.56-2.63.27-5,.5-7.31.92a56.33,56.33,0,0,0-7,1.69A113.72,113.72,0,0,0,1255.16,596.53Z"/><ellipse class="cls-1" cx="1272.93" cy="507.73" rx="16.61" ry="11.84" transform="translate(-85.3 325.14) rotate(-14.09)"/><path class="cls-1" d="M1641.5,376.29a15.41,15.41,0,0,1-1.17,5.36,16.39,16.39,0,0,1-3.25,5.18,12.14,12.14,0,0,1-5.18,3.26,12.84,12.84,0,0,1-5.93.41,17.81,17.81,0,0,1-5.55-2c-1.71-.95-3.28-2-4.79-3a25.18,25.18,0,0,1-4.35-3.54,11.59,11.59,0,0,1-3.07-5.61,10.5,10.5,0,0,1,1.21-7,14.54,14.54,0,0,1,4.7-4.84A20.4,20.4,0,0,1,1626,360.9a20.18,20.18,0,0,1,6,1.19,13.74,13.74,0,0,1,5.15,3.55,17.25,17.25,0,0,1,3.25,5.24A14.56,14.56,0,0,1,1641.5,376.29Zm-1,0a4.59,4.59,0,0,0-2.24-3.76,8.36,8.36,0,0,0-4.33-1.07c-1.47,0-2.84.08-4.13.07s-2.56,0-3.83.06a29,29,0,0,0-7.28,1.09,14,14,0,0,0-2.89,1.48,5.49,5.49,0,0,0-2.12,2.13,4,4,0,0,0,.27,3.56,6.56,6.56,0,0,0,3.23,2.78,8.76,8.76,0,0,0,4.49.45,42.16,42.16,0,0,0,4.3-.92,27.15,27.15,0,0,1,3.93-.71c1.29-.15,2.64-.13,4.1-.21a8.91,8.91,0,0,0,4.33-1.13A4.52,4.52,0,0,0,1640.5,376.29Z"/><path class="cls-1" d="M1503.58,620.2q1.25-4.62,2.3-9.22c.67-3.09,1.3-6.17,1.82-9.26s.93-6.19,1.28-9.28.58-6.21.68-9.31a149,149,0,0,0-.26-18.55,151.89,151.89,0,0,0-2.51-18.3l-1.2-6,6,1.59a62.18,62.18,0,0,0,12.7,2,59.69,59.69,0,0,0,12.8-.75c2.11-.34,4.2-.84,6.28-1.38s4.1-1.27,6.11-2.05a65.3,65.3,0,0,0,11.53-5.9l4.76-3,.68,5.39a141,141,0,0,1,1.07,14.79,137.38,137.38,0,0,1-.51,14.78,131.65,131.65,0,0,1-2.06,14.57,119.51,119.51,0,0,1-3.74,14.17c.5-4.85.9-9.67,1.1-14.49s.25-9.61.16-14.39-.46-9.54-.94-14.27-1.17-9.44-2-14.1l5.44,2.35a66.53,66.53,0,0,1-12.58,7.18,63.75,63.75,0,0,1-14,4.19,61.9,61.9,0,0,1-14.57.89,63.43,63.43,0,0,1-14.36-2.48l4.83-4.43a126.24,126.24,0,0,1,1.83,19.39,124.29,124.29,0,0,1-1.18,19.39,120,120,0,0,1-4.26,18.83q-1.41,4.6-3.26,9T1503.58,620.2Z"/><ellipse class="cls-1" cx="1496.17" cy="616.86" rx="10.67" ry="6.89" transform="translate(-105.28 383.62) rotate(-14.12)"/><ellipse class="cls-1" cx="1551.95" cy="594.64" rx="10.67" ry="6.89" transform="translate(-98.17 396.55) rotate(-14.12)"/><path class="cls-1" d="M1694.29,147.21c-3.54,8.38-7.31,16.5-11,24.66s-7.22,16.28-10.68,24.48-6.82,16.42-10.11,24.72-6.52,16.65-10.11,25a152.48,152.48,0,0,1,4.89-26.75,198.22,198.22,0,0,1,8.89-25.71,201.48,201.48,0,0,1,12.26-24.28A150.2,150.2,0,0,1,1694.29,147.21Z"/><path class="cls-1" d="M1663.25,153s8.93,15,22.74,11.22"/><path class="cls-1" d="M1654,170.37s8.92,15,22.74,11.22"/><ellipse class="cls-1" cx="1671.09" cy="151.38" rx="7.91" ry="6.83" transform="translate(14.87 420.42) rotate(-14.4)"/><ellipse class="cls-1" cx="1661.33" cy="168.22" rx="7.91" ry="6.83" transform="translate(10.37 418.52) rotate(-14.4)"/><path class="cls-1" d="M975.43,880.38a12.42,12.42,0,0,1-.6,3.37,10.75,10.75,0,0,1-1.85,3.52,7.17,7.17,0,0,1-3.23,2.27,7.29,7.29,0,0,1-3.76.21,10.58,10.58,0,0,1-3.47-1.52c-1-.69-2-1.4-2.91-2.07a21.05,21.05,0,0,1-2.73-2.2,7.86,7.86,0,0,1-2.13-3.58,7,7,0,0,1,.65-4.73,9.13,9.13,0,0,1,3-3.24,12.41,12.41,0,0,1,7.59-2.35,11.66,11.66,0,0,1,3.84.84,8,8,0,0,1,3.2,2.49,11.39,11.39,0,0,1,1.85,3.57A11.23,11.23,0,0,1,975.43,880.38Zm-.8,0a2.43,2.43,0,0,0-1.46-2.11,4.82,4.82,0,0,0-2.71-.22c-.89.13-1.67.33-2.39.4l-2.08.16a26.73,26.73,0,0,0-3.93.42,15.5,15.5,0,0,0-1.56.55,2.9,2.9,0,0,0-1.37.8,1.85,1.85,0,0,0-.12,1.93,3.29,3.29,0,0,0,1.84,1.6,4.5,4.5,0,0,0,2.67,0c.89-.21,1.71-.61,2.47-.85a7.82,7.82,0,0,1,2.16-.46,16,16,0,0,1,2.36.18,5,5,0,0,0,2.71-.28A2.37,2.37,0,0,0,974.63,880.38Z"/></svg>