<svg xmlns="http://www.w3.org/2000/svg" xmlns:xlink="http://www.w3.org/1999/xlink" viewBox="0 0 328.14 327.96">
  <defs>
    <style>
      .cls-1 {
        fill: url(#Dégradé_sans_nom_40);
      }

      .cls-2 {
        fill: #cbb260;
      }

      .cls-3 {
        fill: #fff;
      }

      .cls-4 {
        fill: #486475;
      }
    </style>
    <radialGradient id="Dégradé_sans_nom_40" data-name="Dégradé sans nom 40" cx="164.16" cy="163.98" r="163.98" gradientUnits="userSpaceOnUse">
      <stop offset="0" stop-color="#6b103c"/>
      <stop offset="1" stop-color="#061011"/>
    </radialGradient>
  </defs>
  <g id="Calque_2" data-name="Calque 2">
    <g id="Calque_3" data-name="Calque 3">
      <rect class="cls-1" x="0.18" width="327.96" height="327.96" rx="50.15"/>
      <g>
        <path class="cls-2" d="M293.39,2.41C285.67,7.87,278,13.54,270,19.47c-14.65,10.86-29.81,22.09-45.85,32.25-37.34,23.63-74.1,44.44-111.61,65.44-22,12.93-52.75,25.5-89,36.34-7.64,2.28-15.79,4.36-23.55,6.17v-1.46c7.73-1.8,15.51-3.87,23.12-6.15,36.14-10.8,66.81-23.32,88.69-36.21,37.51-21,74.25-41.79,111.55-65.4,16-10.13,31.14-21.34,45.77-32.19,7.67-5.69,15-11.14,22.43-16.4"/>
        <path class="cls-2" d="M322.76,27.54c-8.48,7-24.32,16.72-57.52,37.05-13.82,8.46-31,19-51.89,31.91-58.54,36.23-74.84,45.73-100.58,55.9-19.07,7.53-42.81,16.9-76,20.48A245.79,245.79,0,0,1,10.3,174.3c-3.39,0-6.74-.06-10.12-.2v-1.5a246.28,246.28,0,0,0,36.45-1.21c33-3.56,56.6-12.89,75.59-20.39,25.63-10.12,41.89-19.6,100.34-55.78,20.88-12.91,38.08-23.45,51.9-31.91C298,42.8,313.72,33.14,322.05,26.18"/>
        <path class="cls-2" d="M328.14,78c-4.73,2.33-9.46,4.75-14.09,7.22-10.08,5.38-15.4,8.67-24.21,14.11-10,6.21-25.21,15.6-57.85,34.38-58.28,33.53-77.64,42.65-99,50.42-29.72,10.82-51.47,18.73-79.54,18.73l-2.81,0A158.1,158.1,0,0,1,.18,193.43V192a159.12,159.12,0,0,0,50.5,9.35c29.22.56,51.26-7.49,81.81-18.61,21.27-7.74,40.57-16.84,98.75-50.31C263.86,113.61,279,104.23,289.06,98c8.83-5.47,14.16-8.76,24.28-14.16,4.86-2.6,9.83-5.14,14.8-7.57"/>
        <path class="cls-2" d="M328.14,230.4c-53.73,28.75-81.93,43.26-120.56,54.45-28.57,8.28-57.86,16.76-88.31,16.76A148,148,0,0,1,86,297.92C54.18,290.6,25.7,273,.18,244.67v-2c25.31,28.09,54.64,46.5,86.1,53.75,42.25,9.73,82.22-1.85,120.88-13s66.88-25.76,121-54.71"/>
        <path class="cls-2" d="M328.14,149.82c-13.15,7.26-27.41,15.43-43.73,24.79l-.19.11c-25.72,14.74-40.38,23.8-51.08,30.42-13.21,8.16-19.84,12.26-32.93,18.11-24.78,11.1-60.69,27.17-102.15,27.17a155.89,155.89,0,0,1-17.63-1Q38.1,244.6.18,216.44v-1.61c25.11,18.64,52.46,29.92,80.42,33.11,48.45,5.52,90.91-13.48,119-26.06,13-5.81,19.6-9.89,32.75-18,10.71-6.62,25.39-15.68,51.12-30.44l.2-.11c16.62-9.53,31.1-17.84,44.47-25.2"/>
      </g>
      <g>
        <path class="cls-3" d="M75.92,282.83c-7.92,0-14.44-3.33-17.89-9.12-6-10.07-.52-24.45,12.23-32a31.48,31.48,0,0,1,16.09-4.62,23.38,23.38,0,0,1,10.32,2.25l-2.34-168-16.7.23-.11-8,43-.6L167,198.48,205.36,61.76l46.74-.65.12,8-16.71.23,2.43,174.49,16.71-.23.11,8-63.71.89-.11-8,16.7-.24L205.47,88.32,159.22,252.91l-6.05.09L102,106.2l1.94,139.45c.12.17.23.33.33.5,3,5,3.26,11,.87,17.17A30.85,30.85,0,0,1,92,278.2,31.6,31.6,0,0,1,75.92,282.83Z"/>
        <path class="cls-4" d="M250.38,62.88l.06,4.49-16.7.23,2.48,178,16.7-.24.06,4.49-60.21.84-.06-4.49,16.71-.23L207.05,76.22l-49.16,175-3.48,0L100.09,95.44l2.1,150.78c.19.28.4.54.57.83,5.52,9.26.32,22.53-11.62,29.65a30,30,0,0,1-15.22,4.38c-7,0-13.16-2.85-16.39-8.26-5.51-9.26-.31-22.54,11.62-29.65a30,30,0,0,1,15.2-4.37,20.6,20.6,0,0,1,12.12,3.61L96.06,69.52l-16.71.24-.06-4.5,40-.55,47.85,139.65L206.69,63.49l43.69-.61m3.45-3.55-3.5.05L206.64,60,204,60l-.71,2.52-36.5,130.05-44.2-129-.82-2.4-2.54,0-40,.55-3.5.05.05,3.5.06,4.49.05,3.5,3.5,0,13.21-.19,2.28,163.6a26,26,0,0,0-8.54-1.37,33.36,33.36,0,0,0-17,4.86,32.63,32.63,0,0,0-13.82,15.75c-2.6,6.63-2.25,13.27,1,18.7,3.77,6.33,10.84,10,19.39,10a33.36,33.36,0,0,0,17-4.88c13.58-8.09,19.34-23.54,12.84-34.44l-.09-.15L103.89,117,151.1,252.38l.83,2.38,2.52,0,3.49,0,2.62,0,.7-2.51,42.63-151.72,2,142.11-13.21.18-3.5.05.05,3.5.06,4.49,0,3.5,3.5-.05,60.21-.84,3.5,0,0-3.5-.06-4.5-.05-3.5-3.5.05-13.2.19-2.39-171,13.21-.19,3.5-.05-.05-3.5-.06-4.49,0-3.5Z"/>
      </g>
    </g>
  </g>
</svg>
