<svg xmlns="http://www.w3.org/2000/svg" viewBox="0 0 927.02 369.82">
  <defs>
    <style>
      .cls-1 {
        fill: #fff;
      }

      .cls-2 {
        fill: #486475;
      }

      .cls-3 {
        fill: #cbb260;
      }
    </style>
  </defs>
  <g id="Calque_2" data-name="Calque 2">
    <g id="Calque_3" data-name="Calque 3">
      <g>
        <g>
          <g>
            <path class="cls-1" d="M440.15,334.49a3.33,3.33,0,0,1-.71-.09,2.47,2.47,0,0,1-1.52-1.16,2.18,2.18,0,0,1-.17-1.68L438,331c.74-2.14,1.43-4.16,2.12-5.92.2-.68.41-1.39.61-2.12a15.7,15.7,0,0,1-2,1.26,12.08,12.08,0,0,1-5.84,1.71c-.22,0-.45,0-.67,0a6.6,6.6,0,0,1-2-.42c-.06.16-.38.93-.38.93a1.58,1.58,0,0,1-.09.31c0,.06,0,.12-.05.18v.06l0,.06c-1,3-1.75,5.06-2.13,6l-.06.13a2.5,2.5,0,0,1-2.25,1.38,3.51,3.51,0,0,1-.71-.09,2.45,2.45,0,0,1-1.51-1.16,2.18,2.18,0,0,1-.17-1.68L423,331c.63-1.83,1.22-3.56,1.81-5.13A7.62,7.62,0,0,1,423,326a4.78,4.78,0,0,1-4.06-2c-1-1.33-1.34-3.27-1.16-5.91.06-.7.15-1.37.25-2l-4.45-.59c-3.09,4.35-5.5,8.44-6.2,10.52a2.48,2.48,0,0,1-2.35,1.61,2.16,2.16,0,0,1-.68-.08,2.54,2.54,0,0,1-1.54-1.19,2.05,2.05,0,0,1-.16-1.64,47.73,47.73,0,0,1,5.56-9.88,4.08,4.08,0,0,0-.8-.05,2.27,2.27,0,1,1,0-4.53,15.92,15.92,0,0,1,2.57.21l1.26.16.74-1a85,85,0,0,1,7-8,27.85,27.85,0,0,1,6.91-5.39A2.73,2.73,0,0,1,427,296a2.45,2.45,0,0,1,1.64.6,2.1,2.1,0,0,1,.5,2.71,65.66,65.66,0,0,0-5.28,12.9,33.11,33.11,0,0,0-1.23,6.28c-.17,2.42.31,3,.31,3.05v0c1.12,0,2.09-.7,3-2.06a9.78,9.78,0,0,0,1.16-2.27c.49-2.24.92-4.48,1.27-6.67a2.36,2.36,0,0,1,2.43-1.95h.25a2.56,2.56,0,0,1,1.78,1,2,2,0,0,1,.38,1.59,2.51,2.51,0,0,1,0,.27,9,9,0,0,1,1.42-.85,8.09,8.09,0,0,1,3.52-.78,9.69,9.69,0,0,1,1.91.2,5.59,5.59,0,0,1,3,1.7l.05.05c.07-.42.14-.83.2-1.25a2.37,2.37,0,0,1,2.43-1.95h.25a2.58,2.58,0,0,1,1.79,1,2.08,2.08,0,0,1,.38,1.59,2.51,2.51,0,0,0,0,.27,9.43,9.43,0,0,1,1.41-.85,8.15,8.15,0,0,1,3.52-.78,9.61,9.61,0,0,1,1.91.2,5.55,5.55,0,0,1,3,1.7,5.31,5.31,0,0,1,.84,1.16l.47-.91-.09-.19a3.19,3.19,0,0,1,.22-2.94,3.27,3.27,0,0,1,2.75-1.55,3,3,0,0,1,1.15.22,2.74,2.74,0,0,1,1.73,2.84,1.73,1.73,0,0,1,0,.32c2,1.16,3.05,2.42,3.37,3.94.35,1.8-.45,3.46-1.37,5.15a9.87,9.87,0,0,0-.74,1.55c1.74-.38,4.13-2.19,5.65-4.36l.08-.11a16.85,16.85,0,0,1,2.14-3.2,12.6,12.6,0,0,1,6.17-4.39,8,8,0,0,1,1.91-.25,5.86,5.86,0,0,1,2.91.71,4,4,0,0,1,1.75,2,3.45,3.45,0,0,1,.14.34,2.57,2.57,0,0,1,1.65-.6l.24,0a2.54,2.54,0,0,1,1.74.9,2.19,2.19,0,0,1,.48,1.13l.28-.23a9,9,0,0,1,5.49-2.2c2.06,0,3.56.57,4.44,1.7a4.37,4.37,0,0,1,.64,3.8,13.34,13.34,0,0,1-.82,2.48l-.45,1.11a5.91,5.91,0,0,0,2.25-2l.09-.12a18.65,18.65,0,0,1,6.45-7.32,11.23,11.23,0,0,1,5.86-1.81,6.89,6.89,0,0,1,2.09.31c1.59-3.45,3.31-6.68,4.27-8.48l.68-1.27a9,9,0,0,1,1-1.55,3,3,0,0,1,2.3-1.33H526a2.6,2.6,0,0,1,2,.94,2.66,2.66,0,0,1,.25,2.73,11,11,0,0,1-.86,1.71c-.09.15-.2.36-.34.63s-.4.77-.67,1.24c-1.06,2-3.06,5.89-5.39,9.66-2,4.7-2.2,6.78-2.17,7.57a3.58,3.58,0,0,0,2.22-1.32,2.18,2.18,0,0,1,.81-1.75c.42-.33.81-.65,1.16-.95l0-.08a2.21,2.21,0,0,1,1.1-.93,16.91,16.91,0,0,0,3.64-4.38,3.54,3.54,0,0,0,.23-.39,1.27,1.27,0,0,1,0-.27,2.85,2.85,0,0,1,1.26-2.71,2.73,2.73,0,0,1,1.43-.4,2.58,2.58,0,0,1,1.6.55c.9.65,1.19,1.73.82,3.19l.18.44c2.6,5.69,2.92,9.71,1,12.24-.65.85-2.24,2.28-5.51,2.28s-4.93-1.21-5.8-2.33a8.14,8.14,0,0,1-4.66,1.36,4.27,4.27,0,0,1-3.52-1.65,4.52,4.52,0,0,1-.66-1.44,10.73,10.73,0,0,1-5.31,3.18,5.84,5.84,0,0,1-1.18.13,5.43,5.43,0,0,1-3.41-1.18,4.17,4.17,0,0,1-.75-.7,7.79,7.79,0,0,1-1.87.68,10.72,10.72,0,0,1-2.16.27,4.18,4.18,0,0,1-3-1.06,3.49,3.49,0,0,1-.79-3.59,13.83,13.83,0,0,1,.69-2.06l.15-.39a12.94,12.94,0,0,0,.82-2.19v0H497c-.77,0-3.21.83-9,8.55a2.58,2.58,0,0,1-2,1,2.18,2.18,0,0,1-1.08-.26,1.86,1.86,0,0,1-.41-.23,13.31,13.31,0,0,1-6.15,1.63c-2,0-4.81-.74-6.27-2.78l-.26.18a11.4,11.4,0,0,1-5.71,2.21h-.47a4.29,4.29,0,0,1-3.59-1.53,3.76,3.76,0,0,1-.68-3.13,10.1,10.1,0,0,1,1.39-3.58,5.35,5.35,0,0,0,.91-2.2,1.17,1.17,0,0,0-.41-.46c-.56,1.07-1.19,2.28-1.69,3.21l-.82,1.56a2.55,2.55,0,0,1-2.24,1.29,2.72,2.72,0,0,1-.8-.12,13.25,13.25,0,0,1-4,3.23,12.08,12.08,0,0,1-5.84,1.71c-.22,0-.44,0-.66,0a6.73,6.73,0,0,1-2-.42l-.37.93-.09.31a1.21,1.21,0,0,0-.05.18v.06l0,.06c-1,3-1.75,5.06-2.14,6l-.05.13A2.52,2.52,0,0,1,440.15,334.49Zm86.13-13.62a2.3,2.3,0,0,1,.6.68c.16.25.35.57,1.88.57,1.2,0,1.47-.35,1.47-.36.23-.28.6-1,.17-3.19a13.33,13.33,0,0,0-.43-1.64l-.34.39a34.69,34.69,0,0,1-2.72,2.63Zm-50,.22a3.24,3.24,0,0,0,2.07.67,8.57,8.57,0,0,0,7-4.21l.09-.3C483.87,318.75,481.09,320.18,476.26,321.09Zm-29.32.11a2.4,2.4,0,0,0,.8.17,7.64,7.64,0,0,0,3.42-1.1c3-1.61,3.78-3.56,3.55-4.86a1.21,1.21,0,0,0-.72-1,4.31,4.31,0,0,0-.88-.1c-.86,0-2.06.3-3.79,2.66a32.51,32.51,0,0,0-2.38,4.2Zm-14.94,0a2.3,2.3,0,0,0,.8.17,7.62,7.62,0,0,0,3.41-1.1c3-1.61,3.79-3.56,3.55-4.86a1.21,1.21,0,0,0-.72-1,4.31,4.31,0,0,0-.88-.1c-.85,0-2.05.3-3.78,2.66a30.9,30.9,0,0,0-2.38,4.2Zm75.6-1.13a2.67,2.67,0,0,0-.24.95.71.71,0,0,0,0,.23.44.44,0,0,0,.31.11l.18,0c.54-.11,2.83-1,7.31-7.66l.11-.15a1.55,1.55,0,0,0-.42.05,6.49,6.49,0,0,0-2.51,1A13.64,13.64,0,0,0,509,317.7l-.3.4A13.89,13.89,0,0,1,507.6,320.07Zm-25.29-6.54a3.1,3.1,0,0,0-.61.08,7,7,0,0,0-3,2.17C481.06,315,482.06,314.06,482.31,313.53Zm-65.6-2.18,2.26.34c.06-.21.12-.42.17-.64.4-1.38.87-2.81,1.38-4.23C419.3,308.17,418,309.69,416.71,311.35Z"/>
            <path class="cls-2" d="M427,297a1.52,1.52,0,0,1,1,.35,1.12,1.12,0,0,1,.28,1.46,67.21,67.21,0,0,0-5.37,13.12,34.2,34.2,0,0,0-1.27,6.49c-.16,2.39.25,3.39.53,3.75a.85.85,0,0,0,.78.39c1.44,0,2.71-.82,3.86-2.5a10.94,10.94,0,0,0,1.29-2.56c.46-2.08.91-4.34,1.3-6.78a1.37,1.37,0,0,1,1.44-1.11H431A1.32,1.32,0,0,1,432.3,311c-.17,1.14-.37,2.21-.54,3.28a9.78,9.78,0,0,1,3.33-2.78,7.16,7.16,0,0,1,3.09-.68,8.5,8.5,0,0,1,1.71.18,4.66,4.66,0,0,1,2.5,1.39,5.11,5.11,0,0,1,1.23,2.43v0c.27-1.33.52-2.73.75-4.18a1.38,1.38,0,0,1,1.44-1.11H446a1.31,1.31,0,0,1,1.27,1.42c-.16,1.14-.37,2.21-.53,3.28a9.75,9.75,0,0,1,3.32-2.78,7.19,7.19,0,0,1,3.09-.68,8.43,8.43,0,0,1,1.71.18,4.59,4.59,0,0,1,2.5,1.39,5,5,0,0,1,1.23,2.43,4.49,4.49,0,0,1,.06.73c.68-1.26,1.43-2.69,1.91-3.62a4.18,4.18,0,0,1-.33-.57,2.15,2.15,0,0,1,.16-2,2.28,2.28,0,0,1,1.9-1.07,1.86,1.86,0,0,1,.77.15,1.72,1.72,0,0,1,1.11,1.85,3.32,3.32,0,0,1-.17.89c2.18,1.14,3.25,2.28,3.53,3.64s-.45,3-1.27,4.45c-1.27,2.25-1,3-1,3.07s.1.05.26.05h.35c2.13-.11,5.13-2.21,7-4.85,0,0,.05,0,.07-.07a16,16,0,0,1,2.11-3.18,11.52,11.52,0,0,1,5.66-4.06,6.47,6.47,0,0,1,1.65-.22,4.78,4.78,0,0,1,2.41.58,3,3,0,0,1,1.32,1.53,3.18,3.18,0,0,1,.16,2c-.41,1.71-2.42,4.74-11.2,6.17a1.74,1.74,0,0,0,.25,1.14,3.76,3.76,0,0,0,3.07,1.32,9.61,9.61,0,0,0,7.93-4.81,23.17,23.17,0,0,0,1.06-4.32,1.42,1.42,0,0,1,1.45-1.15h.15a1.34,1.34,0,0,1,1.31,1.39,19.89,19.89,0,0,1-.45,2.35,23,23,0,0,1,2.34-2.14,8,8,0,0,1,4.88-2c1.72,0,3,.43,3.65,1.32a3.35,3.35,0,0,1,.45,3,14.83,14.83,0,0,1-.94,2.74c-.25.61-.49,1.21-.66,1.71a2.51,2.51,0,0,0-.12.61,7.34,7.34,0,0,0,1.31-.18,5.88,5.88,0,0,0,3.16-2.42l.17-.24a17.8,17.8,0,0,1,6.11-7,10.28,10.28,0,0,1,5.33-1.66,5.18,5.18,0,0,1,2.47.55.19.19,0,0,0,.12.07c1.76-3.92,3.77-7.66,4.8-9.59l.53-1a8.69,8.69,0,0,1,.86-1.39,2.08,2.08,0,0,1,1.56-1h.2a1.61,1.61,0,0,1,1.24.58,1.72,1.72,0,0,1,.08,1.71,9.4,9.4,0,0,1-.78,1.57c-.2.32-.53,1-1,1.89-1.14,2.21-3.11,6-5.41,9.7-3,7.09-2.26,8.73-2.05,9,0,0,0,.07.25.07,1.09,0,2.23-.2,3.8-2a1.16,1.16,0,0,1,.38-1.29c.47-.38.9-.73,1.3-1.07,0-.07.09-.14.13-.22a1.35,1.35,0,0,1,.78-.58,18.66,18.66,0,0,0,4-4.76,4.5,4.5,0,0,0,.37-.72c0-.14,0-.28,0-.43a1.9,1.9,0,0,1,.77-1.85,1.78,1.78,0,0,1,.92-.26,1.56,1.56,0,0,1,1,.33c.74.54.7,1.46.41,2.43a6.22,6.22,0,0,0,.29.78c2.42,5.31,2.79,9.09,1.11,11.27-.66.85-2.05,1.89-4.72,1.89-3.41,0-4.64-1.29-5.33-2.43a1.27,1.27,0,0,1-.15-.41,5.49,5.49,0,0,1-.6.48,7.07,7.07,0,0,1-4.38,1.39,3.29,3.29,0,0,1-2.71-1.24,4.85,4.85,0,0,1-.66-3.18c-.37.43-.74.86-1.11,1.22-1.88,1.92-3.57,3-5.21,3.31a4.6,4.6,0,0,1-1,.11,4.43,4.43,0,0,1-2.79-1,3.42,3.42,0,0,1-1.06-1.27,6.94,6.94,0,0,1-2.39,1.05,9.11,9.11,0,0,1-1.95.25,3.26,3.26,0,0,1-2.32-.78,2.54,2.54,0,0,1-.53-2.57,18.39,18.39,0,0,1,.82-2.39,12.58,12.58,0,0,0,.86-2.32,1.53,1.53,0,0,0,0-1c-.08-.11-.41-.25-1.27-.25-2.05,0-5.33,3-9.8,8.95a1.57,1.57,0,0,1-1.23.57,1.4,1.4,0,0,1-.62-.14,1.46,1.46,0,0,1-.68-.61c-.18.11-.36.22-.55.32a12.47,12.47,0,0,1-5.79,1.57c-1.88,0-4.51-.71-5.66-2.67a3.81,3.81,0,0,1-.28-.62c-.38.31-.76.6-1.16.87a10.43,10.43,0,0,1-5.2,2h-.41a3.31,3.31,0,0,1-2.79-1.14,2.82,2.82,0,0,1-.5-2.36,9.63,9.63,0,0,1,1.27-3.24c.74-1.32,1.15-2.25,1-2.89-.08-.35-.33-.89-1.76-1.71-1.11,2.14-3,5.6-3,5.78a1.53,1.53,0,0,1-1.34.72,1.76,1.76,0,0,1-.63-.12,1.31,1.31,0,0,1-.45-.3,11.54,11.54,0,0,1-4.22,3.65,11.08,11.08,0,0,1-5.36,1.59c-.19,0-.39,0-.59,0a4.85,4.85,0,0,1-2.46-.71s-.12-.07-.16-.14c-.25.67-.54,1.35-.82,2.06,0,.22-.13.4-.17.61-1.19,3.74-2.09,5.88-2.13,6a1.51,1.51,0,0,1-1.35.82,2.15,2.15,0,0,1-.5-.07,1.27,1.27,0,0,1-.94-1.57c.82-2.39,1.56-4.56,2.3-6.45.49-1.63,1.06-3.68,1.63-6a13.07,13.07,0,0,1-9.75,5.53,5.72,5.72,0,0,1-.59,0,4.77,4.77,0,0,1-2.46-.71s-.13-.07-.17-.14c-.24.67-.53,1.35-.82,2.06,0,.22-.12.4-.16.61-1.19,3.74-2.09,5.88-2.13,6a1.52,1.52,0,0,1-1.36.82,2.07,2.07,0,0,1-.49-.07,1.25,1.25,0,0,1-.94-1.57c.82-2.39,1.55-4.56,2.29-6.45.13-.41.25-.84.38-1.29A6.85,6.85,0,0,1,423,325a3.82,3.82,0,0,1-3.24-1.57c-.82-1.14-1.15-2.89-1-5.27a27.7,27.7,0,0,1,.41-2.93c-1.15-.18-3.53-.5-6.07-.82-3.29,4.57-5.91,8.95-6.69,11.27a1.47,1.47,0,0,1-1.4.93,1.33,1.33,0,0,1-.41,0,1.29,1.29,0,0,1-1-1.57c.82-2.42,3.24-6.52,6.36-11a20,20,0,0,0-2.55-.28,1.28,1.28,0,1,1,0-2.53,35.32,35.32,0,0,1,4.27.43c.37-.47.74-1,1.11-1.47a83.83,83.83,0,0,1,6.89-7.91,27.56,27.56,0,0,1,6.64-5.21A1.78,1.78,0,0,1,427,297m-7.34,15.86c.12-.5.29-1,.41-1.53a75.62,75.62,0,0,1,3.16-8.66c-.45.42-.94.89-1.44,1.38a78.64,78.64,0,0,0-6.64,7.67,2.47,2.47,0,0,0-.33.43c2.09.28,3.9.57,4.84.71m88,9.55.32,0c1.11-.21,3.61-1.57,8-8.09l.45-.64a1.05,1.05,0,0,1,0-.5c.08-.32,0-.39-.08-.43a2.39,2.39,0,0,0-.91-.14,3.62,3.62,0,0,0-.82.07,7.53,7.53,0,0,0-2.83,1.1,15.17,15.17,0,0,0-3.57,3.39l-.37.51a13.53,13.53,0,0,1-1.15,2,3.87,3.87,0,0,0-.36,1.39,1.09,1.09,0,0,0,.37,1,1.42,1.42,0,0,0,.95.35m-31.6-4.84c4.88-1,7-2.64,7.26-3.92a.9.9,0,0,0-.21-.93,1.78,1.78,0,0,0-.78-.14,4.21,4.21,0,0,0-.86.1,8.56,8.56,0,0,0-4.1,3.1,20,20,0,0,0-1.31,1.79m-30.56,4.35h.14a1.54,1.54,0,0,1,.84.26h.05a3.23,3.23,0,0,0,1.14.25,8.47,8.47,0,0,0,3.94-1.22c3.49-1.89,4.35-4.31,4.06-5.91a2.17,2.17,0,0,0-1.51-1.79,5.47,5.47,0,0,0-1.07-.11c-1.33,0-2.8.62-4.6,3.07a36.84,36.84,0,0,0-3,5.46m-14.94,0h.14a1.54,1.54,0,0,1,.84.26h0a3.25,3.25,0,0,0,1.15.25,8.5,8.5,0,0,0,3.94-1.22c3.48-1.89,4.35-4.31,4.06-5.91a2.18,2.18,0,0,0-1.52-1.79,5.39,5.39,0,0,0-1.07-.11c-1.32,0-2.79.62-4.59,3.07a35.94,35.94,0,0,0-3,5.46m94.06-.5h.09a1.43,1.43,0,0,1,1.28.68c.29.46.66,1.07,2.75,1.07,1.68,0,2.17-.61,2.3-.79.61-.75.69-2.1.32-4a18.59,18.59,0,0,0-1.1-3.49,15.79,15.79,0,0,1-1.4,1.78,32,32,0,0,1-2.74,2.62,20.73,20.73,0,0,1-1.5,2.09M427,295h0a3.64,3.64,0,0,0-1.62.38,29,29,0,0,0-7.17,5.58,87.8,87.8,0,0,0-7.07,8.11l-.41.56-.68-.09a18.39,18.39,0,0,0-2.7-.21,3.37,3.37,0,0,0-3.47,3.25,3.31,3.31,0,0,0,2.51,3.15,44.29,44.29,0,0,0-4.75,8.72,3.11,3.11,0,0,0,.23,2.45,3.53,3.53,0,0,0,2.17,1.69,3.09,3.09,0,0,0,.93.11,3.47,3.47,0,0,0,3.28-2.25c.66-2,2.87-5.73,5.74-9.81l2.85.37c-.05.35-.08.7-.12,1.05-.2,2.93.25,5.08,1.36,6.63A5.81,5.81,0,0,0,423,327h.34c-.41,1.15-.83,2.37-1.26,3.62l-.19.55v.07a3.15,3.15,0,0,0,.25,2.44,3.39,3.39,0,0,0,2,1.63l.06,0h.07a4,4,0,0,0,.92.12,3.53,3.53,0,0,0,3.15-1.94l0-.08,0-.09v0c.67-1.66,1.44-3.81,2.15-6.06l0-.12,0-.12a.24.24,0,0,0,0-.07c0-.1.06-.2.08-.3v0a8,8,0,0,0,1.4.2c.24,0,.48,0,.72,0a12.78,12.78,0,0,0,6.05-1.69c-.63,1.66-1.27,3.53-1.94,5.49l-.18.52v.07a3.14,3.14,0,0,0,.24,2.44,3.38,3.38,0,0,0,2.06,1.63l.06,0h.06a4.05,4.05,0,0,0,.93.12,3.51,3.51,0,0,0,3.14-1.94l0-.08,0-.08c.4-1,1.2-3,2.17-6.1l0-.12,0-.12,0-.07.09-.3v0a8,8,0,0,0,1.4.2c.23,0,.47,0,.71,0a13,13,0,0,0,6.33-1.84,14.66,14.66,0,0,0,3.91-3l.42,0a3.66,3.66,0,0,0,1.8-.47,4.64,4.64,0,0,0,1,3.41,5.26,5.26,0,0,0,4.36,1.9h.54a11.91,11.91,0,0,0,5.72-2.05,9.35,9.35,0,0,0,6.45,2.45,14.39,14.39,0,0,0,6.13-1.49h0a3.22,3.22,0,0,0,1.48.34,3.52,3.52,0,0,0,2.78-1.32l0,0,0,0c3.48-4.64,5.63-6.64,6.85-7.5l0,.1,0,.07,0,.07-.15.39a16.68,16.68,0,0,0-.73,2.2,4.44,4.44,0,0,0,1.09,4.53,5.1,5.1,0,0,0,3.69,1.33,11.77,11.77,0,0,0,2.38-.29,8.49,8.49,0,0,0,1.43-.46l.39.32a6.46,6.46,0,0,0,4,1.36,6.66,6.66,0,0,0,1.4-.15,10.59,10.59,0,0,0,4.72-2.47l.21.32a5.26,5.26,0,0,0,4.34,2.08,9.21,9.21,0,0,0,4.47-1.08c1.39,1.39,3.34,2,6,2,3.7,0,5.54-1.68,6.3-2.68,2.19-2.83,1.92-7.17-.85-13.26,0,0,0-.08,0-.11a3.67,3.67,0,0,0-1.29-3.91,3.52,3.52,0,0,0-2.18-.74,3.79,3.79,0,0,0-2,.56,3.85,3.85,0,0,0-1.72,3.6l0,.05,0,.07a15.81,15.81,0,0,1-3.34,4,3.22,3.22,0,0,0-1.34,1.19c-.32.26-.65.54-1,.82a3.3,3.3,0,0,0-1,1.5,39.61,39.61,0,0,1,1.69-4.75c2.32-3.76,4.31-7.58,5.39-9.66.27-.47.49-.89.67-1.23s.24-.47.28-.54a12,12,0,0,0,1-1.93,3.61,3.61,0,0,0-.33-3.6l0-.06-.05-.06a3.61,3.61,0,0,0-2.77-1.29,2.36,2.36,0,0,0-.37,0,4,4,0,0,0-3,1.73,9.53,9.53,0,0,0-1.06,1.71l-.52,1-.14.27c-.9,1.68-2.45,4.59-4,7.78a8.29,8.29,0,0,0-1.53-.14,12.26,12.26,0,0,0-6.4,2,20.5,20.5,0,0,0-5.85,5.95,5.06,5.06,0,0,0-1-3.7q-1.65-2.1-5.24-2.1a9.25,9.25,0,0,0-5.33,1.85l-.15-.18a3.53,3.53,0,0,0-2.42-1.27l-.33,0a3.62,3.62,0,0,0-1.19.2,5,5,0,0,0-1.84-1.85,7,7,0,0,0-3.42-.84,8.94,8.94,0,0,0-2.15.28,13.53,13.53,0,0,0-6.7,4.73,17.78,17.78,0,0,0-2.24,3.32l0,.06A11.72,11.72,0,0,1,468.6,319a7.21,7.21,0,0,0,.86-4.62,6.91,6.91,0,0,0-3.32-4.3,3.69,3.69,0,0,0-2.36-3.55,3.92,3.92,0,0,0-1.52-.29,4.28,4.28,0,0,0-3.6,2,4.38,4.38,0,0,0-.63,2A6.46,6.46,0,0,0,455.2,309a10.27,10.27,0,0,0-2.08-.22,9.26,9.26,0,0,0-3.94.87l-.12.06a2.86,2.86,0,0,0-.4-.75,3.56,3.56,0,0,0-2.43-1.41h-.08l-.34,0a3.41,3.41,0,0,0-3.31,2.34,6.66,6.66,0,0,0-2.24-.87,10.42,10.42,0,0,0-2.08-.22,9.3,9.3,0,0,0-3.95.87l-.11.06a3.23,3.23,0,0,0-.41-.75,3.54,3.54,0,0,0-2.42-1.41h-.08l-.34,0a3.36,3.36,0,0,0-3.42,2.83c-.35,2.14-.76,4.33-1.24,6.51a9.34,9.34,0,0,1-1,2,4.17,4.17,0,0,1-1.52,1.48,11.42,11.42,0,0,1,0-1.84,33,33,0,0,1,1.21-6.09,63.25,63.25,0,0,1,5.19-12.67,3.12,3.12,0,0,0-.76-4A3.51,3.51,0,0,0,427,295Zm21.5,25.31a24.62,24.62,0,0,1,1.62-2.7c1.62-2.22,2.58-2.22,2.95-2.22a2.75,2.75,0,0,1,.53.05,1,1,0,0,1,.09.24c.11.74-.41,2.34-3.05,3.77a9.19,9.19,0,0,1-2.14.86Zm-15,0a26.3,26.3,0,0,1,1.62-2.7c1.63-2.22,2.59-2.22,3-2.22a2.62,2.62,0,0,1,.53.05,1,1,0,0,1,.1.24c.1.74-.42,2.34-3.05,3.77a9.06,9.06,0,0,1-2.15.86Zm76-1.66.22-.29a13.8,13.8,0,0,1,2.75-2.72,24.19,24.19,0,0,1-3.35,3.75c.16-.28.28-.53.38-.74Zm18.06,2c.65-.58,1.25-1.13,1.79-1.66a4.3,4.3,0,0,1,.06,2.08,2.76,2.76,0,0,1-.76.09,4.34,4.34,0,0,1-1-.1,2.13,2.13,0,0,0-.16-.25l.11-.16ZM520,319.4c0-.06,0-.13,0-.2a1.1,1.1,0,0,0,0,.18l0,0Z"/>
          </g>
          <g>
            <path class="cls-1" d="M558.05,326.5a5.47,5.47,0,0,1-3.81-1.45l-.09-.09a8.29,8.29,0,0,1-3.36.72,6.15,6.15,0,0,1-4.83-1.85c-1.48-1.81-1.5-4.58-.05-8.48a71.32,71.32,0,0,1,4.09-8.69,50.35,50.35,0,0,1,5-7.75,8.5,8.5,0,0,1,2.42-2.16,4.69,4.69,0,0,1,2.11-.54,3.64,3.64,0,0,1,1.55.33,3.79,3.79,0,0,1,2.26,3.64,11.07,11.07,0,0,1-.9,4.49,23.61,23.61,0,0,1-4,6.85,19.51,19.51,0,0,1-8.08,6c-.94,2.79-.45,3.54-.44,3.55a2.07,2.07,0,0,0,.86.09,4.77,4.77,0,0,0,2.26-.65,12.44,12.44,0,0,1,2.8-4.94,22.23,22.23,0,0,1,4.67-4.09,10.54,10.54,0,0,1,5.46-1.66,6.23,6.23,0,0,1,3,.7,3.76,3.76,0,0,1,1.93,4.35,2,2,0,0,1-.66,1.13c.63,1.46-.4,2.9-1.5,4.12a7.53,7.53,0,0,1-.76.81c-.05.09-.23.49-.27.58,1.43-.41,2.94-1.93,4.52-4.54a2.45,2.45,0,0,1,2.14-1.16,2.59,2.59,0,0,1,1.1.24,2.25,2.25,0,0,1,1.27,1.38,2.1,2.1,0,0,1-.22,1.76,17.86,17.86,0,0,1-4.3,5.09,8.49,8.49,0,0,1-5.29,1.88,4.43,4.43,0,0,1-3.61-1.42,10.31,10.31,0,0,1-5,1.77h-.25Zm2.29-8.86a2.11,2.11,0,0,1-.23,1.55,17.11,17.11,0,0,1-2,2.78c1.23-.05,3.51-1.5,5.71-3.61a1,1,0,0,0,.08-.14l.19-.35.23-.43a7.31,7.31,0,0,1,1.09-1.67,4.27,4.27,0,0,1,.75-.68,2.1,2.1,0,0,1-.13-.74h0a5.44,5.44,0,0,0-2.71.88A17.35,17.35,0,0,0,560.34,317.64Zm-2.45-14.7a62.05,62.05,0,0,0-3.89,6.43,21.15,21.15,0,0,0,3.82-6.22Z"/>
            <path class="cls-2" d="M559.51,297.21a2.57,2.57,0,0,1,1.13.24,2.82,2.82,0,0,1,1.68,2.78,10.14,10.14,0,0,1-.82,4.06,23,23,0,0,1-3.86,6.6,18.58,18.58,0,0,1-7.79,5.74,1,1,0,0,1-.29.07c-1.27,3.46-.74,4.63-.45,5s1,.46,1.64.46h0a5.79,5.79,0,0,0,3-.92l.17-.12a11.06,11.06,0,0,1,2.67-4.91,21.52,21.52,0,0,1,4.43-3.89,9.55,9.55,0,0,1,4.93-1.5,5.22,5.22,0,0,1,2.53.58,2.76,2.76,0,0,1,1.44,3.24,1.39,1.39,0,0,1-1.4,1h-.08a1.93,1.93,0,0,1,.82.64c.41.78,0,1.71-1.27,3.17a8,8,0,0,1-.86.89c-.17.4-.37.79-.49,1.15a2.22,2.22,0,0,0-.17,1.1,1.07,1.07,0,0,0,.45,0c2.05,0,4.06-1.68,6.16-5.14a1.46,1.46,0,0,1,1.28-.68,1.68,1.68,0,0,1,.69.15,1.18,1.18,0,0,1,.61,1.71,17.13,17.13,0,0,1-4.06,4.81,7.39,7.39,0,0,1-4.68,1.68A3.41,3.41,0,0,1,564,324a5.26,5.26,0,0,1-.33-.72,10.65,10.65,0,0,1-5.41,2.21h-.21a4.44,4.44,0,0,1-3.11-1.17,3.87,3.87,0,0,1-.53-.62,7.42,7.42,0,0,1-3.62,1h0a5.11,5.11,0,0,1-4-1.49c-1.23-1.5-1.19-4,.12-7.49a69.35,69.35,0,0,1,4-8.56,49.64,49.64,0,0,1,4.88-7.59,7.62,7.62,0,0,1,2.14-1.93,3.68,3.68,0,0,1,1.62-.41m-8.51,16a20.39,20.39,0,0,0,7.75-9.69,8.13,8.13,0,0,0,.66-2.82,3.23,3.23,0,0,0-.09-.82,4.92,4.92,0,0,0-1.19,1.11A63,63,0,0,0,551,313.2m7,9.78h.16c1.72-.07,4.34-1.92,6.48-4,.12-.21.2-.39.33-.61l.24-.46a6.58,6.58,0,0,1,.95-1.46,2.17,2.17,0,0,1,1.68-.89h.12a1.29,1.29,0,0,1-.9-1.43c.12-.46,0-.57-.17-.61a2,2,0,0,0-.9-.17,6.3,6.3,0,0,0-3.24,1,18.82,18.82,0,0,0-3.57,3.06,1.08,1.08,0,0,1,.08,1.25,15.72,15.72,0,0,1-2.49,3.25,1.14,1.14,0,0,0,.32.68,1.19,1.19,0,0,0,.91.36m1.53-27.77v0a5.5,5.5,0,0,0-2.52.63l0,0,0,0a9.36,9.36,0,0,0-2.73,2.44,51.83,51.83,0,0,0-5.07,7.88A71.48,71.48,0,0,0,545,315c-1.59,4.28-1.52,7.37.2,9.47a7.06,7.06,0,0,0,5.57,2.22,9.46,9.46,0,0,0,3.2-.56,6.56,6.56,0,0,0,4.1,1.38h.29a10.73,10.73,0,0,0,4.82-1.52,5.73,5.73,0,0,0,3.75,1.17,9.43,9.43,0,0,0,5.92-2.11,18.7,18.7,0,0,0,4.53-5.35,3.14,3.14,0,0,0,.32-2.57,3.33,3.33,0,0,0-1.85-2,3.56,3.56,0,0,0-1.48-.31,3.46,3.46,0,0,0-3,1.61l0-.19a3.12,3.12,0,0,0,.51-1.16,4.77,4.77,0,0,0-2.42-5.43,7.3,7.3,0,0,0-3.5-.82,11.32,11.32,0,0,0-5.3,1.4,24.23,24.23,0,0,0,2.73-5.21,12.12,12.12,0,0,0,1-4.85,4.78,4.78,0,0,0-2.89-4.54,4.64,4.64,0,0,0-1.92-.4ZM561.4,318a14.76,14.76,0,0,1,2.39-1.93l.22-.14c-.2.32-.41.67-.61,1.07l-.21.4-.18.34a21.81,21.81,0,0,1-1.85,1.58,3.06,3.06,0,0,0,.24-1.32Zm-10.26.26a19,19,0,0,0,2.26-1.12,10.84,10.84,0,0,0-1.24,2.66,3.56,3.56,0,0,1-1.37.34h0a8.27,8.27,0,0,1,.39-1.88Z"/>
          </g>
          <g>
            <path class="cls-1" d="M656.64,334.67a2.4,2.4,0,0,1-2.39-2.15,25.51,25.51,0,0,1,1.21-7.37,7.91,7.91,0,0,1-2.65.57h-.3a5.43,5.43,0,0,1-3.72-1.41l0-.05a8.51,8.51,0,0,1-4.57,1.38,7.6,7.6,0,0,1-2.46-.41,6.45,6.45,0,0,1-1.57-.93l0,.06c-.65.85-2.24,2.28-5.51,2.28-4,0-5.43-1.66-6.19-2.91a2.45,2.45,0,0,1-.22-.5,11.92,11.92,0,0,1-1.26.93,7.32,7.32,0,0,1-3.88,1.32,4.36,4.36,0,0,1-1.85-.4,4,4,0,0,1-1.82-1.78,8.9,8.9,0,0,1-5.07,2.51H614a4.48,4.48,0,0,1-3.64-1.81,8.93,8.93,0,0,1-3.57,1.54,6.67,6.67,0,0,1-1.49.16,3.29,3.29,0,0,1-.75-.06,3.45,3.45,0,0,1-2.92-4.68,15.09,15.09,0,0,1,.82-2.39l.07-.19c.15-.35.29-.71.41-1.07-1.52.81-3.36,3-6.49,6.82l-.17.21a2.49,2.49,0,0,1-2,.89,2.8,2.8,0,0,1-1.19-.27,2.38,2.38,0,0,1-1.21-1.47,2.07,2.07,0,0,1,.27-1.62,28.09,28.09,0,0,0,2.43-5.55c.1-.34.17-.64.23-.9a13.41,13.41,0,0,0-1.41,1.09,57.16,57.16,0,0,0-7.2,8.19,2.51,2.51,0,0,1-2,1,2.67,2.67,0,0,1-1.05-.22,2.19,2.19,0,0,1-1.27-2.83l0-.06,0-.06c.19-.45,2.33-5.89,2.58-8.44A2.41,2.41,0,0,1,587,312h.23a2.54,2.54,0,0,1,1.75.9,2.29,2.29,0,0,1,.43.87c.23-.21.45-.4.67-.58,2.25-2,4.3-3,6.24-3.05h.13a3.36,3.36,0,0,1,2.74,1.33,3.79,3.79,0,0,1,.74,2.21,8.22,8.22,0,0,1,3.19-1.17,6.63,6.63,0,0,1,1.06-.08,4.18,4.18,0,0,1,3.09,1.15,3.8,3.8,0,0,1,.81,3.53l0,.17a22,22,0,0,1-.76,2.19l-.18.44c-.13.31-.24.6-.34.85a8.39,8.39,0,0,0,3-3.28,2.21,2.21,0,0,1,.54-.75,39.86,39.86,0,0,1,2.13-4.46,2.6,2.6,0,0,1,3.2-1.06,2.38,2.38,0,0,1,1.35,1.44,2.07,2.07,0,0,1-.18,1.7c-2.37,4.24-2.57,6.13-2.53,6.81a10.47,10.47,0,0,0,3-2.4,24.07,24.07,0,0,0,3.72-5.24,2.48,2.48,0,0,1,2.23-1.31,2.85,2.85,0,0,1,1,.17,2.36,2.36,0,0,1,1.37,1.33,2.1,2.1,0,0,1-.1,1.7,14.51,14.51,0,0,0-1.66,4.87c0,.12,0,.23,0,.33l.48-.3a16.48,16.48,0,0,0,3.92-3.93,2.48,2.48,0,0,1,2-.92,2.28,2.28,0,0,1,.45,0,15.64,15.64,0,0,0,3-3.81,3.31,3.31,0,0,0,.22-.39,2.65,2.65,0,0,1,0-.27,2.86,2.86,0,0,1,1.27-2.71,2.7,2.7,0,0,1,1.43-.4,2.6,2.6,0,0,1,1.6.55c.9.65,1.18,1.73.82,3.19l.18.44a32.4,32.4,0,0,1,1.24,3.11,37.92,37.92,0,0,1,3.44-4.84,2.5,2.5,0,0,1,2-.9,2.56,2.56,0,0,1,1.41.41,2.16,2.16,0,0,1,1,1.45,2.22,2.22,0,0,1-.45,1.75c-5,6.17-4.28,7.89-4.27,7.91a2.69,2.69,0,0,0,.69.1c1.71,0,3.05-1.6,3.89-3a9.87,9.87,0,0,1,.65-1.18l.1-.2a2.21,2.21,0,0,1,.42-.58,18.15,18.15,0,0,1,1.12-1.43,22.2,22.2,0,0,1,4.65-4,10.53,10.53,0,0,1,5.48-1.69,6.09,6.09,0,0,1,3,.7,3.79,3.79,0,0,1,2,4.32,2.43,2.43,0,0,1-.7,1.15,2.49,2.49,0,0,1-.08,2.15,18.5,18.5,0,0,1,2.15-1l.11-.05a41.6,41.6,0,0,1,2-4,2.52,2.52,0,0,1,2.21-1.25,2.57,2.57,0,0,1,1,.19,2.38,2.38,0,0,1,1.35,1.44,2.07,2.07,0,0,1-.19,1.7c-2.36,4.24-2.56,6.13-2.52,6.81a10.35,10.35,0,0,0,3-2.4,24,24,0,0,0,3.73-5.24,2.48,2.48,0,0,1,2.23-1.31,2.75,2.75,0,0,1,1,.17,2.31,2.31,0,0,1,1.37,1.33,2,2,0,0,1-.1,1.7,14.77,14.77,0,0,0-1.66,4.87q0,.18,0,.33l.48-.3a15.55,15.55,0,0,0,3.53-3.44,17.06,17.06,0,0,1,2.18-3.27,12.6,12.6,0,0,1,6.17-4.39,8,8,0,0,1,1.91-.25,5.86,5.86,0,0,1,2.91.71,4,4,0,0,1,1.75,2,4.06,4.06,0,0,1,.2,2.61,5.43,5.43,0,0,1-.93,2,2.62,2.62,0,0,1,1.57-.52,2.39,2.39,0,0,1,.92.17,2.26,2.26,0,0,1,1.34,1.23,2.18,2.18,0,0,1,0,1.75,12.83,12.83,0,0,1-5.49,5.64,13.43,13.43,0,0,1-6.26,1.69c-2,0-4.78-.73-6.25-2.75a10.51,10.51,0,0,1-.88.63,7.32,7.32,0,0,1-3.88,1.32,4.36,4.36,0,0,1-1.85-.4,4,4,0,0,1-1.82-1.78,8.9,8.9,0,0,1-5.07,2.51h-.35a4.49,4.49,0,0,1-3.72-1.91,4.55,4.55,0,0,1-.76-1.91,16.27,16.27,0,0,0-1.49,1.09,14.67,14.67,0,0,0-5.23,9.57,2.42,2.42,0,0,1-2.46,2Zm-24.79-14a2.42,2.42,0,0,1,.86.85c.15.25.35.57,1.88.57,1.2,0,1.47-.35,1.47-.36.23-.28.6-1,.17-3.19a13.82,13.82,0,0,0-.43-1.64l-.34.39A35.4,35.4,0,0,1,631.85,320.7Zm56.53.39a3.26,3.26,0,0,0,2.07.67,8.64,8.64,0,0,0,7.23-4.61l0,0C696.16,318.65,693.36,320.15,688.38,321.09Zm-35.94-.86a2.52,2.52,0,0,0-.18.64.54.54,0,0,0,0,.22.29.29,0,0,0,.25.1h.14c1.2,0,3.54-1.51,5.73-3.64l.26-.56.13-.28a6.44,6.44,0,0,1,1.9-2.39,2.13,2.13,0,0,1-.13-.76h-.08a5.16,5.16,0,0,0-2.65.87,17.84,17.84,0,0,0-4.61,4.43C652.94,319.37,652.69,319.82,652.44,320.23Zm42-6.7a2.92,2.92,0,0,0-.6.08,6.93,6.93,0,0,0-3,2.17C693.18,315,694.18,314.06,694.43,313.53Z"/>
            <path class="cls-2" d="M636.53,309a1.58,1.58,0,0,1,1,.33c.74.54.7,1.46.41,2.43a5,5,0,0,0,.29.78,25,25,0,0,1,1.89,5.58,27.86,27.86,0,0,1,4.49-7,1.51,1.51,0,0,1,1.19-.53,1.64,1.64,0,0,1,.86.24,1.15,1.15,0,0,1,.33,1.75c-5.21,6.38-4.63,8.52-4.35,9s1.19.61,1.56.61c2.08,0,3.67-1.68,4.77-3.49a12.15,12.15,0,0,1,.64-1.18c0-.08.09-.17.13-.25a1.25,1.25,0,0,1,.28-.36,17.83,17.83,0,0,1,1.12-1.43,21.58,21.58,0,0,1,4.43-3.85,9.47,9.47,0,0,1,4.94-1.53,5.16,5.16,0,0,1,2.48.57,2.8,2.8,0,0,1,1.48,3.25,1.44,1.44,0,0,1-1.43,1h-.09a1.56,1.56,0,0,1,.82.65c.45.78.08,1.71-1.27,3.2a9.54,9.54,0,0,1-.74.79l-.74,1.64c.29-.22.58-.46.86-.71a19,19,0,0,1,5.3-3.11,2,2,0,0,1,.49-.12,38.26,38.26,0,0,1,2.09-4.4,1.52,1.52,0,0,1,1.34-.73,1.72,1.72,0,0,1,.63.12,1.21,1.21,0,0,1,.66,1.71c-3.45,6.17-2.63,7.85-2.46,8.13s.37.29.49.29c.7,0,2.13-.82,4-2.82a25.8,25.8,0,0,0,3.9-5.49,1.46,1.46,0,0,1,1.33-.75,1.51,1.51,0,0,1,.59.11A1.17,1.17,0,0,1,681,315a15.71,15.71,0,0,0-1.76,5.24c-.17,1.17.12,1.64.2,1.71h.07a3.62,3.62,0,0,0,1.74-.8,16.67,16.67,0,0,0,3.81-3.71,15.87,15.87,0,0,1,2.1-3.17,11.48,11.48,0,0,1,5.66-4.06,6.47,6.47,0,0,1,1.65-.22,4.85,4.85,0,0,1,2.41.58,2.92,2.92,0,0,1,1.31,1.53,3.11,3.11,0,0,1,.17,2c-.41,1.71-2.42,4.74-11.2,6.17a1.74,1.74,0,0,0,.25,1.14,3.75,3.75,0,0,0,3.07,1.32,9.55,9.55,0,0,0,8.12-5.17,1.6,1.6,0,0,1,1.93-.68,1.21,1.21,0,0,1,.78,1.64,11.65,11.65,0,0,1-5,5.17,12.47,12.47,0,0,1-5.79,1.57c-1.88,0-4.51-.71-5.66-2.67a3.91,3.91,0,0,1-.28-.63,15.36,15.36,0,0,1-1.73,1.34,6.33,6.33,0,0,1-3.34,1.16,3.14,3.14,0,0,1-1.42-.31,3.18,3.18,0,0,1-1.76-2.7c-2.06,2.1-3.94,3.24-5.62,3.35h-.29a3.5,3.5,0,0,1-2.91-1.5,4.33,4.33,0,0,1-.61-3,16.92,16.92,0,0,0-3.09,2,15.66,15.66,0,0,0-5.58,10.2,1.44,1.44,0,0,1-1.47,1.14h-.05a1.39,1.39,0,0,1-1.39-1.21c0-.18-.16-3.36,1.89-9.27a9.29,9.29,0,0,1-4.35,1.53h-.28a4.41,4.41,0,0,1-3-1.15,3.67,3.67,0,0,1-.58-.68l-.25.22a7.5,7.5,0,0,1-4.47,1.53,6.5,6.5,0,0,1-2.13-.36,4,4,0,0,1-2-1.64.61.61,0,0,1-.07-.14,4.67,4.67,0,0,1-.66,1.25c-.65.85-2,1.89-4.71,1.89-3.41,0-4.64-1.29-5.34-2.43a1.2,1.2,0,0,1,.62-1.71,1.64,1.64,0,0,1,.68-.15,1.46,1.46,0,0,1,1.29.69c.29.46.65,1.07,2.75,1.07,1.68,0,2.17-.61,2.29-.79.62-.75.7-2.1.33-4a18,18,0,0,0-1.11-3.49,16.89,16.89,0,0,1-1.39,1.78,37.67,37.67,0,0,1-4.43,4,1.5,1.5,0,0,1-1,.32h-.17a16.63,16.63,0,0,1-2.77,2.33,6.33,6.33,0,0,1-3.34,1.16,3.12,3.12,0,0,1-3.18-3c-2.05,2.1-3.94,3.24-5.62,3.35H614a3.5,3.5,0,0,1-2.91-1.5,3,3,0,0,1-.42-.84,8.35,8.35,0,0,1-4.06,2.09,6.36,6.36,0,0,1-1.31.14,2.16,2.16,0,0,1-.53,0,2.89,2.89,0,0,1-1.65-.71,2.79,2.79,0,0,1-.53-2.71,16.76,16.76,0,0,1,.86-2.49,16.34,16.34,0,0,0,.7-2,3.3,3.3,0,0,0,.16-.82,3.69,3.69,0,0,0-.57,0c-2.18.32-4.06,2.64-8.25,7.7a1.44,1.44,0,0,1-1.17.53,1.75,1.75,0,0,1-.75-.17,1.15,1.15,0,0,1-.54-1.64,29.87,29.87,0,0,0,2.55-5.81,8.21,8.21,0,0,0,.45-2.86,8.55,8.55,0,0,0-3.24,2,58.06,58.06,0,0,0-7.35,8.34,1.49,1.49,0,0,1-1.19.57,1.65,1.65,0,0,1-.65-.14,1.18,1.18,0,0,1-.74-1.53c0-.07,2.42-6,2.71-8.84A1.4,1.4,0,0,1,587,313h.15a1.33,1.33,0,0,1,1.31,1.39,17.65,17.65,0,0,1-.41,2.17,25.62,25.62,0,0,1,2.67-2.6c2.09-1.86,3.93-2.78,5.62-2.82h.11a2.37,2.37,0,0,1,1.94.93c.61.78.69,2,.33,3.81a8.27,8.27,0,0,1,4.55-2.39,7.31,7.31,0,0,1,.91-.06,3.18,3.18,0,0,1,2.37.85,2.92,2.92,0,0,1,.53,2.74,24.41,24.41,0,0,1-.9,2.54,16.64,16.64,0,0,0-.7,1.89,3.74,3.74,0,0,0-.12.71c.12,0,.33,0,.62-.07,2.66-.54,4.51-3.64,4.75-4.21a1.39,1.39,0,0,1,.47-.55,37.6,37.6,0,0,1,2.16-4.58,1.53,1.53,0,0,1,1.34-.73,1.72,1.72,0,0,1,.63.12,1.21,1.21,0,0,1,.66,1.71c-3.45,6.17-2.63,7.85-2.46,8.13s.37.29.49.29c.7,0,2.13-.82,4-2.82a25.45,25.45,0,0,0,3.9-5.49,1.46,1.46,0,0,1,1.33-.75,1.59,1.59,0,0,1,.6.11,1.18,1.18,0,0,1,.74,1.64,15.57,15.57,0,0,0-1.77,5.24c-.16,1.17.12,1.64.21,1.71h.06a3.58,3.58,0,0,0,1.74-.8A17.31,17.31,0,0,0,629,317a1.49,1.49,0,0,1,1.18-.53,1.69,1.69,0,0,1,.73.16,17.67,17.67,0,0,0,3.63-4.44,3.29,3.29,0,0,0,.37-.72c0-.14,0-.28,0-.43a1.92,1.92,0,0,1,.78-1.85,1.78,1.78,0,0,1,.92-.26m51.67,8.57c4.88-1,7-2.64,7.26-3.92a.92.92,0,0,0-.21-.93,1.78,1.78,0,0,0-.78-.14,4.21,4.21,0,0,0-.86.1,8.56,8.56,0,0,0-4.1,3.1,20,20,0,0,0-1.31,1.79m-35.69,4.68h.16c1.72,0,4.43-2,6.56-4.07.12-.32.29-.64.45-1,.53-1,1.39-2.32,2.63-2.36h.16a1.24,1.24,0,0,1-.9-1.42c.12-.47,0-.54-.17-.61a2.05,2.05,0,0,0-.94-.18,6.2,6.2,0,0,0-3.2,1,18.56,18.56,0,0,0-4.93,4.75,14.81,14.81,0,0,1-.79,1.43,3.72,3.72,0,0,0-.27,1,1.09,1.09,0,0,0,.33,1.07,1.2,1.2,0,0,0,.91.37m-16-15.25v0a3.69,3.69,0,0,0-2,.56,3.86,3.86,0,0,0-1.73,3.6l0,.05,0,.07a14.26,14.26,0,0,1-2.54,3.26h-.08a3.47,3.47,0,0,0-2.75,1.29,22,22,0,0,1-2,2.29c.23-.61.54-1.34,1-2.2a3.09,3.09,0,0,0,.13-2.49,3.36,3.36,0,0,0-1.94-1.9,3.72,3.72,0,0,0-1.32-.24,3.44,3.44,0,0,0-3.11,1.84,23.69,23.69,0,0,1-3.59,5c-.26.28-.51.52-.73.74a26.7,26.7,0,0,1,1.9-4,3.11,3.11,0,0,0,.26-2.48,3.45,3.45,0,0,0-1.83-2l-.06,0-.05,0a3.73,3.73,0,0,0-1.36-.26,3.52,3.52,0,0,0-3.07,1.73,42,42,0,0,0-2.12,4.41c-.12.14-.24.28-.34.42a4.47,4.47,0,0,0-1.19-3.7,5.14,5.14,0,0,0-3.8-1.45,8.39,8.39,0,0,0-1.2.09,9.12,9.12,0,0,0-2.31.65,4.51,4.51,0,0,0-.69-1.32,4.37,4.37,0,0,0-3.53-1.71h-.2c-2.05.05-4.21,1.05-6.56,3.06a3.56,3.56,0,0,0-2.36-1.2H587a3.4,3.4,0,0,0-3.44,2.9,43.2,43.2,0,0,1-2.51,8.19v0l0,.13a3.2,3.2,0,0,0,1.79,4.12,3.62,3.62,0,0,0,1.45.3,3.54,3.54,0,0,0,2.78-1.35,69.32,69.32,0,0,1,5.7-6.75,31.17,31.17,0,0,1-1.42,2.83,3,3,0,0,0-.35,2.35,3.34,3.34,0,0,0,1.65,2.08l0,0h0a3.65,3.65,0,0,0,1.63.38A3.5,3.5,0,0,0,597,325l.16-.2c1.38-1.66,2.51-3,3.46-4.09a.29.29,0,0,0,0,.09,4.66,4.66,0,0,0,1.07,4.62l.05,0,0,0a4.92,4.92,0,0,0,2.63,1.18,4.6,4.6,0,0,0,.86.06,8.11,8.11,0,0,0,1.7-.18,9.66,9.66,0,0,0,3.19-1.22,5.44,5.44,0,0,0,3.81,1.51h.41a8.91,8.91,0,0,0,4.81-2,4.86,4.86,0,0,0,1.58,1.21,5.39,5.39,0,0,0,2.29.5,8.35,8.35,0,0,0,4.41-1.47c.14-.09.28-.18.41-.28,1.42,2,3.58,2.91,6.73,2.91a7.92,7.92,0,0,0,5.7-2,6.92,6.92,0,0,0,1,.5l.06,0,0,0a8.52,8.52,0,0,0,2.79.47,9.34,9.34,0,0,0,4.47-1.16,6.45,6.45,0,0,0,3.87,1.24h.36a8.05,8.05,0,0,0,1.17-.13,23.51,23.51,0,0,0-.79,5.87v.12a3.4,3.4,0,0,0,3.3,3.09h.09a3.44,3.44,0,0,0,3.51-2.89,13.51,13.51,0,0,1,4.87-8.91l.3-.24a4.75,4.75,0,0,0,.48.85,5.49,5.49,0,0,0,4.55,2.35h.41a8.94,8.94,0,0,0,4.81-2,4.86,4.86,0,0,0,1.58,1.21,5.36,5.36,0,0,0,2.29.5,8.35,8.35,0,0,0,4.41-1.47l.19-.13a9.39,9.39,0,0,0,6.41,2.4,14.36,14.36,0,0,0,6.75-1.82,13.72,13.72,0,0,0,5.88-6v0l0,0a3.17,3.17,0,0,0,0-2.56,3.28,3.28,0,0,0-1.94-1.78,3.18,3.18,0,0,0-1-.21,2.25,2.25,0,0,0,0-.22,5.08,5.08,0,0,0-.27-3.29,5,5,0,0,0-2.15-2.48,6.91,6.91,0,0,0-3.41-.84,8.94,8.94,0,0,0-2.15.28,13.49,13.49,0,0,0-6.7,4.73,17.37,17.37,0,0,0-2.26,3.36,22.51,22.51,0,0,1-1.52,1.7c.23-.61.54-1.34,1-2.19a3.08,3.08,0,0,0,.13-2.49,3.36,3.36,0,0,0-1.94-1.9,3.76,3.76,0,0,0-1.32-.24,3.44,3.44,0,0,0-3.11,1.84,23.69,23.69,0,0,1-3.59,5c-.26.28-.51.52-.74.74a27.75,27.75,0,0,1,1.9-4,3,3,0,0,0,.26-2.48,3.4,3.4,0,0,0-1.82-2l-.06,0-.06,0a3.85,3.85,0,0,0-1.35-.25,3.52,3.52,0,0,0-3.07,1.73c-.74,1.35-1.36,2.61-1.86,3.77l-.25.1a1.55,1.55,0,0,0,0-.21,3.43,3.43,0,0,0,.52-1.07l0-.06v-.06a4.76,4.76,0,0,0-2.5-5.41,7,7,0,0,0-3.42-.81,11.38,11.38,0,0,0-6,1.85,23.29,23.29,0,0,0-4.86,4.21c-.39.46-.79,1-1.14,1.46a2.72,2.72,0,0,0-.53.74v0l0,0-.06.12v0c-.24.4-.46.8-.65,1.19a5,5,0,0,1-2.63,2.41c.26-.92,1.13-2.86,4-6.32a3.23,3.23,0,0,0,.67-2.58,3.16,3.16,0,0,0-1.49-2.13,3.58,3.58,0,0,0-1.92-.55,3.53,3.53,0,0,0-2.76,1.29c-.92,1.13-1.73,2.2-2.41,3.21-.17-.42-.36-.85-.56-1.28a.43.43,0,0,0,0-.12,3.66,3.66,0,0,0-1.28-3.91,3.54,3.54,0,0,0-2.18-.74Zm17.53,12.42a16.7,16.7,0,0,1,4.26-4.08l.19-.12c-.21.32-.41.66-.61,1l0,0,0,0-.13.28c-.06.13-.12.27-.19.4a17,17,0,0,1-3.68,2.78c.07-.12.13-.25.2-.38Zm-20.7,1.36c.7-.6,1.34-1.19,1.93-1.78a4.46,4.46,0,0,1,.06,2.08,2.76,2.76,0,0,1-.76.09,4.34,4.34,0,0,1-1-.1,2.9,2.9,0,0,0-.19-.29Z"/>
          </g>
          <g>
            <path class="cls-1" d="M713.84,326.29c-2.15,0-5.16-.83-6.53-3.17a5.54,5.54,0,0,1-.47-4.4,13.81,13.81,0,0,1,2.91-5.09,12.58,12.58,0,0,1,6.16-4.39,8.1,8.1,0,0,1,1.92-.25,5.93,5.93,0,0,1,2.91.71,4,4,0,0,1,1.74,2,2,2,0,0,1,.14.34,2.57,2.57,0,0,1,1.66-.6l.23,0a2.52,2.52,0,0,1,1.74.9,2.11,2.11,0,0,1,.48,1.13l.28-.23a9,9,0,0,1,5.49-2.2c2.07,0,3.56.57,4.44,1.7a4.35,4.35,0,0,1,.64,3.8,13.34,13.34,0,0,1-.82,2.48l-.45,1.11a5.91,5.91,0,0,0,2.25-2,12.71,12.71,0,0,0,1.24-2.05,2.43,2.43,0,0,1,2.28-1.42,2.63,2.63,0,0,1,.84.13,2.38,2.38,0,0,1,1.41,1.28,2.07,2.07,0,0,1,0,1.72h0a14.85,14.85,0,0,1-1.72,2.87,9.5,9.5,0,0,1-5.5,3.94,10.83,10.83,0,0,1-2.17.27h0a4.18,4.18,0,0,1-3-1.06,3.49,3.49,0,0,1-.79-3.59,14.32,14.32,0,0,1,.68-2l.16-.41a11.41,11.41,0,0,0,.82-2.19v0h-.31c-.77,0-3.21.83-9,8.55a2.58,2.58,0,0,1-2,1,2.18,2.18,0,0,1-1.08-.26,2.3,2.3,0,0,1-.4-.23A13.34,13.34,0,0,1,713.84,326.29Zm-2.08-5.2a3.27,3.27,0,0,0,2.08.67,8.57,8.57,0,0,0,7-4.21c0-.1.07-.2.1-.3C719.37,318.75,716.59,320.18,711.76,321.09Zm6-7.56a3,3,0,0,0-.6.08,7,7,0,0,0-3,2.17C716.57,315,717.57,314.06,717.81,313.53Z"/>
            <path class="cls-2" d="M717.83,310a4.85,4.85,0,0,1,2.41.58,3,3,0,0,1,1.31,1.53,3,3,0,0,1,.16,2c-.41,1.71-2.42,4.74-11.19,6.17a1.74,1.74,0,0,0,.24,1.14,3.77,3.77,0,0,0,3.08,1.32,9.61,9.61,0,0,0,7.92-4.81,23,23,0,0,0,1.06-4.32,1.43,1.43,0,0,1,1.46-1.15h.14a1.35,1.35,0,0,1,1.32,1.39c-.09.68-.25,1.5-.45,2.35a24.12,24.12,0,0,1,2.33-2.14,8.08,8.08,0,0,1,4.89-2c1.72,0,3,.43,3.65,1.32a3.41,3.41,0,0,1,.45,3,15.67,15.67,0,0,1-1,2.74c-.24.61-.49,1.21-.65,1.71a2.66,2.66,0,0,0-.13.61,7.52,7.52,0,0,0,1.32-.18,6,6,0,0,0,3.16-2.42,12.74,12.74,0,0,0,1.35-2.25,1.46,1.46,0,0,1,1.37-.83,1.57,1.57,0,0,1,.52.08,1.23,1.23,0,0,1,.82,1.64,12.87,12.87,0,0,1-1.6,2.68,8.5,8.5,0,0,1-4.93,3.56,9.11,9.11,0,0,1-1.95.25,3.24,3.24,0,0,1-2.31-.78,2.49,2.49,0,0,1-.53-2.57,18.25,18.25,0,0,1,.81-2.39,13.45,13.45,0,0,0,.87-2.32,1.62,1.62,0,0,0,0-1c-.09-.11-.41-.25-1.27-.25q-3.09,0-9.81,8.95a1.57,1.57,0,0,1-1.23.57,1.33,1.33,0,0,1-.61-.14,1.37,1.37,0,0,1-.68-.61l-.56.32a12.43,12.43,0,0,1-5.78,1.57c-1.89,0-4.51-.71-5.66-2.67a4.55,4.55,0,0,1-.37-3.64,12.88,12.88,0,0,1,2.71-4.71,11.48,11.48,0,0,1,5.66-4.06,6.42,6.42,0,0,1,1.65-.22m-6.25,7.53c4.88-1,7-2.64,7.26-3.92a.9.9,0,0,0-.2-.93,1.82,1.82,0,0,0-.78-.14,4.13,4.13,0,0,0-.86.1,8.57,8.57,0,0,0-4.11,3.1,20,20,0,0,0-1.31,1.79m6.25-9.53h0a8.87,8.87,0,0,0-2.15.28A13.49,13.49,0,0,0,709,313a14.69,14.69,0,0,0-3.11,5.47,6.5,6.5,0,0,0,.59,5.17c1.58,2.69,5,3.65,7.38,3.65A14.35,14.35,0,0,0,720,325.8h0a3.25,3.25,0,0,0,1.48.34,3.58,3.58,0,0,0,2.79-1.31l0,0,0,0c3.49-4.64,5.63-6.64,6.85-7.5a1,1,0,0,0,0,.1l0,.07,0,.07-.16.4a16.54,16.54,0,0,0-.73,2.19,4.44,4.44,0,0,0,1.1,4.53,5.08,5.08,0,0,0,3.68,1.33,11.77,11.77,0,0,0,2.38-.29,10.43,10.43,0,0,0,6.1-4.33,15.58,15.58,0,0,0,1.81-3.05h0a3.14,3.14,0,0,0,0-2.53,3.33,3.33,0,0,0-2-1.82,3.53,3.53,0,0,0-1.16-.19,3.44,3.44,0,0,0-3.21,2.05h0l-.19.38a5.1,5.1,0,0,0-.94-4c-1.09-1.4-2.85-2.1-5.23-2.1a9.28,9.28,0,0,0-5.34,1.85l-.14-.18a3.57,3.57,0,0,0-2.43-1.27l-.32,0a3.58,3.58,0,0,0-1.19.2,5.13,5.13,0,0,0-1.85-1.85,6.94,6.94,0,0,0-3.41-.84Z"/>
          </g>
          <g>
            <path class="cls-1" d="M755.32,326.47a5.75,5.75,0,0,1-4.8-2.31c-.95-1.35-1.16-3.21-.65-5.7a24.06,24.06,0,0,1,1.2-4,1.86,1.86,0,0,1-.7-.53,2,2,0,0,1-.39-1.55c.34-2,2-2.09,2.94-2.11a42.67,42.67,0,0,1,4.6-7.6,5.59,5.59,0,0,1,3.77-2,3,3,0,0,1,1.52.41,2.42,2.42,0,0,1,1.09,2.9,5.62,5.62,0,0,1-.84,1.58c-1.13,1.53-2.29,3.21-3.27,4.64l2.65-.07a2.4,2.4,0,0,1,2.44,2,2.36,2.36,0,0,1-2.21,2.5l-.43,0c-.79,0-2.88.13-6,.13h-.08a24.27,24.27,0,0,0-1.44,4.44c-.38,1.77-.09,2.32-.09,2.32s.21.31.73.31h.16c2.16-.15,5.31-2.5,6.47-4.83a2.52,2.52,0,0,1,2.27-1.32,2.56,2.56,0,0,1,.87.14,2.38,2.38,0,0,1,1.41,1.35,2.09,2.09,0,0,1-.1,1.73,13.72,13.72,0,0,1-4.41,5,12.38,12.38,0,0,1-6.18,2.47h-.51Z"/>
            <path class="cls-2" d="M761.29,301.74a1.88,1.88,0,0,1,1,.27,1.43,1.43,0,0,1,.66,1.75,5.06,5.06,0,0,1-.7,1.28c-1.6,2.17-3.28,4.67-4.39,6.27l4.43-.1h.15a1.41,1.41,0,0,1,1.45,1.15,1.37,1.37,0,0,1-1.31,1.39c-.25,0-2.46.14-6.36.14h-.74a27.47,27.47,0,0,0-1.76,5.24c-.45,2.11-.08,2.89.08,3.1a1.69,1.69,0,0,0,1.54.73h.22c2.51-.18,6-2.75,7.31-5.39a1.52,1.52,0,0,1,1.37-.76,1.71,1.71,0,0,1,.55.09,1.2,1.2,0,0,1,.74,1.67,13,13,0,0,1-4.1,4.64,11.42,11.42,0,0,1-5.66,2.28h-.45a4.74,4.74,0,0,1-4-1.89c-.78-1.11-.94-2.71-.49-4.92a25.72,25.72,0,0,1,1.6-4.92,1.39,1.39,0,0,1-.41,0c-.82-.07-1.15-.46-1.07-1.17.25-1.43,1.52-1.18,2.58-1.25a43.24,43.24,0,0,1,4.72-7.92,4.62,4.62,0,0,1,3-1.62m0-2h0a6.51,6.51,0,0,0-4.51,2.29,41.22,41.22,0,0,0-4.5,7.3,3.34,3.34,0,0,0-3.28,2.86v.11a3,3,0,0,0,.62,2.3,2.17,2.17,0,0,0,.26.27,23.55,23.55,0,0,0-1,3.39c-.57,2.77-.3,4.89.81,6.47a6.76,6.76,0,0,0,5.62,2.74h.57a13.29,13.29,0,0,0,6.71-2.65,14.92,14.92,0,0,0,4.73-5.38,3.09,3.09,0,0,0,.12-2.51,3.35,3.35,0,0,0-1.94-1.91h0l0,0a3.2,3.2,0,0,0-.61-.15,3.25,3.25,0,0,0,1.07-2.6v-.12a3.4,3.4,0,0,0-3.44-2.91h-.71c.69-1,1.42-2,2.13-3a6.83,6.83,0,0,0,1-1.81v-.07a3.44,3.44,0,0,0-1.57-4.06,3.84,3.84,0,0,0-2-.54Zm-4.47,16.14c2.28,0,4-.07,4.91-.1a3.3,3.3,0,0,0-.65.87c-1.06,2.14-3.92,4.11-5.58,4.29a7,7,0,0,1,.17-1.4,21.79,21.79,0,0,1,1.15-3.66Z"/>
          </g>
          <g>
            <path class="cls-1" d="M836.92,326.65c-3.95,0-5.42-1.66-6.18-2.91a2,2,0,0,1-.22-.5,13,13,0,0,1-1.26.93,7.32,7.32,0,0,1-3.88,1.32,4.36,4.36,0,0,1-1.85-.4,4,4,0,0,1-1.82-1.78,8.9,8.9,0,0,1-5.07,2.51h-.35a4.48,4.48,0,0,1-3.65-1.81,8.89,8.89,0,0,1-3.56,1.54,6.7,6.7,0,0,1-1.5.16,3.25,3.25,0,0,1-.74-.06,3.83,3.83,0,0,1-2.09-.94,3.78,3.78,0,0,1-.83-3.74,14.85,14.85,0,0,1,.82-2.4l.07-.19c.15-.34.29-.7.41-1.06-1.53.81-3.37,3-6.5,6.82l-.17.21a2.48,2.48,0,0,1-1.95.89,2.87,2.87,0,0,1-1.19-.27,2.37,2.37,0,0,1-1.2-1.47,2.06,2.06,0,0,1,.27-1.62,28.09,28.09,0,0,0,2.43-5.55c.09-.34.17-.64.23-.9a12.44,12.44,0,0,0-1.41,1.09,57.16,57.16,0,0,0-7.2,8.19,2.52,2.52,0,0,1-2,1,2.67,2.67,0,0,1-1-.22,2.82,2.82,0,0,1-.42-.23,8.15,8.15,0,0,1-3.78.92,4.43,4.43,0,0,1-3.61-1.41,10.45,10.45,0,0,1-5,1.76h-.24a5.44,5.44,0,0,1-3.81-1.45,4.4,4.4,0,0,1-1.37-3.86c.18-1.64,1.14-3.5,2.93-5.63a22.23,22.23,0,0,1,4.67-4.09,10.57,10.57,0,0,1,5.47-1.66,6.28,6.28,0,0,1,3,.7,3.78,3.78,0,0,1,1.93,4.35,2.11,2.11,0,0,1-.66,1.13c.62,1.46-.4,2.9-1.5,4.12a8.11,8.11,0,0,1-.77.81c0,.09-.22.48-.26.58,1.21-.35,2.49-1.51,3.81-3.45a22,22,0,0,0,1-4,2.4,2.4,0,0,1,2.45-2.05h.23a2.51,2.51,0,0,1,1.75.91,2.25,2.25,0,0,1,.43.86c.22-.21.44-.4.67-.58,2.25-2,4.3-3,6.23-3.05h.14a3.36,3.36,0,0,1,2.74,1.33,3.86,3.86,0,0,1,.74,2.21,8.16,8.16,0,0,1,3.19-1.17,6.55,6.55,0,0,1,1.06-.08,4.16,4.16,0,0,1,3.08,1.15,3.79,3.79,0,0,1,.82,3.53l0,.17a21.29,21.29,0,0,1-.77,2.19l-.17.44c-.13.31-.24.6-.34.85a8.42,8.42,0,0,0,3-3.28,2.39,2.39,0,0,1,.55-.75,38.07,38.07,0,0,1,2.12-4.46,2.54,2.54,0,0,1,2.22-1.25,2.6,2.6,0,0,1,1,.19,2.44,2.44,0,0,1,1.35,1.44,2.08,2.08,0,0,1-.19,1.7c-2.36,4.24-2.57,6.13-2.52,6.81a10.63,10.63,0,0,0,3-2.4,24.48,24.48,0,0,0,3.73-5.24,2.48,2.48,0,0,1,2.23-1.31,2.75,2.75,0,0,1,.95.17,2.31,2.31,0,0,1,1.37,1.33,2,2,0,0,1-.1,1.7,14.77,14.77,0,0,0-1.66,4.87q0,.18,0,.33c.14-.08.3-.18.47-.3a16.44,16.44,0,0,0,3.93-3.93,2.46,2.46,0,0,1,2-.92,2.28,2.28,0,0,1,.45,0,16.16,16.16,0,0,0,3-3.81c.09-.15.16-.27.22-.39a2.65,2.65,0,0,1,0-.27,2.85,2.85,0,0,1,1.26-2.71,2.73,2.73,0,0,1,1.43-.4,2.58,2.58,0,0,1,1.6.55c.9.65,1.19,1.73.83,3.19l.18.44a29,29,0,0,1,1.69,4.65c.29-.4.61-.81,1-1.22a22.45,22.45,0,0,1,4.66-4.09,10.57,10.57,0,0,1,5.47-1.66,6.23,6.23,0,0,1,3,.7,3.76,3.76,0,0,1,1.93,4.35,2,2,0,0,1-.66,1.13c.63,1.46-.4,2.9-1.5,4.12a6.92,6.92,0,0,1-.77.81c0,.09-.22.48-.26.58a7.34,7.34,0,0,0,3.49-3,25.08,25.08,0,0,0,1.3-5,2.42,2.42,0,0,1,2.45-2l.24,0a2.54,2.54,0,0,1,1.74.9,2.19,2.19,0,0,1,.48,1.13l.28-.23a9,9,0,0,1,5.49-2.2c2.06,0,3.55.57,4.44,1.7a4.38,4.38,0,0,1,.64,3.8,13.48,13.48,0,0,1-.83,2.49l-.44,1.1a5.89,5.89,0,0,0,2.24-2,11.18,11.18,0,0,0,1.24-2.05c0-.08.08-.16.13-.24.15-.47.32-.95.52-1.45a1.78,1.78,0,0,1-.7-.53,2,2,0,0,1-.39-1.55c.34-2,2-2.09,2.94-2.11a42.45,42.45,0,0,1,4.6-7.6,5.59,5.59,0,0,1,3.77-2,3,3,0,0,1,1.52.41,2.42,2.42,0,0,1,1.09,2.9,5.4,5.4,0,0,1-.85,1.58c-1.12,1.53-2.27,3.2-3.26,4.64l2.65-.07a2.4,2.4,0,0,1,2.44,2,2.36,2.36,0,0,1-2.21,2.5l-.43,0c-.79,0-2.88.13-6,.13h-.08a24.27,24.27,0,0,0-1.44,4.44,4,4,0,0,0-.09,2.32c.09.13.21.31.73.31h.16c2.16-.15,5.31-2.5,6.47-4.83a2.52,2.52,0,0,1,2.27-1.32,2.56,2.56,0,0,1,.87.14,2.38,2.38,0,0,1,1.41,1.35,2.09,2.09,0,0,1-.1,1.73,13.81,13.81,0,0,1-4.41,5,12.38,12.38,0,0,1-6.18,2.47h-.51a5.75,5.75,0,0,1-4.8-2.31,4.94,4.94,0,0,1-.3-.49,7.92,7.92,0,0,1-2.49,1,10.72,10.72,0,0,1-2.16.27,4.18,4.18,0,0,1-3-1.06,3.46,3.46,0,0,1-.79-3.59,13.16,13.16,0,0,1,.68-2l.16-.41a12.94,12.94,0,0,0,.82-2.19v0h-.31c-.78,0-3.21.83-9,8.55a2.58,2.58,0,0,1-2,1,2.3,2.3,0,0,1-1-.19,8.17,8.17,0,0,1-4.27,1.19,4.43,4.43,0,0,1-3.61-1.42,10.34,10.34,0,0,1-5,1.77h-.25a5.46,5.46,0,0,1-3.81-1.45,3.33,3.33,0,0,1-.36-.39A6.77,6.77,0,0,1,836.92,326.65Zm-2.73-5.95a2.39,2.39,0,0,1,.85.85c.16.25.36.57,1.88.57,1.2,0,1.48-.35,1.48-.36.23-.28.6-1,.17-3.19a15.41,15.41,0,0,0-.43-1.64l-.34.39A37.63,37.63,0,0,1,834.19,320.7Zm20.09-6.35a5.34,5.34,0,0,0-2.71.88c-2.33,1.45-5.34,4.71-5.53,6.43a.52.52,0,0,0,0,.22.24.24,0,0,0,.22.1h.12c1.23-.05,3.52-1.49,5.72-3.61a1.09,1.09,0,0,0,.08-.15c.06-.11.12-.22.19-.33l.23-.44a7.31,7.31,0,0,1,1.09-1.67,4.27,4.27,0,0,1,.75-.68,2.11,2.11,0,0,1-.14-.74Zm-73.94,0a5.44,5.44,0,0,0-2.71.88c-2.33,1.46-5.33,4.71-5.52,6.43a.52.52,0,0,0,0,.22.24.24,0,0,0,.22.1h.12c1.23-.05,3.51-1.49,5.72-3.61l.08-.15c.06-.11.11-.22.18-.33l.23-.44a8,8,0,0,1,1.09-1.67,4.27,4.27,0,0,1,.75-.68,2.35,2.35,0,0,1-.13-.74Z"/>
            <path class="cls-2" d="M889.63,301.74a1.88,1.88,0,0,1,1,.27,1.43,1.43,0,0,1,.66,1.75,5.06,5.06,0,0,1-.7,1.28c-1.6,2.17-3.28,4.67-4.39,6.27l4.43-.1h.15a1.41,1.41,0,0,1,1.45,1.15,1.37,1.37,0,0,1-1.31,1.39c-.25,0-2.46.14-6.36.14h-.74a27.47,27.47,0,0,0-1.76,5.24c-.45,2.11-.08,2.89.08,3.1a1.69,1.69,0,0,0,1.54.73h.22c2.51-.18,6-2.75,7.31-5.39a1.52,1.52,0,0,1,1.37-.76,1.71,1.71,0,0,1,.55.09,1.2,1.2,0,0,1,.74,1.67,13,13,0,0,1-4.1,4.64,11.42,11.42,0,0,1-5.66,2.28h-.45a4.74,4.74,0,0,1-4-1.89,4.07,4.07,0,0,1-.63-1.52,7.17,7.17,0,0,1-3.19,1.66,9.11,9.11,0,0,1-2,.25,3.26,3.26,0,0,1-2.32-.78,2.54,2.54,0,0,1-.53-2.57,17,17,0,0,1,.82-2.39,12.58,12.58,0,0,0,.86-2.32,1.53,1.53,0,0,0,0-1c-.08-.11-.41-.25-1.27-.25-2.05,0-5.33,3-9.8,8.95a1.57,1.57,0,0,1-1.23.57,1.37,1.37,0,0,1-.62-.14,1.63,1.63,0,0,1-.35-.23,7.29,7.29,0,0,1-4.25,1.37,3.41,3.41,0,0,1-2.91-1.14,4.29,4.29,0,0,1-.33-.72,10.65,10.65,0,0,1-5.41,2.21h-.21a4.46,4.46,0,0,1-3.12-1.17,3.45,3.45,0,0,1-1-1.71,4.65,4.65,0,0,1-.62,1.14c-.66.85-2,1.89-4.72,1.89-3.4,0-4.63-1.29-5.33-2.43a1.2,1.2,0,0,1,.62-1.71,1.6,1.6,0,0,1,.68-.15,1.47,1.47,0,0,1,1.29.69c.28.46.65,1.07,2.74,1.07,1.69,0,2.18-.61,2.3-.79.62-.75.7-2.1.33-4a19.46,19.46,0,0,0-1.11-3.49,16.89,16.89,0,0,1-1.39,1.78,38.49,38.49,0,0,1-4.43,4,1.53,1.53,0,0,1-1,.32h-.17a16.2,16.2,0,0,1-2.76,2.33,6.33,6.33,0,0,1-3.34,1.16,3.14,3.14,0,0,1-1.42-.31,3.21,3.21,0,0,1-1.77-2.7c-2.05,2.1-3.93,3.24-5.62,3.35h-.28a3.53,3.53,0,0,1-2.92-1.5,3.28,3.28,0,0,1-.41-.84,8.35,8.35,0,0,1-4.06,2.09,6.43,6.43,0,0,1-1.31.14,2.28,2.28,0,0,1-.54,0,2.89,2.89,0,0,1-1.64-.71,2.76,2.76,0,0,1-.53-2.71,15.69,15.69,0,0,1,.86-2.49,18.28,18.28,0,0,0,.7-2,3.33,3.33,0,0,0,.16-.81,4.82,4.82,0,0,0-.57,0c-2.18.32-4.06,2.64-8.25,7.7a1.45,1.45,0,0,1-1.18.53,1.82,1.82,0,0,1-.75-.17,1.15,1.15,0,0,1-.53-1.64,29.2,29.2,0,0,0,2.54-5.81,8,8,0,0,0,.45-2.86,8.63,8.63,0,0,0-3.24,2,58.11,58.11,0,0,0-7.34,8.34,1.49,1.49,0,0,1-1.19.57,1.7,1.7,0,0,1-.66-.14,1.36,1.36,0,0,1-.64-.56,7.27,7.27,0,0,1-4,1.17,3.41,3.41,0,0,1-2.91-1.14,3.62,3.62,0,0,1-.33-.72,10.69,10.69,0,0,1-5.42,2.21h-.2a4.46,4.46,0,0,1-3.12-1.17,3.41,3.41,0,0,1-1.07-3c.21-1.89,1.6-3.81,2.71-5.13a21.52,21.52,0,0,1,4.43-3.89,9.58,9.58,0,0,1,4.94-1.5,5.28,5.28,0,0,1,2.53.58,2.76,2.76,0,0,1,1.43,3.24,1.39,1.39,0,0,1-1.39,1h-.08a2.06,2.06,0,0,1,.82.64c.41.78,0,1.71-1.28,3.17a8,8,0,0,1-.86.89c-.16.4-.37.79-.49,1.15a2.28,2.28,0,0,0-.16,1.1s.2,0,.45,0c1.84,0,3.64-1.36,5.5-4.13a23.17,23.17,0,0,0,1.06-4.32,1.42,1.42,0,0,1,1.46-1.15h.14a1.34,1.34,0,0,1,1.32,1.39,19.76,19.76,0,0,1-.41,2.17A26.62,26.62,0,0,1,793,314c2.09-1.86,3.94-2.78,5.62-2.82h.12a2.35,2.35,0,0,1,1.93.93c.62.78.7,2,.33,3.81a8.3,8.3,0,0,1,4.56-2.39,7.31,7.31,0,0,1,.91-.06,3.19,3.19,0,0,1,2.37.85,3,3,0,0,1,.53,2.74,24.41,24.41,0,0,1-.9,2.54,14.92,14.92,0,0,0-.7,1.89,3.74,3.74,0,0,0-.12.71c.12,0,.32,0,.61-.07,2.67-.54,4.52-3.64,4.76-4.21a1.39,1.39,0,0,1,.47-.55,37.6,37.6,0,0,1,2.16-4.58,1.52,1.52,0,0,1,1.34-.73,1.72,1.72,0,0,1,.63.12,1.21,1.21,0,0,1,.66,1.71c-3.45,6.17-2.63,7.85-2.46,8.13s.36.29.49.29c.7,0,2.13-.82,4-2.82a25.39,25.39,0,0,0,3.89-5.49,1.48,1.48,0,0,1,1.34-.75,1.51,1.51,0,0,1,.59.11,1.17,1.17,0,0,1,.74,1.64,15.71,15.71,0,0,0-1.76,5.24c-.17,1.17.12,1.64.2,1.71h.07a3.62,3.62,0,0,0,1.74-.8A17.31,17.31,0,0,0,831.3,317a1.49,1.49,0,0,1,1.18-.53,1.75,1.75,0,0,1,.73.16,17.9,17.9,0,0,0,3.63-4.44,3.29,3.29,0,0,0,.37-.72c0-.14,0-.28,0-.43a1.92,1.92,0,0,1,.78-1.85,1.72,1.72,0,0,1,.91-.26,1.59,1.59,0,0,1,1,.33c.74.54.69,1.46.41,2.43a5.93,5.93,0,0,0,.28.78,21.06,21.06,0,0,1,2.11,7.18,14.3,14.3,0,0,1,2.24-3.47,21.82,21.82,0,0,1,4.44-3.89,9.55,9.55,0,0,1,4.93-1.5,5.25,5.25,0,0,1,2.53.58,2.77,2.77,0,0,1,1.44,3.24,1.39,1.39,0,0,1-1.4,1h-.08a1.93,1.93,0,0,1,.82.64c.41.78,0,1.71-1.27,3.17a9.1,9.1,0,0,1-.86.89c-.17.4-.37.79-.49,1.15a2.22,2.22,0,0,0-.17,1.1,1.07,1.07,0,0,0,.45,0c1.73,0,3.43-1.21,5.17-3.65a27.93,27.93,0,0,0,1.4-5.34,1.42,1.42,0,0,1,1.45-1.15h.15a1.34,1.34,0,0,1,1.31,1.39,19.89,19.89,0,0,1-.45,2.35,23,23,0,0,1,2.34-2.14,8,8,0,0,1,4.88-2c1.72,0,2.95.43,3.65,1.32a3.35,3.35,0,0,1,.45,3,14.83,14.83,0,0,1-.94,2.74c-.25.61-.49,1.21-.66,1.71a2.51,2.51,0,0,0-.12.61,7.56,7.56,0,0,0,1.31-.18,5.88,5.88,0,0,0,3.16-2.42,12.74,12.74,0,0,0,1.35-2.25,1.59,1.59,0,0,1,.13-.22c.26-.82.59-1.7,1-2.63a1.39,1.39,0,0,1-.41,0c-.83-.07-1.15-.46-1.07-1.17.24-1.43,1.52-1.18,2.58-1.25a43.24,43.24,0,0,1,4.72-7.92,4.62,4.62,0,0,1,3-1.62M846.28,323h.16c1.73-.07,4.35-1.92,6.48-4,.13-.21.21-.39.33-.61l.25-.46a6.58,6.58,0,0,1,.94-1.46,2.2,2.2,0,0,1,1.68-.89h.13a1.29,1.29,0,0,1-.9-1.43c.12-.46-.05-.57-.17-.61a2,2,0,0,0-.9-.17,6.3,6.3,0,0,0-3.24,1c-2.34,1.46-5.75,4.92-6,7.17a1.23,1.23,0,0,0,.33,1.07,1.18,1.18,0,0,0,.9.36m-73.93,0h.16c1.72-.07,4.35-1.92,6.48-4,.12-.21.21-.39.33-.61l.24-.46a6.58,6.58,0,0,1,1-1.46,2.17,2.17,0,0,1,1.68-.89h.12a1.31,1.31,0,0,1-.9-1.43c.12-.46,0-.57-.16-.61a2.1,2.1,0,0,0-.91-.17,6.3,6.3,0,0,0-3.24,1c-2.33,1.46-5.74,4.92-6,7.17a1.27,1.27,0,0,0,.33,1.07,1.21,1.21,0,0,0,.91.36m117.28-23.24h0a6.51,6.51,0,0,0-4.51,2.29,41.22,41.22,0,0,0-4.5,7.3,3.34,3.34,0,0,0-3.28,2.86v.11a3.32,3.32,0,0,0,0,1,5.15,5.15,0,0,0-.64-1.11q-1.65-2.1-5.24-2.1a9.25,9.25,0,0,0-5.33,1.85l-.15-.18a3.55,3.55,0,0,0-2.42-1.27l-.33,0a3.47,3.47,0,0,0-3.15,1.93,4.85,4.85,0,0,0-2.34-2.78,7.3,7.3,0,0,0-3.5-.82,11.46,11.46,0,0,0-6,1.81,23.21,23.21,0,0,0-4.68,4.05c-.32-.93-.72-1.92-1.19-3l0-.11a3.66,3.66,0,0,0-1.28-3.91,3.55,3.55,0,0,0-2.19-.74,3.79,3.79,0,0,0-2,.56,3.87,3.87,0,0,0-1.72,3.6l0,.05,0,.07a14.56,14.56,0,0,1-2.54,3.26h-.08a3.47,3.47,0,0,0-2.75,1.29,23.23,23.23,0,0,1-2,2.29c.23-.61.54-1.34,1-2.2a3.08,3.08,0,0,0,.13-2.49,3.36,3.36,0,0,0-1.94-1.9,3.76,3.76,0,0,0-1.32-.24,3.46,3.46,0,0,0-3.12,1.84,23.27,23.27,0,0,1-3.58,5c-.26.28-.51.52-.74.74a27.75,27.75,0,0,1,1.9-4,3.07,3.07,0,0,0,.26-2.48,3.4,3.4,0,0,0-1.82-2l-.06,0-.06,0a3.64,3.64,0,0,0-1.35-.26,3.52,3.52,0,0,0-3.07,1.73,40.1,40.1,0,0,0-2.12,4.41,4.18,4.18,0,0,0-.34.42,4.47,4.47,0,0,0-1.19-3.7,5.14,5.14,0,0,0-3.8-1.45,8.28,8.28,0,0,0-1.2.09,9.31,9.31,0,0,0-2.32.65,4.29,4.29,0,0,0-.69-1.32,4.34,4.34,0,0,0-3.52-1.71h-.2c-2,.05-4.21,1.05-6.56,3.06a3.59,3.59,0,0,0-2.36-1.2h-.33a3.48,3.48,0,0,0-3.06,1.74,4.83,4.83,0,0,0-2.44-3.13,7.26,7.26,0,0,0-3.49-.82,11.46,11.46,0,0,0-6,1.81,23.1,23.1,0,0,0-4.87,4.26c-2,2.31-3,4.33-3.19,6.21a5.32,5.32,0,0,0,1.67,4.68,6.43,6.43,0,0,0,4.5,1.73h.28a10.73,10.73,0,0,0,4.82-1.52,5.78,5.78,0,0,0,3.76,1.17,9.12,9.12,0,0,0,3.75-.8l.05,0a3.76,3.76,0,0,0,1.45.3,3.54,3.54,0,0,0,2.78-1.35,69.43,69.43,0,0,1,5.69-6.75,28.66,28.66,0,0,1-1.41,2.83,3,3,0,0,0-.36,2.35,3.36,3.36,0,0,0,1.66,2.08l0,0h0a3.68,3.68,0,0,0,1.63.38,3.51,3.51,0,0,0,2.74-1.27l.16-.2c1.37-1.66,2.5-3,3.46-4.09l0,.09A4.64,4.64,0,0,0,804,325.4l0,0,.05,0a4.92,4.92,0,0,0,2.63,1.18,4.6,4.6,0,0,0,.86.06,8.19,8.19,0,0,0,1.7-.18,9.52,9.52,0,0,0,3.18-1.22,5.48,5.48,0,0,0,3.82,1.51h.41a8.88,8.88,0,0,0,4.8-2,5,5,0,0,0,1.59,1.21,5.36,5.36,0,0,0,2.29.5,8.35,8.35,0,0,0,4.41-1.47l.41-.28c1.42,2,3.57,2.91,6.72,2.91a8.2,8.2,0,0,0,5.24-1.61,6.5,6.5,0,0,0,4.2,1.46h.28a10.8,10.8,0,0,0,4.83-1.52,5.73,5.73,0,0,0,3.75,1.17,9.15,9.15,0,0,0,4.38-1.1,3.33,3.33,0,0,0,.84.1,3.56,3.56,0,0,0,2.78-1.31l0,0,0,0c3.48-4.64,5.63-6.64,6.85-7.5l0,.1,0,.07,0,.07-.15.4a16.58,16.58,0,0,0-.74,2.19,4.47,4.47,0,0,0,1.1,4.53,5.1,5.1,0,0,0,3.69,1.33,11.66,11.66,0,0,0,2.37-.29,8.62,8.62,0,0,0,2-.69,6.78,6.78,0,0,0,5.42,2.48h.57a13.29,13.29,0,0,0,6.71-2.65,14.92,14.92,0,0,0,4.73-5.38,3.09,3.09,0,0,0,.12-2.51,3.35,3.35,0,0,0-1.94-1.91h0l0,0a3.2,3.2,0,0,0-.61-.15,3.25,3.25,0,0,0,1.07-2.6v-.12a3.4,3.4,0,0,0-3.44-2.91h-.71c.69-1,1.42-2,2.13-3a6.83,6.83,0,0,0,1-1.81v-.07a3.43,3.43,0,0,0-1.57-4.06,3.84,3.84,0,0,0-2-.54Zm-12,16.45a6,6,0,0,0-.06-2.16,2.23,2.23,0,0,0,.36.57,1.63,1.63,0,0,0,.26.27l-.23.66a2.39,2.39,0,0,0-.13.28h0l-.2.38Zm7.52-.31c2.28,0,4-.07,4.91-.1a3.3,3.3,0,0,0-.65.87c-1.06,2.14-3.92,4.11-5.58,4.29a7,7,0,0,1,.17-1.4,21.79,21.79,0,0,1,1.15-3.66Zm-111.54,4.68a16.71,16.71,0,0,1,4.54-4.48l.23-.14a10.46,10.46,0,0,0-.61,1.07l-.21.4-.19.34h0a17.34,17.34,0,0,1-3.76,2.81Zm73.94,0a16.56,16.56,0,0,1,4.54-4.48l.22-.14c-.2.32-.41.67-.61,1.07l-.21.4c-.07.12-.12.23-.18.34h0a17.58,17.58,0,0,1-3.76,2.81Zm-11.86.17c.7-.6,1.33-1.19,1.92-1.78a4.15,4.15,0,0,1,.06,2.08,2.7,2.7,0,0,1-.76.09,4.22,4.22,0,0,1-1-.1,2.9,2.9,0,0,0-.19-.29Z"/>
          </g>
          <g>
            <path class="cls-1" d="M906.8,320.37a2.38,2.38,0,0,1-2.43-2c-.44-3.3,1-7.68,2.38-11.91,1-3.18,2.19-6.78,2-8.73a2.35,2.35,0,0,1,2.26-2.44h.16a2.43,2.43,0,0,1,2.48,2.07c.26,2.72-.9,6.31-2.13,10.12l-.14.43c-1.21,3.73-2.46,7.58-2.13,9.88a2.2,2.2,0,0,1-.48,1.68,2.48,2.48,0,0,1-1.69.89h-.29Z"/>
            <path class="cls-2" d="M911.18,296.3a1.43,1.43,0,0,1,1.48,1.18c.25,2.57-.94,6.17-2.17,10s-2.58,7.92-2.22,10.49a1.33,1.33,0,0,1-1.27,1.42h-.2a1.4,1.4,0,0,1-1.44-1.1c-.41-3.07,1-7.35,2.34-11.48,1.11-3.43,2.26-7,2-9.13a1.37,1.37,0,0,1,1.35-1.36h.08m0-2h-.25a3.35,3.35,0,0,0-3.17,3.47v.07c.17,1.74-1,5.39-2,8.32-1.42,4.34-2.89,8.83-2.42,12.36a3.37,3.37,0,0,0,3.42,2.84h.39a3.43,3.43,0,0,0,2.36-1.25,3.16,3.16,0,0,0,.71-2.39v-.06c-.29-2.07,1-6,2.09-9.42l0-.16.1-.3c1.26-3.89,2.44-7.58,2.16-10.49a3.42,3.42,0,0,0-3.47-3Z"/>
          </g>
          <g>
            <path class="cls-1" d="M906.26,325a3.06,3.06,0,0,1-3.14-2,2.28,2.28,0,0,1,.28-1.79,3.82,3.82,0,0,1,2.45-1.59,5.06,5.06,0,0,1,.84-.08,3.09,3.09,0,0,1,3.16,2,2.28,2.28,0,0,1-.3,1.84,3.63,3.63,0,0,1-2.44,1.54,4.14,4.14,0,0,1-.85.08Z"/>
            <path class="cls-2" d="M906.69,320.56a2.16,2.16,0,0,1,2.2,1.27c.25.93-.66,1.89-2,2.14a3.77,3.77,0,0,1-.66.06,2.09,2.09,0,0,1-2.17-1.27c-.25-.93.66-1.86,2-2.14a3.44,3.44,0,0,1,.63-.06m0-2a5.52,5.52,0,0,0-1,.09h-.07a4.71,4.71,0,0,0-3.08,2,3.27,3.27,0,0,0-.39,2.56,4,4,0,0,0,4.1,2.76,5.86,5.86,0,0,0,1-.09,4.66,4.66,0,0,0,3.12-2,3.26,3.26,0,0,0,.42-2.62,4.06,4.06,0,0,0-4.13-2.76Z"/>
          </g>
          <g>
            <path class="cls-1" d="M648.36,308.82a2.61,2.61,0,0,1-1.32-.35,2.21,2.21,0,0,1-1.12-1.9,2.34,2.34,0,0,1,.41-1.29l.08-.12.09-.08.08-.12,0,0a2.61,2.61,0,0,1,2-.89,2.69,2.69,0,0,1,1.34.36,2.27,2.27,0,0,1,1.07,1.52,2.16,2.16,0,0,1-.43,1.71l-.12.16-.09.13A2.55,2.55,0,0,1,648.36,308.82Z"/>
            <path class="cls-2" d="M648.6,305a1.58,1.58,0,0,1,.82.22,1.16,1.16,0,0,1,.37,1.75l-.16.21,0,.08a1.57,1.57,0,0,1-1.23.53,1.64,1.64,0,0,1-.82-.21,1.23,1.23,0,0,1-.62-1,1.32,1.32,0,0,1,.25-.75l.08-.07.12-.18a1.65,1.65,0,0,1,1.23-.54m0-2a3.6,3.6,0,0,0-2.74,1.24l-.07.08,0,.06-.1.08-.16.24a3.32,3.32,0,0,0-.57,1.84,3.21,3.21,0,0,0,1.57,2.74,3.71,3.71,0,0,0,1.87.51,3.54,3.54,0,0,0,2.78-1.28l.1-.12,0-.09.09-.12a3.09,3.09,0,0,0,.62-2.48,3.25,3.25,0,0,0-1.55-2.19,3.6,3.6,0,0,0-1.85-.51Z"/>
          </g>
          <g>
            <path class="cls-1" d="M769.32,303.1a2.6,2.6,0,0,1-.86-2.93c.54-1.58,2.44-3.34,4.15-3.34a2.33,2.33,0,0,1,2.23,2.94l0,.09-.34.58-.34.13a9.2,9.2,0,0,0-2.83,1.91l-1.3,1.23Z"/>
            <path class="cls-2" d="M772.61,297.83a1.55,1.55,0,0,1,.43.07,1.33,1.33,0,0,1,.85,1.54l-.11.19a10,10,0,0,0-3.16,2.12l-.64.6a1.6,1.6,0,0,1-.57-1.85,4.2,4.2,0,0,1,3.2-2.67m0-2c-2.22,0-4.43,2.08-5.09,4a3.59,3.59,0,0,0,1.13,4l1.37,1.21,1.33-1.25.64-.61a7.87,7.87,0,0,1,2.49-1.69l.68-.26.36-.62.1-.19.1-.16.06-.18a3.33,3.33,0,0,0-2.09-4.09,3.26,3.26,0,0,0-1.08-.18Z"/>
          </g>
        </g>
        <g>
          <path class="cls-3" d="M0,236.31a354.74,354.74,0,0,0,93.63-21.64,355.58,355.58,0,0,0,43.77-20l21-11.73Q169,177,179.42,171,263,123,342,67.53h0a476.74,476.74,0,0,1,92.13-41c8-2.55,16.09-5,24.23-7.12s16.34-4.07,24.59-5.77a503.9,503.9,0,0,1,50-7.34C566.46,3.09,600.05.67,633.71.13s67.32.5,100.87,3Q684.24-.39,633.72.63C600.08,1.22,566.5,3.7,533,6.92a498.34,498.34,0,0,0-49.87,7.42q-12.35,2.55-24.53,5.8c-8.12,2.15-16.17,4.58-24.18,7.14a480,480,0,0,0-91.89,41.08l0,0q-79,55.29-162.85,103.25-10.45,6-21,11.86l-21.08,11.69a353.13,353.13,0,0,1-43.88,20A355.08,355.08,0,0,1,0,236.31Z"/>
          <path class="cls-3" d="M0,236.31a244,244,0,0,0,102.88,2.38A241.53,241.53,0,0,0,128,232.38c8.25-2.54,16.37-5.51,24.43-8.61s16.08-6.34,23.86-10.11,15.39-7.83,22.91-12.08c15-8.54,29.81-17.51,44.61-26.45l44.3-27,22.07-13.61,11-6.86c3.67-2.31,7.48-4.38,11.26-6.47,15.15-8.35,30.49-16.37,46.21-23.62,7.84-3.66,15.8-7.06,23.79-10.38S418.53,80.82,426.7,78a506.88,506.88,0,0,1,49.71-14.89A429.41,429.41,0,0,1,527.48,54c17.19-2.08,34.45-3.29,51.7-4.48q51.74-3.7,103.69-2.77c34.58.65,69.13,2.86,103.52,6.43q-51.61-5.12-103.53-6t-103.64,3c-17.24,1.21-34.49,2.45-51.64,4.55a427.27,427.27,0,0,0-51,9.2A507,507,0,0,0,427,78.83c-8.15,2.86-16.19,6-24.2,9.27s-15.91,6.74-23.73,10.4c-15.71,7.2-31,15.19-46.19,23.51-3.79,2.09-7.58,4.14-11.23,6.43l-11,6.84-22.1,13.58L244.2,175.77c-14.82,8.91-29.62,17.87-44.67,26.38-7.53,4.25-15.16,8.35-23,12.07s-15.83,7-23.91,10.09-16.21,6.05-24.49,8.58A236.26,236.26,0,0,1,103,239.16,244.08,244.08,0,0,1,0,236.31Z"/>
          <path class="cls-3" d="M0,236.31a186.72,186.72,0,0,0,48.77,26,157.13,157.13,0,0,0,54.38,9,144,144,0,0,0,27.46-3.16,235.43,235.43,0,0,0,26.65-7.52c8.75-3,17.43-6.15,26.1-9.35s17.1-7,25.4-11C225.36,232,241.51,223,257.62,214s32.09-18.37,48-27.78q11.94-7.06,23.74-14.33c7.87-4.84,15.68-9.83,23.79-14.3a485.6,485.6,0,0,1,50.06-23.95l6.44-2.59c2.15-.87,4.33-1.64,6.49-2.47,4.31-1.67,8.69-3.17,13.05-4.72,8.76-3,17.58-5.8,26.48-8.34,17.8-5.07,35.81-9.32,53.93-13.08A606.1,606.1,0,0,1,619.77,90.07c18.49-.36,37,0,55.47.84q13.86.6,27.71,1.42c9.22.62,18.45,1.3,27.65,2.21a868.67,868.67,0,0,1,109.45,17.8A867.72,867.72,0,0,0,730.56,95c-9.21-.88-18.42-1.56-27.65-2.16s-18.46-1-27.69-1.38c-18.47-.79-37-1.14-55.44-.75a604.35,604.35,0,0,0-110,12.47c-18.09,3.78-36.09,8.05-53.85,13.14-8.88,2.55-17.67,5.38-26.41,8.37-4.35,1.55-8.72,3-13,4.73-2.15.83-4.33,1.6-6.47,2.47l-6.42,2.59a483.75,483.75,0,0,0-50,23.83c-8.09,4.45-15.89,9.4-23.77,14.24s-15.81,9.6-23.77,14.3Q282.14,201,258,214.6c-16.12,9.05-32.29,18.05-48.93,26.16-8.32,4-16.81,7.76-25.47,11s-17.37,6.36-26.14,9.32a234.69,234.69,0,0,1-26.72,7.49,142.62,142.62,0,0,1-27.56,3.12,157.13,157.13,0,0,1-54.47-9.21A186.77,186.77,0,0,1,0,236.31Z"/>
          <path class="cls-3" d="M0,236.31a291.49,291.49,0,0,0,31.31,55.53A246.41,246.41,0,0,0,51.6,316.45a199.51,199.51,0,0,0,23.7,21.31,163.37,163.37,0,0,0,27.06,16.78,143,143,0,0,0,29.94,10.75,145.46,145.46,0,0,0,31.58,3.88,183.72,183.72,0,0,0,31.76-2.45c21-3.37,41.48-9.45,61.89-15.44q15.29-4.62,30.09-10.6c9.87-4,19.55-8.39,29.12-13,19.13-9.34,37.89-19.43,56.66-29.47q14.1-7.53,28.05-15.28c9.32-5.16,18.62-10.35,28.06-15.3s19.07-9.54,28.95-13.58a288.33,288.33,0,0,1,30.23-10.41c10.24-3,20.64-5.39,31.11-7.37s21-3.48,31.63-4.71a523.53,523.53,0,0,1,63.85-2.43c21.3.37,42.59,1.66,63.79,3.72A915.86,915.86,0,0,1,805,254.16q31,7.53,61.6,17T927,291.82c-20-7.35-40.16-14.22-60.51-20.47s-40.93-11.77-61.64-16.71A916.9,916.9,0,0,0,679,233.47c-21.19-2-42.45-3.29-63.73-3.63a523.71,523.71,0,0,0-63.75,2.51c-10.56,1.24-21.11,2.77-31.55,4.74s-20.82,4.41-31,7.39a288,288,0,0,0-30.12,10.42c-9.84,4-19.43,8.65-28.85,13.58s-18.73,10.1-28.06,15.24S383.24,294,373.84,299c-18.8,10-37.57,20.09-56.73,29.41-9.59,4.65-19.3,9.06-29.19,13s-20,7.5-30.17,10.57-20.45,6-30.76,8.67-20.71,5-31.25,6.71a183.89,183.89,0,0,1-31.87,2.42,146.6,146.6,0,0,1-31.7-3.93c-20.8-4.92-40.25-14.75-57.16-27.71A198.84,198.84,0,0,1,51.34,316.7,245.76,245.76,0,0,1,31.11,292,291.77,291.77,0,0,1,0,236.31Z"/>
          <path class="cls-3" d="M880.76,190.05q-28.05-9.72-56.79-17.24c-19.16-4.95-38.49-9.22-58-12.61s-39.11-6-58.79-8c-9.84-1-19.69-1.94-29.56-2.65S657.89,148.4,648,148.2a511.7,511.7,0,0,0-59.25,2.27,524.06,524.06,0,0,0-58.58,9.13,547,547,0,0,0-57.24,15.5,520,520,0,0,0-55.2,21.61c-18,8.16-35.43,17.57-52.7,27.21q-12.94,7.25-25.82,14.64c-8.58,4.92-17.18,9.82-25.71,14.82s-17,10.06-25.48,15.22S271.25,279.09,262.62,284s-17.76,8.81-26.81,12.79-18.27,7.65-27.65,10.84a229,229,0,0,1-28.66,7.82,178.39,178.39,0,0,1-29.5,3.43A152.31,152.31,0,0,1,120.37,317a156.37,156.37,0,0,1-28.67-7.68,172.29,172.29,0,0,1-26.76-12.86,196.88,196.88,0,0,1-24.29-17A236.08,236.08,0,0,1,0,236.31,236.18,236.18,0,0,0,40.8,279.2a197.16,197.16,0,0,0,24.33,16.92,171.77,171.77,0,0,0,26.74,12.71,156.16,156.16,0,0,0,28.59,7.61A151.16,151.16,0,0,0,150,318.27a177.37,177.37,0,0,0,29.4-3.46A229.83,229.83,0,0,0,207.94,307c9.35-3.2,18.53-6.89,27.59-10.86s18.15-7.9,26.73-12.79,16.9-10.26,25.36-15.4,16.93-10.25,25.47-15.26,17.12-9.93,25.7-14.86S356,228,364.6,223.12c17.26-9.67,34.68-19.13,52.72-27.32a522.87,522.87,0,0,1,55.34-21.57A548.54,548.54,0,0,1,530,158.79a523.84,523.84,0,0,1,58.69-9.06A510.89,510.89,0,0,1,648,147.54q14.85.33,29.67,1.38c9.87.72,19.73,1.65,29.57,2.69,19.68,2,39.33,4.57,58.81,8.11s38.82,7.83,58,12.85S862.09,183.5,880.76,190.05Z"/>
          <g>
            <g>
              <path class="cls-1" d="M128.13,354.82c-9.81,0-17.91-4.14-22.21-11.36-7.45-12.5-.74-30.29,15-39.65a38.82,38.82,0,0,1,19.75-5.66,29.36,29.36,0,0,1,11.45,2.2l-2.77-199-20,.28-.16-11.39,53.13-.74L237.18,249.8,282.56,88.1l57.6-.81.16,11.39-20,.28,2.89,207.3,20-.28.15,11.38-78.15,1.09-.16-11.38,20-.28-2.5-179.73L228.65,319l-8.58.12L160.36,147.81l2.24,161.27a3.87,3.87,0,0,1,.27.43c3.69,6.18,4.08,13.76,1.1,21.36a37.86,37.86,0,0,1-16.06,18.28A38.84,38.84,0,0,1,128.13,354.82Z"/>
              <path class="cls-2" d="M337.2,90.33l.08,5.39-20,.28,3,213.3,20-.28.07,5.38-72.15,1-.08-5.38,20-.28-2.83-203.43L226.37,316l-4.18.06L157.1,129.35l2.52,180.7c.22.33.47.65.68,1,6.61,11.1.38,27-13.93,35.53a35.91,35.91,0,0,1-18.24,5.25c-8.35,0-15.76-3.41-19.64-9.9-6.61-11.1-.37-27,13.93-35.53a35.92,35.92,0,0,1,18.21-5.24,24.68,24.68,0,0,1,14.52,4.33L152.27,98.3l-20,.27-.08-5.38,48-.67,57.34,167.37L284.84,91.06l52.36-.73m5.92-6.08-6,.09-52.36.72-4.48.07-1.21,4.31L236.9,239.71,185.81,90.58l-1.41-4.12-4.35.06-48,.67-6,.08.08,6,.08,5.39.08,6,6-.09,14-.19L149,296.17a34.19,34.19,0,0,0-8.39-1,41.76,41.76,0,0,0-21.28,6.09A40.8,40.8,0,0,0,102,321c-3.33,8.48-2.86,17,1.31,24,4.79,8,14.06,12.83,24.79,12.83a41.86,41.86,0,0,0,21.31-6.09A40.82,40.82,0,0,0,166.76,332c3.29-8.38,2.87-16.8-1.17-23.75l-2-141.95L216.52,318l1.43,4.08,4.32-.06,4.18-.06,4.48-.06,1.21-4.32L279.85,147.8l2.18,156-14,.2-6,.08.08,6,.08,5.38.08,6,6-.08,72.16-1,6-.08-.09-6-.07-5.38-.09-6-6,.08-14,.2-2.8-201.31,14-.19,6-.09-.08-6-.08-5.38-.08-6Z"/>
            </g>
            <g>
              <path class="cls-1" d="M375,267.29c-19.26,0-31.69-11.08-32.43-28.92-.38-9.19,2.55-17,8.47-22.48,5.56-5.18,13.49-8.13,22.94-8.52l7.56-.31c11-.46,18.35-5.19,18.43-11.79l-1.19-28.81a37.1,37.1,0,0,0-6-.45c-.66,0-1.33,0-2,0a55.3,55.3,0,0,0-18.71,4.07c3.15,3,6.65,7.6,6.87,12.94.38,9.23-7.44,15.27-14.91,15.58h-.67A15.2,15.2,0,0,1,347.85,184c-.29-7,4.55-13.81,13.63-19.2a63.38,63.38,0,0,1,28.88-8.28c.82,0,1.62-.05,2.42-.05,25,0,40.49,15.88,41.59,42.48L436.61,253c6.69-3.19,10.88-10.88,10.51-19.94l-.13-3,10-.41.12,3a31.84,31.84,0,0,1-6.84,21.6A26.39,26.39,0,0,1,430.68,264l-1.22,0a26.72,26.72,0,0,1-22.71-12.42,26.85,26.85,0,0,1-2.45,3.66c-6.08,7.35-15.43,11.46-27.09,11.94C376.44,267.27,375.69,267.29,375,267.29Zm4.26-9.81c17-1.77,22.72-13.64,22.27-24.54l-.89-21.62a22.58,22.58,0,0,1-3.09,1.82c-4.1,2.05-9.36,3.23-15.61,3.49l-4.36.18Z"/>
              <path class="cls-2" d="M392.78,159.42c22.6,0,37.55,14.2,38.6,39.61l2.4,58.08c10.07-2.21,16.83-12.25,16.34-24.19l4-.16c.63,15.12-9.21,27.68-23.53,28.27l-1.1,0c-10.83,0-19.42-6.7-23.12-17a21.25,21.25,0,0,1-4.4,9.35c-5.12,6.19-13.32,10.31-24.86,10.79-.72,0-1.43.05-2.13.05-19.26,0-28.82-11.26-29.43-26-.71-17.31,11.23-27.17,28.54-27.88l7.56-.32c12.33-.51,21.26-6.26,21.3-14.83L401.63,164a36.66,36.66,0,0,0-8.87-1c-.71,0-1.42,0-2.13,0a55.82,55.82,0,0,0-24,6.37c3.08,2.27,9.08,7.6,9.33,13.77.3,7.16-5.67,12.19-12,12.45h-.54a12.3,12.3,0,0,1-12.5-11.82c-.51-12.34,19.75-23.54,39.64-24.36.78,0,1.55-.05,2.3-.05M376.34,260.68h.4c19.29-.8,28.34-13.33,27.74-27.85l-1.18-28.45a18,18,0,0,1-7.12,6.07c-3.9,2-8.84,3-14.41,3.19l-7.36.31,1.93,46.74m16.44-107.26c-.83,0-1.69,0-2.54.05a66.71,66.71,0,0,0-30.29,8.7c-10.08,6-15.44,13.76-15.1,21.9a18.38,18.38,0,0,0,18.49,17.58h.79a19.25,19.25,0,0,0,12.45-5.33,17.43,17.43,0,0,0,5.34-13.37,20.41,20.41,0,0,0-4.68-11.53A54.06,54.06,0,0,1,390.88,169l1.88,0c1.07,0,2.1,0,3.08.12l1.08,26.18c-.12,4.78-6.49,8.37-15.55,8.75l-7.56.31c-21.65.9-35.1,14.29-34.28,34.12.38,9.2,3.69,17,9.57,22.65,6.25,6,15.19,9.15,25.85,9.15.78,0,1.58,0,2.38-.05,12.54-.52,22.65-5,29.24-13l0,0,.05-.06.25-.32a29.49,29.49,0,0,0,22.55,10.22l1.34,0a29.37,29.37,0,0,0,21.78-10.89,34.87,34.87,0,0,0,7.51-23.63l-.25-6-6,.24-4,.17-6,.25.25,6a19.28,19.28,0,0,1-4.74,14.12l-2-48.51c-1.16-28-18.24-45.36-44.59-45.36Zm-12.13,66.26,1.36-.05a43,43,0,0,0,15.78-3.31l.69,16.75c.25,5.92-1.43,11-4.85,14.78A21.11,21.11,0,0,1,382.07,254l-1.42-34.32Z"/>
            </g>
            <g>
              <path class="cls-1" d="M480.7,201.9c-1.26,0-2.55-.05-3.84-.15-28.92-2.11-49.85-27.26-47.65-57.26,2-27.88,24.47-49.71,51.06-49.71,1.2,0,2.42,0,3.63.13,25.83,1.89,44.44,24.32,44.25,53.33l0,3.21-64.2-4.7-3,40.79a42.08,42.08,0,0,0,16.61,4.76c1,.08,2.07.12,3.08.12,23.74,0,33.24-20.71,33.64-21.6l1.19-2.67,2.7,1.12,6.21,2.59-1.23,2.79c-.49,1.12-12.29,27.25-42.43,27.25Zm11.09-62.62,2.37-32.41a37.89,37.89,0,0,0-11-2.5c-.93-.07-1.87-.11-2.8-.11a39.68,39.68,0,0,0-13.55,2.45l-2.24,30.58Z"/>
              <path class="cls-2" d="M480.27,97.78c1.13,0,2.27,0,3.41.12,25.44,1.87,41.64,24.17,41.47,50.32l-64-4.69-3.35,45.68a44.27,44.27,0,0,0,19.52,6.08c1.13.09,2.23.13,3.3.13C506.72,195.42,517,172,517,172l3.38,1.41s-11.15,25.45-39.68,25.45c-1.18,0-2.39-.05-3.64-.14-28.33-2.07-46.87-26.68-44.87-54,1.94-26.56,22.95-46.93,48.07-46.93m14.29,44.71,2.75-37.58a42.41,42.41,0,0,0-13.88-3.54c-1-.07-2-.11-3-.11A42.9,42.9,0,0,0,464,104.6l-2.6,35.47,33.15,2.42M480.27,91.78A52.69,52.69,0,0,0,443.36,107a57.74,57.74,0,0,0-17.14,37.28c-2.32,31.67,19.82,58.24,50.42,60.48,1.36.1,2.73.15,4.07.15,32.08,0,44.66-27.86,45.18-29l2.45-5.6-5.64-2.35-3.38-1.41-5.43-2.26-2.37,5.38c-.36.79-9.18,19.8-30.89,19.8-.94,0-1.9,0-2.86-.11a39,39,0,0,1-13.69-3.56L466.7,150l58,4.24,6.39.47,0-6.41c.2-30.64-19.58-54.33-47-56.34-1.28-.09-2.58-.14-3.85-.14Zm-10.56,17.14a36.05,36.05,0,0,1,10.7-1.66c.85,0,1.72,0,2.58.1a33.81,33.81,0,0,1,8,1.58l-2,27.13-21.19-1.55,1.88-25.6Z"/>
            </g>
            <g>
              <path class="cls-1" d="M538.87,193.53l9.77-1.4,2.15,15c2.68,2.54,13.75,12,30.08,12a42.88,42.88,0,0,0,6.08-.44c8.94-1.28,16.56-5.28,21.27-11.09a16.88,16.88,0,0,0-4.34-2.75L561,185.39c-16.26-7.34-24.16-11.46-26-24.62a29.8,29.8,0,0,1,8.8-26.48c6.26-6.13,15.38-10.32,25.69-11.8a54.69,54.69,0,0,1,7.62-.55,49.82,49.82,0,0,1,21,4.6l-1.09-7.6,9.77-1.4,5.14,35.82-9.78,1.4L599.86,139a37.82,37.82,0,0,0-23.07-7.52,43.49,43.49,0,0,0-6.19.45c-9,1.29-16.73,5.18-21.21,10.58a13.88,13.88,0,0,0,4.25,3.06l45,20.55c13.62,6.15,22.07,10.59,24,23.74a29.89,29.89,0,0,1-8.66,26.07c-6.31,6.39-15.42,10.72-25.64,12.18a53.18,53.18,0,0,1-7.44.53,54,54,0,0,1-28.15-8.08l1.45,10.1-9.77,1.4Z"/>
              <path class="cls-2" d="M604.22,120.93l4.28,29.88-3.83.55-2-14a40.63,40.63,0,0,0-25.87-8.92,46.66,46.66,0,0,0-6.61.48c-10.15,1.45-19.65,6.14-24.62,13.69a18.13,18.13,0,0,0,6.87,5.66l45,20.53c13.79,6.24,20.61,10.15,22.23,21.45,2.72,19-13,32.16-31.76,34.85a48.69,48.69,0,0,1-7,.5,52.27,52.27,0,0,1-32.1-11.51l2,14-3.83.55-4.67-32.56,3.83-.55,1.87,13a48.11,48.11,0,0,0,32.9,13.58,46,46,0,0,0,6.51-.47c10.34-1.48,19.59-6.52,24.73-14.29a17.89,17.89,0,0,0-7-5.26l-42.86-19.46c-16.1-7.27-22.66-10.83-24.31-22.32-2.86-19.92,13.36-32.21,31.94-34.88a50.85,50.85,0,0,1,7.2-.52A46.58,46.58,0,0,1,601.9,132l-1.51-10.54,3.83-.55m5.09-6.79-5.94.85-3.83.55-5.94.85.77,5.43a52.92,52.92,0,0,0-17.3-2.88,57.79,57.79,0,0,0-8.05.58c-10.93,1.57-20.65,6-27.36,12.62-7.94,7.78-11.28,17.82-9.67,29.05,2.2,15.38,12.38,20,27.78,26.94l42.85,19.46a11.19,11.19,0,0,1,1,.51,31.7,31.7,0,0,1-17.13,7.63,40,40,0,0,1-5.66.41c-13.91,0-23.89-7.55-27.26-10.5l-1.57-11-.85-5.94-5.94.85-3.83.55-5.94.85.85,5.94L541,229.49l.85,5.94,5.94-.85,3.83-.55,5.94-.85-.85-5.94-.18-1.22a55.6,55.6,0,0,0,32.19,5c10.87-1.56,20.59-6.19,27.36-13.05a33.18,33.18,0,0,0,9.49-28.59C623.5,175,614.48,170,599.87,163.36l-45-20.53h0l0,0a8.24,8.24,0,0,1-1.06-.56c4.14-3.71,10.26-6.36,17.24-7.36a40.28,40.28,0,0,1,5.76-.42,35.62,35.62,0,0,1,20.28,6.2l1.66,11.55.85,5.94,5.94-.85,3.83-.55,5.94-.85-.85-5.94-4.28-29.88-.85-5.94Z"/>
            </g>
            <g>
              <path class="cls-1" d="M648.71,187c-16.78,0-29-13.73-29-32.65V83.65H602.26V73.84h17.49V57l32.53-26.48V73.84h25.21v9.81H652.28v93.13c8.13-2,14.31-11.06,14.31-21.8v-3h9.77v3C676.36,172.93,664.21,187,648.71,187Z"/>
              <path class="cls-2" d="M649.28,36.82v40h25.21v3.81H649.28v99.53c11.1-.22,20.31-11.44,20.31-25.2h3.77c0,16.09-10.91,29-24.65,29-15.8,0-26-12.92-26-29.65V80.65H605.26V76.84h17.49V58.42l26.53-21.6m6-12.63-9.79,8L619,53.76l-2.21,1.8V70.84H599.26V86.65h17.49v67.69c0,20.66,13.44,35.65,32,35.65a28.68,28.68,0,0,0,22-10.59,37.69,37.69,0,0,0,8.6-24.42v-6H663.59v6c0,7.41-3.45,14.06-8.31,17.23V86.65h25.21V70.84H655.28V24.19Z"/>
            </g>
            <g>
              <path class="cls-1" d="M663,197.56l1.68-9.23,15.91,2.9,14.56-79.71-15.91-2.9,1.69-9.23,47.88,8.74-2.38,13q.84-.85,1.71-1.65c6.87-6.2,14.3-9.48,21.48-9.48a23.4,23.4,0,0,1,4.19.37,17.34,17.34,0,0,1,11.1,6.48,14.66,14.66,0,0,1,2.62,11.5,14.84,14.84,0,0,1-14.81,12.3,17.66,17.66,0,0,1-3.05-.28c-9-1.66-12.32-9.43-13.51-15.19-7.27,6.13-13.49,16.51-15.22,26l-8.38,45.86,15.9,2.91-1.68,9.23Z"/>
              <path class="cls-2" d="M683.31,102.88l42,7.66L721,134a42.4,42.4,0,0,1,9.12-12.29C736,116.47,742.7,113,749.59,113a19.51,19.51,0,0,1,3.65.33c8.32,1.52,12.52,7.82,11.31,14.48a11.86,11.86,0,0,1-11.86,9.84,14.65,14.65,0,0,1-2.51-.23c-9.61-1.76-11.49-12.42-11.69-17.62-10.07,6-18.44,19.37-20.53,30.84L709,199.49l15.9,2.9-.6,3.33-57.88-10.57.61-3.33,15.9,2.9,15.63-85.61-15.9-2.9.61-3.33m-4.82-7-1.08,5.9-.61,3.33-1.08,5.9,5.91,1.08,10,1.82-13.48,73.81-10-1.82-5.9-1.08-1.08,5.9-.6,3.33-1.08,5.9,5.9,1.08,57.88,10.57,5.9,1.08,1.08-5.9.61-3.33,1.07-5.9-5.9-1.08-10-1.83,7.84-42.91a44.82,44.82,0,0,1,10.8-21c2.41,6.1,7,11.22,14.44,12.59a20,20,0,0,0,3.59.33,17.81,17.81,0,0,0,17.76-14.76,17.56,17.56,0,0,0-3.17-13.83,20.53,20.53,0,0,0-13-7.64,26.67,26.67,0,0,0-4.73-.42c-6.27,0-12.67,2.22-18.74,6.47l.34-1.88,1.08-5.9-5.91-1.08-42-7.67-5.9-1.07Z"/>
            </g>
            <g>
              <path class="cls-1" d="M792.35,257.39c-27.34,0-50.45-23.85-50.45-52.08s23.11-52.09,50.45-52.09c27.92,0,50.64,23.36,50.64,52.09A52.43,52.43,0,0,1,828.07,242,49.54,49.54,0,0,1,792.35,257.39Zm36.76-32.72a42.48,42.48,0,0,0,4.6-19.36,43,43,0,0,0-4.44-19.18H755.8a41.78,41.78,0,0,0,.16,38.54Z"/>
              <path class="cls-2" d="M792.35,156.22c26,0,47.64,22,47.64,49.09,0,26.9-21.64,49.08-47.64,49.08-25.45,0-47.45-22.18-47.45-49.08,0-27.09,22-49.09,47.45-49.09m-38.18,71.45H830.9a45.15,45.15,0,0,0,5.81-22.36,45.73,45.73,0,0,0-5.63-22.18H754a45.86,45.86,0,0,0-5.81,22.18,45.3,45.3,0,0,0,6,22.36m38.18-77.45a53,53,0,0,0-37.56,16.19,55.41,55.41,0,0,0-15.89,38.9c0,29.86,24.48,55.08,53.45,55.08a52.53,52.53,0,0,0,37.87-16.27,55.74,55.74,0,0,0,0-77.7,52.57,52.57,0,0,0-37.87-16.2Zm-34.66,38.91h69.68a40.32,40.32,0,0,1,3.34,16.18,39.56,39.56,0,0,1-3.49,16.36H757.83a38.76,38.76,0,0,1-.14-32.54Z"/>
            </g>
          </g>
        </g>
      </g>
    </g>
  </g>
</svg>
