<svg xmlns="http://www.w3.org/2000/svg" xmlns:xlink="http://www.w3.org/1999/xlink" viewBox="0 0 187.02 27.07">
  <defs>
    <style>
      .cls-1 {
        fill: url(#Dégradé_sans_nom_63);
      }

      .cls-2 {
        fill: #132f33;
      }

      .cls-3 {
        fill: #fff;
      }

      .cls-4 {
        fill: #1d474d;
      }
    </style>
    <linearGradient id="Dégradé_sans_nom_63" data-name="Dégradé sans nom 63" x1="93.51" y1="-1.62" x2="93.51" y2="17.23" gradientUnits="userSpaceOnUse">
      <stop offset="0" stop-color="#fbb03b"/>
      <stop offset="0.06" stop-color="#f4b241"/>
      <stop offset="0.15" stop-color="#e0b950"/>
      <stop offset="0.26" stop-color="#bec36a"/>
      <stop offset="0.38" stop-color="#90d28e"/>
      <stop offset="0.52" stop-color="#55e4bc"/>
      <stop offset="0.66" stop-color="#0ffaf4"/>
      <stop offset="0.69" stop-color="aqua"/>
      <stop offset="0.71" stop-color="#00f1f8"/>
      <stop offset="0.78" stop-color="#00c3e3"/>
      <stop offset="0.84" stop-color="#00a0d2"/>
      <stop offset="0.9" stop-color="#0086c6"/>
      <stop offset="0.96" stop-color="#0076bf"/>
      <stop offset="1" stop-color="#0071bc"/>
    </linearGradient>
  </defs>
  <g id="Calque_2" data-name="Calque 2">
    <g id="Calque_3" data-name="Calque 3">
      <g>
        <g>
          <path class="cls-1" d="M183.85,16.27l-.38-.37V12H169.71V15.9l-.37.37h-2.42l-.38-.37V5l.38-.37h2.42l.37.37V8.87h13.76V5l.38-.37h2.42l.37.37V15.9l-.37.37Zm-30.22,0a9.83,9.83,0,0,1-8.19-5.65v-.33a9.82,9.82,0,0,1,8.15-5.65h11.53l.37.37V7.43l-.37.38H154.24a5.52,5.52,0,0,0-5,2.64,5.5,5.5,0,0,0,5,2.65h10.88l.37.38V15.9l-.37.37Zm-21.15,0a9.84,9.84,0,0,1-8.19-5.65v-.33a9.84,9.84,0,0,1,8.15-5.65H144l.38.37V7.43l-.38.38H133.09a5.82,5.82,0,0,0-3.55,1.06h9.59l.38.38v2.41l-.38.38h-9.59a5.82,5.82,0,0,0,3.55,1.06H144l.38.38V15.9l-.38.37Zm-12.45,0-.38-.37V3.54H107.71l-.38-.37V.75l.38-.37H134.3l.38.37V3.17l-.38.37H122.82V15.9l-.38.37Zm-5.44-.37V12H100.83V15.9l-.38.37H98l-.37-.37V10.45l0-.16a9.84,9.84,0,0,1,8.15-5.65h3.67a9.86,9.86,0,0,1,8.2,5.65l0,.16V15.9l-.39.16v.2H115Zm-2.13-7a5.77,5.77,0,0,0-3.54-1.06H106.5A5.82,5.82,0,0,0,103,8.87Zm-16.23,7.4a10.48,10.48,0,0,1-3.77-.52L79.68,8.09V15.9l-.38.37H76.89l-.38-.37V5l.38-.37a8.79,8.79,0,0,1,3.8.64l12.75,7.54V5l.38-.37h2.4l.38.37V15.9ZM72.29,15.9V12H58.53V15.9l-.37.37H55.74l-.38-.37V10.45l0-.16a9.85,9.85,0,0,1,8.16-5.65h3.67a9.84,9.84,0,0,1,8.19,5.65l0,.16V15.9l-.38.16v.2H72.67Zm-2.12-7a5.82,5.82,0,0,0-3.55-1.06H64.2a5.77,5.77,0,0,0-3.54,1.06ZM49.1,16.27l-.37-.37V5l.49-.35a4.05,4.05,0,0,1,2.66,2.65l0,.12V15.9l-.38.37Zm-7-.37V12H28.32V15.9l-.38.37H25.53l-.38-.37V10.45l0-.16a9.85,9.85,0,0,1,8.15-5.65H37a9.86,9.86,0,0,1,8.2,5.65l0,.16V15.9l-.39.16v.2h-2.4ZM40,8.87a5.82,5.82,0,0,0-3.55-1.06H34a5.82,5.82,0,0,0-3.55,1.06ZM11,16.27l-.22-.07L.54,9,.39,8.64V1.37L.75,1H3.17l.37.37,0,5.85L12.25,13l8.68-5.8V1.38L21.31,1h2.42l.37.37V8.64L23.94,9,13.66,16.2l-.21.07ZM51.52,3.57l-.37-.37V.78l.49-.36a4,4,0,0,1,2.65,2.66l-.35.49Zm-4.85,0L46.3,3.2V.78l.49-.36a4.06,4.06,0,0,1,2.66,2.66l-.36.49Z"/>
          <path class="cls-2" d="M134.3.75h0m0,0V3.17H122.44V15.9H120V3.17H107.71V.75H134.3M51.52.78A3.66,3.66,0,0,1,53.94,3.2H51.52V.78m-4.85,0A3.66,3.66,0,0,1,49.09,3.2H46.67V.78M.75,1.37H3.17V7.43l9.07,6.05,9.06-6.05v-6h2.42V8.64L13.45,15.9H11L.76,8.64V1.37M186.27,5V15.9h-2.42V11.66H169.34V15.9h-2.42V5h2.42V9.24h14.51V5h2.42M165.12,5V7.43H154.24a6,6,0,0,0-5.45,3,6,6,0,0,0,5.45,3h10.88V15.9H153.63a9.44,9.44,0,0,1-7.86-5.45A9.45,9.45,0,0,1,153.63,5h11.49M144,5V7.43H133.09a6,6,0,0,0-4.54,1.81h10.59v2.42H128.55a6,6,0,0,0,4.54,1.82H144V15.9H132.48a9.47,9.47,0,0,1-7.86-5.45A9.48,9.48,0,0,1,132.48,5H144M109.52,5a9.45,9.45,0,0,1,7.86,5.44v5.43l-2.41,0V11.66H100.45V15.9H98V10.45A9.48,9.48,0,0,1,105.89,5h3.63M102,9.24h11.49a6,6,0,0,0-4.53-1.81H106.5A6,6,0,0,0,102,9.24M96.23,5V15.9a10.08,10.08,0,0,1-3.62-.5l-13.3-8V15.9H76.89V5a8.42,8.42,0,0,1,3.64.61l13.29,7.86V5h2.4m-29,0a9.46,9.46,0,0,1,7.86,5.44v5.43l-2.41,0V11.66H58.16V15.9H55.74V10.45A9.45,9.45,0,0,1,63.6,5h3.63M59.67,9.24H71.16a6,6,0,0,0-4.54-1.81H64.2a6,6,0,0,0-4.53,1.81M49.1,5a3.66,3.66,0,0,1,2.42,2.42V15.9H49.1V5M37,5a9.45,9.45,0,0,1,7.86,5.44v5.43l-2.41,0V11.66H27.94V15.9H25.53V10.45A9.45,9.45,0,0,1,33.39,5H37M29.46,9.24H40.94a6,6,0,0,0-4.53-1.81H34a6,6,0,0,0-4.53,1.81M134.31,0h-26.6L107,.75V3.17l.75.75h11.57v12l.75.75h2.41l.75-.75v-12h11.1l.75-.75V.75L134.31,0Zm0,1.5h0ZM46.91.07l-1,.71V3.2l.75.75h2.42l.71-1A4.4,4.4,0,0,0,46.91.07Zm4.85,0-1,.71V3.2l.75.75h2.42l.71-1A4.4,4.4,0,0,0,51.76.07ZM.75.62,0,1.37V8.64l.32.61L10.6,16.51l.43.14h2.42l.43-.14L24.16,9.25l.32-.61V1.38L23.73.63H21.31l-.75.75V7l-8.31,5.55L3.93,7V1.38L3.17.63ZM186.27,4.26h-2.42L183.1,5V8.49h-13V5l-.75-.75h-2.42l-.75.75V15.9l.75.75h2.42l.75-.75V12.41h13V15.9l.75.75h2.42l.75-.75V5l-.75-.75Zm-21.15,0H153.55a10.19,10.19,0,0,0-8.45,5.85v.67a10.19,10.19,0,0,0,8.45,5.85h11.57l.75-.75V13.48l-.75-.75H154.24a5.16,5.16,0,0,1-4.55-2.28,5.17,5.17,0,0,1,4.55-2.27h10.88l.75-.75V5l-.75-.75ZM144,4.26H132.4A10.19,10.19,0,0,0,124,10.12v.67a10.19,10.19,0,0,0,8.45,5.85H144l.75-.75V13.48l-.75-.75H133.09a6.18,6.18,0,0,1-2-.32h8.08l.75-.75V9.24l-.75-.75h-8.08a6.18,6.18,0,0,1,2-.31H144l.75-.75V5L144,4.26Zm-34.45,0h-3.71a10.19,10.19,0,0,0-8.45,5.85l-.08.33V15.9l.75.75h2.42l.75-.75V12.4h13V15.9l.76.75,2.4,0v-.42l.76-.31V10.45l-.08-.33a10.18,10.18,0,0,0-8.45-5.85Zm-5,4.23a6.14,6.14,0,0,1,2-.31h2.42a6.18,6.18,0,0,1,2,.31ZM96.23,4.26h-2.4L93.08,5v7.15L80.91,5l0,0a9.26,9.26,0,0,0-4-.68L76.14,5V15.9l.75.75h2.42l.75-.75V8.75L92.22,16l.1.05a10.54,10.54,0,0,0,3.91.56L97,15.9V5l-.75-.75Zm-29,0H63.52a10.18,10.18,0,0,0-8.45,5.85l-.08.33V15.9l.75.75h2.42l.75-.75V12.4h13V15.9l.75.75,2.41,0v-.42l.76-.31V10.45l-.08-.33a10.19,10.19,0,0,0-8.45-5.85ZM62.17,8.49a6.22,6.22,0,0,1,2-.31h2.42a6.14,6.14,0,0,1,2,.31ZM37,4.26H33.3a10.19,10.19,0,0,0-8.45,5.85l-.07.33V15.9l.75.75h2.41l.75-.75V12.4h13V15.9l.76.75,2.4,0v-.42l.76-.31V10.45l-.08-.33A10.16,10.16,0,0,0,37.1,4.27ZM32,8.49a6.18,6.18,0,0,1,2-.31h2.42a6.18,6.18,0,0,1,2,.31ZM49.34,4.3l-1,.71V15.9l.75.75h2.42l.75-.75V7.43l0-.24A4.4,4.4,0,0,0,49.34,4.3Z"/>
        </g>
        <g>
          <g>
            <path class="cls-3" d="M1.35,24.7a.25.25,0,0,1-.25-.25A1.32,1.32,0,0,1,2.56,23H6.19a.26.26,0,0,1,.25.25A1.31,1.31,0,0,1,5,24.7Z"/>
            <path class="cls-4" d="M6.19,23.24v0A1.06,1.06,0,0,1,5,24.45H1.35a1.07,1.07,0,0,1,1.21-1.21H6.19m0-.5H2.56A1.56,1.56,0,0,0,.85,24.45a.5.5,0,0,0,.5.5H5a1.55,1.55,0,0,0,1.71-1.69.52.52,0,0,0-.5-.52Z"/>
          </g>
          <g>
            <path class="cls-3" d="M19,26.82A5,5,0,0,1,14.88,24a.28.28,0,0,1,0-.22A5,5,0,0,1,19,20.88h5.77a.25.25,0,0,1,.25.25v1.21a.25.25,0,0,1-.25.25H19.34a2.71,2.71,0,0,0-2.43,1.26,2.71,2.71,0,0,0,2.43,1.26h5.44a.25.25,0,0,1,.25.25v1.21a.25.25,0,0,1-.25.25Z"/>
            <path class="cls-4" d="M24.78,21.13v1.21H19.34a3,3,0,0,0-2.72,1.51,3,3,0,0,0,2.72,1.51h5.44v1.21H19a4.7,4.7,0,0,1-3.93-2.72A4.7,4.7,0,0,1,19,21.13h5.74m0-.5H19a5.22,5.22,0,0,0-4.32,3,.51.51,0,0,0,0,.45,5.21,5.21,0,0,0,4.32,3h5.8a.5.5,0,0,0,.5-.5V25.36a.5.5,0,0,0-.5-.5H19.34a2.46,2.46,0,0,1-2.12-1,2.46,2.46,0,0,1,2.12-1h5.44a.5.5,0,0,0,.5-.5V21.13a.5.5,0,0,0-.5-.5Z"/>
          </g>
          <g>
            <path class="cls-3" d="M29.85,26.82A5,5,0,0,1,25.69,24a.28.28,0,0,1,0-.22,5,5,0,0,1,4.13-2.86h1.84a5,5,0,0,1,4.15,2.86.22.22,0,0,1,0,.22,5,5,0,0,1-4.12,2.86H29.85Zm-2.13-3a2.71,2.71,0,0,0,2.43,1.26h1.21a2.69,2.69,0,0,0,2.42-1.26,2.69,2.69,0,0,0-2.42-1.26H30.15A2.71,2.71,0,0,0,27.72,23.85Z"/>
            <path class="cls-4" d="M31.66,21.13a4.73,4.73,0,0,1,3.93,2.72,4.73,4.73,0,0,1-3.93,2.72H29.85a4.7,4.7,0,0,1-3.93-2.72,4.7,4.7,0,0,1,3.93-2.72h1.81m-1.51,4.23h1.21a3,3,0,0,0,2.72-1.51,3,3,0,0,0-2.72-1.51H30.15a3,3,0,0,0-2.72,1.51,3,3,0,0,0,2.72,1.51m1.51-4.73H29.79a5.22,5.22,0,0,0-4.32,3,.51.51,0,0,0,0,.45,5.21,5.21,0,0,0,4.32,3h1.92a5.22,5.22,0,0,0,4.33-3,.51.51,0,0,0,0-.45,5.23,5.23,0,0,0-4.33-3ZM28,23.85a2.46,2.46,0,0,1,2.12-1h1.21a2.47,2.47,0,0,1,2.12,1,2.47,2.47,0,0,1-2.12,1H30.15a2.46,2.46,0,0,1-2.12-1Z"/>
          </g>
          <g>
            <path class="cls-3" d="M36.72,26.82a.25.25,0,0,1-.25-.25V21.13a.25.25,0,0,1,.25-.25h5.75a5,5,0,0,1,4.15,2.86.22.22,0,0,1,0,.22,5,5,0,0,1-4.12,2.86H36.72Zm5.45-1.71a2.69,2.69,0,0,0,2.42-1.26,2.69,2.69,0,0,0-2.42-1.26h-4v2.52Z"/>
            <path class="cls-4" d="M42.47,21.13a4.73,4.73,0,0,1,3.93,2.72,4.73,4.73,0,0,1-3.93,2.72H36.72V21.13h5.75m-4.54,4.23h4.24a3,3,0,0,0,2.72-1.51,3,3,0,0,0-2.72-1.51H37.93v3m4.54-4.73H36.72a.5.5,0,0,0-.5.5v5.44a.51.51,0,0,0,.5.5h5.8a5.22,5.22,0,0,0,4.33-3,.51.51,0,0,0,0-.45,5.23,5.23,0,0,0-4.33-3Zm-4,2.21h3.74a2.47,2.47,0,0,1,2.12,1,2.47,2.47,0,0,1-2.12,1H38.43v-2Z"/>
          </g>
          <g>
            <path class="cls-3" d="M47.53,26.82a.25.25,0,0,1-.25-.25V23a.25.25,0,0,1,.25-.25h1.21A.25.25,0,0,1,49,23v3.62a.25.25,0,0,1-.25.25Zm0-4.23a.26.26,0,0,1-.25-.25V21.13a.26.26,0,0,1,.11-.21.23.23,0,0,1,.14,0h.08A2.09,2.09,0,0,1,49,22.26a.28.28,0,0,1,0,.22.26.26,0,0,1-.21.11Z"/>
            <path class="cls-4" d="M47.53,21.13a1.81,1.81,0,0,1,1.21,1.21H47.53V21.13M48.74,23v3.62H47.53V23h1.21m-1.21-2.32a.52.52,0,0,0-.29.09.51.51,0,0,0-.21.41v1.21a.46.46,0,0,0,.11.3A.49.49,0,0,0,47,23v3.62a.51.51,0,0,0,.5.5h1.21a.5.5,0,0,0,.5-.5V23a.55.55,0,0,0-.1-.31h0a.52.52,0,0,0,.07-.45,2.34,2.34,0,0,0-1.53-1.53l-.16,0Z"/>
          </g>
          <g>
            <path class="cls-3" d="M59.55,26.82a5.27,5.27,0,0,1-1.91-.27l-6.3-3.77v3.79a.25.25,0,0,1-.25.25H49.88a.25.25,0,0,1-.25-.25V21.13a.25.25,0,0,1,.25-.25,4.32,4.32,0,0,1,1.93.33l6.28,3.71V21.13a.25.25,0,0,1,.25-.25h1.2a.25.25,0,0,1,.25.25v5.44A.25.25,0,0,1,59.55,26.82Z"/>
            <path class="cls-4" d="M59.55,21.13v5.44a4.91,4.91,0,0,1-1.81-.25l-6.65-4v4.23H49.88V21.13a4.31,4.31,0,0,1,1.82.3l6.64,3.93V21.13h1.2m0-.5h-1.2a.5.5,0,0,0-.5.5v3.35L52,21a4.57,4.57,0,0,0-2.07-.37.5.5,0,0,0-.5.5v5.44a.5.5,0,0,0,.5.5h1.21a.51.51,0,0,0,.5-.5V23.22l5.89,3.53.07,0a5.28,5.28,0,0,0,2,.29.5.5,0,0,0,.5-.5V21.13a.5.5,0,0,0-.5-.5Z"/>
          </g>
          <g>
            <path class="cls-3" d="M64.62,26.82A5,5,0,0,1,60.46,24a.28.28,0,0,1,0-.22,5,5,0,0,1,4.13-2.86h5.77a.25.25,0,0,1,.25.25v1.21a.25.25,0,0,1-.25.25H64.92a2.71,2.71,0,0,0-2.43,1.26,2.71,2.71,0,0,0,2.43,1.26h4V24.7H67.34a.25.25,0,0,1-.25-.25V23.24a.25.25,0,0,1,.25-.25h3a.25.25,0,0,1,.25.25v3.33a.25.25,0,0,1-.25.25Z"/>
            <path class="cls-4" d="M70.36,21.13v1.21H64.92a3,3,0,0,0-2.72,1.51,3,3,0,0,0,2.72,1.51h4.23v-.91H67.34V23.24h3v3.33H64.62a4.7,4.7,0,0,1-3.93-2.72,4.7,4.7,0,0,1,3.93-2.72h5.74m0-.5h-5.8a5.22,5.22,0,0,0-4.32,3,.51.51,0,0,0,0,.45,5.21,5.21,0,0,0,4.32,3h5.8a.5.5,0,0,0,.5-.5V23.24a.5.5,0,0,0-.29-.45.5.5,0,0,0,.29-.45V21.13a.5.5,0,0,0-.5-.5ZM62.8,23.85a2.46,2.46,0,0,1,2.12-1h2.13a.49.49,0,0,0-.21.4v1.21a.49.49,0,0,0,.21.41H64.92a2.46,2.46,0,0,1-2.12-1Z"/>
          </g>
          <g>
            <path class="cls-3" d="M79.28,26.82a.25.25,0,0,1-.25-.25V23a.25.25,0,0,1,.25-.25h1.21a.25.25,0,0,1,.25.25v3.62a.25.25,0,0,1-.25.25Zm0-4.23a.25.25,0,0,1-.25-.25V21.13a.26.26,0,0,1,.11-.21.23.23,0,0,1,.14,0h.08a2.09,2.09,0,0,1,1.37,1.37.25.25,0,0,1,0,.22.23.23,0,0,1-.2.11Z"/>
            <path class="cls-4" d="M79.28,21.13a1.81,1.81,0,0,1,1.21,1.21H79.28V21.13M80.49,23v3.62H79.28V23h1.21m-1.21-2.32a.52.52,0,0,0-.29.09.51.51,0,0,0-.21.41v1.21a.46.46,0,0,0,.11.3.49.49,0,0,0-.11.31v3.62a.5.5,0,0,0,.5.5h1.21a.5.5,0,0,0,.5-.5V23a.55.55,0,0,0-.1-.31h0a.48.48,0,0,0,.06-.45,2.3,2.3,0,0,0-1.52-1.53l-.16,0Z"/>
          </g>
          <g>
            <path class="cls-3" d="M83.44,26.82a2.18,2.18,0,0,1-2-1.34.28.28,0,0,1,0-.25.26.26,0,0,1,.21-.11h5.45a3.27,3.27,0,0,0,1.82-.42H81.62a.28.28,0,0,1-.19-.09.27.27,0,0,1-.05-.21,4.18,4.18,0,0,1,4.15-3.53h4a2.2,2.2,0,0,1,2,1.35.25.25,0,0,1,0,.24.25.25,0,0,1-.21.12H85.86a3.32,3.32,0,0,0-1.81.41h7.26a.25.25,0,0,1,.19.09.23.23,0,0,1,0,.21,4.18,4.18,0,0,1-4.15,3.52Z"/>
            <path class="cls-4" d="M89.49,21.13a2,2,0,0,1,1.82,1.21H85.86a2.69,2.69,0,0,0-2.41.91h7.86a3.94,3.94,0,0,1-3.93,3.32H83.44a2,2,0,0,1-1.82-1.2h5.45a2.72,2.72,0,0,0,2.42-.92H81.62a3.94,3.94,0,0,1,3.94-3.33h3.93m1.82,2.12h0m-1.82-2.62H85.56c-2.5.23-4,1.48-4.43,3.73a.53.53,0,0,0,.11.42.7.7,0,0,0,.17.13.55.55,0,0,0-.21.19.5.5,0,0,0,0,.49,2.43,2.43,0,0,0,2.26,1.48h3.94c2.47-.22,3.94-1.46,4.41-3.67a.77.77,0,0,0,0-.15.51.51,0,0,0-.29-.46.48.48,0,0,0,.21-.19.48.48,0,0,0,0-.48,2.45,2.45,0,0,0-2.26-1.49Z"/>
          </g>
          <g>
            <path class="cls-3" d="M102,26.82a2.18,2.18,0,0,1-2-1.34.28.28,0,0,1,0-.25.27.27,0,0,1,.22-.11h5.44a3.24,3.24,0,0,0,1.82-.42h-7.26a.29.29,0,0,1-.2-.09.27.27,0,0,1,0-.21,4.19,4.19,0,0,1,4.15-3.53h4a2.2,2.2,0,0,1,2,1.35.23.23,0,0,1,0,.24.25.25,0,0,1-.21.12h-5.45a3.32,3.32,0,0,0-1.81.41h7.26a.25.25,0,0,1,.19.09.23.23,0,0,1,.05.21A4.18,4.18,0,0,1,106,26.82Z"/>
            <path class="cls-4" d="M108.09,21.13a2,2,0,0,1,1.82,1.21h-5.45a2.7,2.7,0,0,0-2.41.91h7.86A3.94,3.94,0,0,1,106,26.57H102a1.93,1.93,0,0,1-1.81-1.2h5.44a2.71,2.71,0,0,0,2.42-.92h-7.86a3.93,3.93,0,0,1,3.93-3.33h3.93m1.82,2.12h0m-1.82-2.62h-3.93c-2.5.23-4,1.48-4.42,3.73a.49.49,0,0,0,.1.42.59.59,0,0,0,.18.13.51.51,0,0,0-.22.19.5.5,0,0,0,0,.49A2.43,2.43,0,0,0,102,27.07H106c2.47-.22,3.94-1.46,4.41-3.67a.77.77,0,0,0,0-.15.51.51,0,0,0-.29-.46.43.43,0,0,0,.21-.19.48.48,0,0,0,0-.48,2.45,2.45,0,0,0-2.26-1.49Z"/>
          </g>
          <g>
            <path class="cls-3" d="M115,26.82A5,5,0,0,1,110.82,24a.22.22,0,0,1,0-.22,5,5,0,0,1,4.12-2.86h1.85a5,5,0,0,1,4.15,2.86.28.28,0,0,1,0,.22,5,5,0,0,1-4.13,2.86H115Zm-2.12-3a2.69,2.69,0,0,0,2.42,1.26h1.21a2.71,2.71,0,0,0,2.43-1.26,2.71,2.71,0,0,0-2.43-1.26h-1.21A2.69,2.69,0,0,0,112.85,23.85Z"/>
            <path class="cls-4" d="M116.79,21.13a4.7,4.7,0,0,1,3.92,2.72,4.7,4.7,0,0,1-3.92,2.72H115A4.73,4.73,0,0,1,111,23.85,4.73,4.73,0,0,1,115,21.13h1.82m-1.52,4.23h1.21a3,3,0,0,0,2.72-1.51,3,3,0,0,0-2.72-1.51h-1.21a3,3,0,0,0-2.72,1.51,3,3,0,0,0,2.72,1.51m1.52-4.73h-1.87a5.23,5.23,0,0,0-4.33,3,.51.51,0,0,0,0,.45,5.22,5.22,0,0,0,4.33,3h1.92a5.21,5.21,0,0,0,4.32-3,.51.51,0,0,0,0-.45,5.22,5.22,0,0,0-4.32-3Zm-3.64,3.22a2.47,2.47,0,0,1,2.12-1h1.21a2.46,2.46,0,0,1,2.12,1,2.46,2.46,0,0,1-2.12,1h-1.21a2.47,2.47,0,0,1-2.12-1Z"/>
          </g>
          <g>
            <path class="cls-3" d="M133.57,26.82A5,5,0,0,1,129.41,24a.28.28,0,0,1,0-.22,5,5,0,0,1,4.13-2.86h5.77a.25.25,0,0,1,.25.25v1.21a.25.25,0,0,1-.25.25h-5.44a2.71,2.71,0,0,0-2.43,1.26,2.71,2.71,0,0,0,2.43,1.26h5.44a.25.25,0,0,1,.25.25v1.21a.25.25,0,0,1-.25.25Z"/>
            <path class="cls-4" d="M139.31,21.13v1.21h-5.44a3,3,0,0,0-2.72,1.51,3,3,0,0,0,2.72,1.51h5.44v1.21h-5.74a4.7,4.7,0,0,1-3.93-2.72,4.7,4.7,0,0,1,3.93-2.72h5.74m0-.5h-5.8a5.22,5.22,0,0,0-4.32,3,.51.51,0,0,0,0,.45,5.21,5.21,0,0,0,4.32,3h5.8a.5.5,0,0,0,.5-.5V25.36a.5.5,0,0,0-.5-.5h-5.44a2.46,2.46,0,0,1-2.12-1,2.46,2.46,0,0,1,2.12-1h5.44a.5.5,0,0,0,.5-.5V21.13a.5.5,0,0,0-.5-.5Z"/>
          </g>
          <g>
            <path class="cls-3" d="M144.38,26.82A5,5,0,0,1,140.22,24a.23.23,0,0,1,0-.11V21.13a.25.25,0,0,1,.25-.25h1.21a.25.25,0,0,1,.25.25v2.11l.27.49a2.73,2.73,0,0,0,2.51,1.38h1.21a2.72,2.72,0,0,0,2.5-1.39l.27-.48V21.13a.25.25,0,0,1,.25-.25h1.21a.25.25,0,0,1,.25.25v2.72a.23.23,0,0,1,0,.11,5,5,0,0,1-4.12,2.86h-1.84Z"/>
            <path class="cls-4" d="M150.12,21.13v2.72a4.73,4.73,0,0,1-3.93,2.72h-1.82a4.73,4.73,0,0,1-3.93-2.72V21.13h1.21V23.3l.31.55a3,3,0,0,0,2.72,1.51h1.21a3,3,0,0,0,2.72-1.51l.3-.55V21.13h1.21m0-.5h-1.21a.5.5,0,0,0-.5.5v2l-.24.43a2.47,2.47,0,0,1-2.28,1.26h-1.21a2.51,2.51,0,0,1-2.3-1.27l-.23-.42v-2a.5.5,0,0,0-.5-.5h-1.21a.5.5,0,0,0-.5.5v2.72a.43.43,0,0,0,.06.22,5.19,5.19,0,0,0,4.32,3h1.92a5.22,5.22,0,0,0,4.33-3,.54.54,0,0,0,.05-.22V21.13a.5.5,0,0,0-.5-.5Z"/>
          </g>
          <g>
            <path class="cls-3" d="M155.49,26.82a.25.25,0,0,1-.25-.25v-4h-4a.26.26,0,0,1-.25-.25V21.13a.25.25,0,0,1,.25-.25h9.68a.24.24,0,0,1,.25.25v1.21a.25.25,0,0,1-.25.25h-4v4a.25.25,0,0,1-.25.25Z"/>
            <path class="cls-4" d="M160.93,21.13h0m0,0v1.21H156.7v4.23h-1.21V22.34h-4.24V21.13h9.68m0-.5h-9.69a.5.5,0,0,0-.5.5v1.21a.51.51,0,0,0,.5.5H155v3.73a.5.5,0,0,0,.5.5h1.21a.51.51,0,0,0,.5-.5V22.84h3.73a.51.51,0,0,0,.5-.5V21.18a.11.11,0,0,0,0-.05.5.5,0,0,0-.5-.5Zm0,1h0Z"/>
          </g>
          <g>
            <path class="cls-3" d="M166,26.82A5,5,0,0,1,161.84,24a.28.28,0,0,1,0-.22A5,5,0,0,1,166,20.88h5.77a.25.25,0,0,1,.25.25v1.21a.25.25,0,0,1-.25.25H166.3a2.93,2.93,0,0,0-1.57.4h4.59a.25.25,0,0,1,.25.25v1.21a.25.25,0,0,1-.25.25h-4.59a2.85,2.85,0,0,0,1.57.41h5.44a.25.25,0,0,1,.25.25v1.21a.25.25,0,0,1-.25.25Z"/>
            <path class="cls-4" d="M171.74,21.13v1.21H166.3a3,3,0,0,0-2.27.9h5.29v1.21H164a3,3,0,0,0,2.27.91h5.44v1.21H166a4.7,4.7,0,0,1-3.93-2.72A4.7,4.7,0,0,1,166,21.13h5.74m0-.5h-5.8a5.22,5.22,0,0,0-4.32,3,.51.51,0,0,0,0,.45,5.21,5.21,0,0,0,4.32,3h5.8a.5.5,0,0,0,.5-.5V25.36a.5.5,0,0,0-.5-.5h-2.13a.49.49,0,0,0,.21-.41V23.24a.49.49,0,0,0-.21-.4h2.13a.5.5,0,0,0,.5-.5V21.13a.5.5,0,0,0-.5-.5Z"/>
          </g>
          <g>
            <path class="cls-3" d="M180.66,24.7a.25.25,0,0,1-.25-.25A1.32,1.32,0,0,1,181.87,23h3.62a.25.25,0,0,1,.25.25,1.31,1.31,0,0,1-1.45,1.46Z"/>
            <path class="cls-4" d="M185.49,23.24v0a1.06,1.06,0,0,1-1.2,1.19h-3.63a1.07,1.07,0,0,1,1.21-1.21h3.62m0-.5h-3.62a1.56,1.56,0,0,0-1.71,1.71.5.5,0,0,0,.5.5h3.63a1.54,1.54,0,0,0,1.7-1.69.51.51,0,0,0-.5-.52Z"/>
          </g>
        </g>
      </g>
    </g>
  </g>
</svg>
